<svg width="125" height="125" viewBox="0 0 125 125" fill="none" xmlns="http://www.w3.org/2000/svg">
<rect width="125" height="125" fill="white"/>
<rect x="6.25" y="6.25" width="112.5" height="112.5" fill="#F5F5F8"/>
<mask id="mask0" mask-type="alpha" maskUnits="userSpaceOnUse" x="6" y="6" width="113" height="113">
<rect x="6.25" y="6.25" width="112.5" height="112.5" fill="white"/>
</mask>
<g mask="url(#mask0)">
<path fill-rule="evenodd" clip-rule="evenodd" d="M103.426 105.699C100.11 100.901 95.2211 97.4144 89.6055 95.8413L76.5627 92.1876V82.8129C82.0764 78.671 85.6974 72.1532 85.9199 64.7804C86.6905 65.1201 87.5411 65.3126 88.438 65.3126C91.8895 65.3126 94.688 62.5145 94.688 59.0626C94.688 55.6107 91.8895 52.8126 88.438 52.8126C87.5483 52.8126 86.7039 53.001 85.938 53.336V51.5626C85.938 38.6182 75.4445 28.1251 62.5005 28.1251H62.5002C49.5561 28.1251 39.063 38.6182 39.063 51.5626V53.336C38.2967 53.001 37.4524 52.8126 36.563 52.8126C33.1111 52.8126 30.313 55.6107 30.313 59.0626C30.313 62.5145 33.1111 65.3126 36.563 65.3126C37.4596 65.3126 38.3102 65.1204 39.0811 64.7804C39.3033 72.1532 42.9242 78.671 48.4377 82.8129V92.1876L35.3952 95.8413C29.7796 97.4144 24.8905 100.901 21.5742 105.699L12.5005 118.825V128.125H112.5V118.825L103.426 105.699Z" fill="#B5683C"/>
<path fill-rule="evenodd" clip-rule="evenodd" d="M62.5001 87.4999C59.6101 87.4999 56.8438 86.9737 54.2876 86.0171C57.9232 88.3396 62.2407 89.6874 66.8751 89.6874C70.3313 89.6874 73.6092 88.9334 76.5626 87.5906V82.8127C72.6454 85.7552 67.7767 87.4999 62.5001 87.4999Z" fill="#A3420B"/>
<path d="M39.8782 59.9746C39.9579 59.6843 40.0007 59.3784 40.0007 59.0627C40.0007 57.1643 38.4617 55.6252 36.5632 55.6252C36.0885 55.6252 35.6363 55.7215 35.2251 55.8952" stroke="#00004D" stroke-width="2" stroke-linecap="round" stroke-linejoin="round"/>
<path d="M85.1227 59.9746C85.043 59.6843 85.0005 59.3784 85.0005 59.0627C85.0005 57.1643 86.5396 55.6252 88.438 55.6252C88.9124 55.6252 89.3646 55.7215 89.7761 55.8952" stroke="#00004D" stroke-width="2" stroke-linecap="round" stroke-linejoin="round"/>
<path fill-rule="evenodd" clip-rule="evenodd" d="M68.75 73.1279C68.75 76.5797 65.9519 79.3779 62.5 79.3779C59.0481 79.3779 56.25 76.5797 56.25 73.1279H68.75Z" fill="white"/>
<path fill-rule="evenodd" clip-rule="evenodd" d="M88.4375 52.8125C89.0981 52.8125 89.7343 52.9168 90.3318 53.1065C90.595 52.5962 90.7484 52.0193 90.7484 51.4043C90.7484 50.0097 89.985 48.7953 88.855 48.1493C90.5246 47.1737 91.6493 45.3672 91.6493 43.294C91.6493 40.4743 89.5721 38.1456 86.8662 37.7387C87.2959 36.9718 87.5434 36.0887 87.5434 35.1472C87.5434 32.2131 85.1646 29.8347 82.2309 29.8347C81.1378 29.8347 80.1225 30.1656 79.2778 30.7315C79.2784 30.694 79.2806 30.6572 79.2806 30.6193C79.2806 26.8225 76.2025 23.7443 72.4056 23.7443C70.7593 23.7443 69.2487 24.324 68.0646 25.2893C67.0306 23.2643 64.9296 21.875 62.5 21.875C60.0703 21.875 57.9693 23.2643 56.9353 25.2893C55.7512 24.324 54.2406 23.7443 52.5943 23.7443C48.7975 23.7443 45.7193 26.8225 45.7193 30.6193C45.7193 30.6572 45.7215 30.694 45.7221 30.7315C44.8775 30.1656 43.8621 29.8347 42.769 29.8347C39.8353 29.8347 37.4565 32.2131 37.4565 35.1472C37.4565 36.0887 37.704 36.9718 38.1337 37.7387C35.4278 38.1456 33.3506 40.4743 33.3506 43.294C33.3506 45.3672 34.4753 47.1737 36.145 48.1493C35.015 48.7953 34.2515 50.0097 34.2515 51.4043C34.2515 52.019 34.4043 52.5959 34.6662 53.1072C35.2646 52.9168 35.9012 52.8125 36.5625 52.8125C38.7021 52.8125 40.589 53.889 41.7156 55.5284C44.9153 54.319 47.28 51.4097 47.7068 47.9006C48.7171 48.4422 49.8712 48.75 51.0975 48.75C54.0284 48.75 56.5478 46.9947 57.6665 44.4787C58.9265 45.6725 60.6271 46.4062 62.5 46.4062C64.3728 46.4062 66.0734 45.6725 67.3334 44.4787C68.4521 46.9947 70.9715 48.75 73.9025 48.75C75.1287 48.75 76.2828 48.4422 77.2931 47.9006C77.72 51.4097 80.0846 54.319 83.2843 55.5284C84.4109 53.889 86.2978 52.8125 88.4375 52.8125Z" fill="#00004D"/>
<path fill-rule="evenodd" clip-rule="evenodd" d="M112.5 118.825L103.426 105.698C100.11 100.902 95.2209 97.4144 89.605 95.8413L76.5625 92.1875C76.5625 99.9541 70.2666 106.25 62.5 106.25C54.7334 106.25 48.4375 99.9541 48.4375 92.1875L35.3947 95.8413C29.7791 97.4144 24.89 100.902 21.5737 105.698L12.5 118.825V128.125H112.5V118.825Z" fill="#80C43B"/>
</g>
</svg>
