<svg width="38" height="47" viewBox="0 0 38 47" fill="none" xmlns="http://www.w3.org/2000/svg">
<path d="M37.2155 37.4029C37.0743 37.3132 36.0119 36.5848 34.948 34.3812C32.9943 30.3346 32.5843 24.6342 32.5843 20.5648C32.5843 20.5471 32.5839 20.5295 32.5832 20.5119C32.5619 15.1336 29.2713 10.4973 24.5623 8.41713V5.23573C24.5623 2.34871 22.1663 0 19.2213 0H18.7787C15.8336 0 13.4377 2.34871 13.4377 5.23573V8.41695C8.71296 10.5039 5.41572 15.1638 5.41572 20.5648C5.41572 24.6342 5.00564 30.3346 3.05195 34.3812C1.9882 36.5847 0.925761 37.3131 0.784503 37.4029C0.189644 37.6723 -0.103659 38.2947 0.0331902 38.9255C0.171353 39.5624 0.77972 40.0016 1.44408 40.0016H11.7568C11.8144 43.87 15.0404 47 19 47C22.9597 47 26.1857 43.87 26.2433 40.0016H36.556C37.2203 40.0016 37.8287 39.5624 37.9669 38.9255C38.1035 38.2947 37.8103 37.6722 37.2155 37.4029ZM16.2517 5.23573C16.2517 3.8697 17.3853 2.7584 18.7788 2.7584H19.2214C20.6148 2.7584 21.7485 3.8697 21.7485 5.23573V7.52303C20.8604 7.34338 19.9411 7.24883 18.9997 7.24883C18.0585 7.24883 17.1395 7.34329 16.2518 7.52275V5.23573H16.2517ZM19 44.2416C16.592 44.2416 14.6278 42.349 14.5707 40.0017H23.4293C23.3723 42.3489 21.4081 44.2416 19 44.2416ZM24.6654 37.2431C24.6651 37.2431 4.65053 37.2431 4.65053 37.2431C4.89393 36.8719 5.14165 36.4515 5.38786 35.9765C7.27356 32.3374 8.22972 27.1521 8.22972 20.5648C8.22972 14.7433 13.0611 10.0072 18.9996 10.0072C24.938 10.0072 29.7694 14.7433 29.7694 20.5694C29.7694 20.5864 29.7697 20.6033 29.7703 20.6201C29.7757 27.1811 30.7318 32.3477 32.6122 35.9765C32.8584 36.4516 33.1062 36.8719 33.3495 37.2431H24.6654Z" fill="black"/>
</svg>
