<?xml version="1.0" encoding="UTF-8" standalone="no"?><!-- Generator: Gravit.io --><svg xmlns="http://www.w3.org/2000/svg" xmlns:xlink="http://www.w3.org/1999/xlink" style="isolation:isolate" viewBox="0 0 360.5 350" width="360.5pt" height="350pt"><defs><clipPath id="_clipPath_bBEZy22RZGY7cShXeJKAFy1ugFEFTnSy"><rect width="360.5" height="350"/></clipPath></defs><g clip-path="url(#_clipPath_bBEZy22RZGY7cShXeJKAFy1ugFEFTnSy)"><g style="opacity:0.3;"><path d=" M 365.234 3.032 C 395.394 42.087 391.762 114.158 386.8 177.453 C 381.838 240.748 427.533 287.6 318.1 324 C 269.6 335 113.147 367.917 53.8 333.672 C -5.547 299.428 7.666 215.05 5.678 158.607 C 10.01 94.05 12.176 55.501 48.281 8.257 C 86.71 -32.721 147.613 -49.17 203.846 -45.515 C 260.177 -41.956 334.977 -36.022 365.234 3.032 Z " fill="rgb(70,176,75)"/></g><g><path d=" M 137.2 285.113 L 138.2 289.433 C 138.444 290.706 138.851 291.943 139.41 293.113 C 140.524 294.929 142.07 296.44 143.91 297.513 C 146.7 299.373 149.91 300.953 153.22 300.843 C 153.711 300.927 154.211 300.765 154.56 300.41 C 154.909 300.055 155.062 299.552 154.97 299.063 C 155.15 293.333 149.31 291.673 148.97 286.063 C 148.77 282.893 148.56 279.713 148.35 276.543 C 148.09 272.723 146.64 265.543 142.44 264.083 C 133.11 260.803 135 275.753 136.04 280.163 L 137.2 285.113 Z " fill="rgb(228,169,138)"/><path d=" M 152.53 281.403 L 152.73 281.743 C 153.527 282.885 153.911 284.264 153.82 285.653 C 153.629 287.139 153.71 288.647 154.06 290.103 C 154.73 292.103 156.61 293.323 158.44 294.293 C 161.581 296.127 165.143 297.116 168.78 297.163 C 169.315 297.176 169.846 297.062 170.33 296.833 C 171.105 296.253 171.627 295.397 171.79 294.443 C 171.897 294.159 171.941 293.856 171.92 293.553 C 171.835 293.193 171.651 292.865 171.39 292.603 C 169.86 290.883 167.82 289.723 166.06 288.243 C 164.137 286.831 162.953 284.626 162.84 282.243 C 162.76 279.243 162.45 276.243 162.25 273.243 C 161.93 268.503 158.65 256.493 151.49 261.873 C 147.14 265.133 148.49 270.873 150.06 275.283 C 150.719 277.386 151.545 279.432 152.53 281.403 Z " fill="rgb(228,169,138)"/><path d=" M 217.34 277.953 L 216.87 282.323 C 216.78 283.595 216.549 284.853 216.18 286.073 C 215.478 287.881 214.345 289.491 212.88 290.763 C 210.75 292.763 208.29 294.593 205.55 294.713 C 205.173 294.769 204.79 294.668 204.49 294.433 C 204.167 294.045 203.987 293.558 203.98 293.053 C 203.35 287.363 207.98 285.313 207.81 279.703 Q 207.66 274.933 207.53 270.163 C 207.42 266.343 208.01 259.103 211.32 257.343 C 218.67 253.443 218.32 268.473 217.88 272.933 L 217.34 277.953 Z " fill="rgb(228,169,138)"/><path d=" M 204.53 275.263 L 204.39 275.613 C 203.822 276.864 203.627 278.254 203.83 279.613 C 204.106 281.08 204.163 282.579 204 284.063 C 203.512 285.903 202.362 287.498 200.77 288.543 C 198.3 290.453 195.53 291.963 192.56 292.103 C 192.121 292.155 191.676 292.079 191.28 291.883 C 190.567 291.302 190.076 290.493 189.89 289.593 C 189.773 289.317 189.708 289.022 189.7 288.723 C 189.739 288.366 189.863 288.023 190.06 287.723 C 191.16 285.913 192.74 284.613 194.06 283.013 C 195.577 281.298 196.344 279.047 196.19 276.763 C 196 273.763 196.01 270.763 195.92 267.763 C 195.79 263.013 197.47 250.823 203.76 255.693 C 207.58 258.693 206.98 264.503 206.04 268.973 C 205.682 271.102 205.178 273.204 204.53 275.263 L 204.53 275.263 Z " fill="rgb(228,169,138)"/><path d=" M 136.98 173.043 C 140.198 172.68 143.445 172.646 146.67 172.943 C 149.867 173.24 152.926 174.386 155.53 176.263 C 157.298 177.712 158.8 179.459 159.97 181.423 C 161.544 183.926 162.909 186.555 164.05 189.283 C 166.17 194.233 167.75 199.573 167.05 204.873 C 167.052 204.997 167.009 205.118 166.93 205.213 C 166.807 205.299 166.659 205.341 166.51 205.333 C 155 205.843 143.51 205.633 131.97 206.083 C 125.56 206.333 118.97 206.773 112.87 204.953 C 113.94 202.142 114.675 199.216 115.06 196.233 C 115.49 192.793 115.47 189.233 116.97 186.043 C 118.04 184.022 119.432 182.188 121.09 180.613 C 122.635 178.912 124.389 177.413 126.31 176.153 C 127.943 175.114 129.788 174.454 131.71 174.223 C 133.53 174.023 135.09 173.203 136.98 173.043 Z " fill="rgb(52,73,94)"/><path d=" M 153.4 165.723 C 152.926 167.054 152.204 168.283 151.27 169.343 C 150.273 170.324 149.09 171.096 147.79 171.613 C 146.605 172.174 145.327 172.513 144.02 172.613 C 141.398 172.61 138.895 171.524 137.1 169.613 C 135.394 167.765 133.969 165.676 132.87 163.413 C 132.81 163.773 132.29 163.933 131.93 163.773 C 131.598 163.585 131.34 163.288 131.2 162.933 C 130.634 161.79 130.32 160.538 130.28 159.263 C 130.25 158.985 130.299 158.705 130.42 158.453 C 130.87 157.663 132.13 157.933 132.99 158.313 C 133.71 156.943 133.56 155.313 134.09 153.863 C 135.09 151.103 138.25 149.683 141.09 148.553 C 143.754 147.333 146.61 146.585 149.53 146.343 C 150.33 146.276 151.134 146.396 151.88 146.693 C 152.564 147.049 153.169 147.539 153.66 148.133 C 154.865 149.242 155.723 150.676 156.13 152.263 C 156.142 153.383 156.004 154.5 155.72 155.583 C 155.421 159.054 154.64 162.467 153.4 165.723 Z " fill="rgb(228,169,138)"/><path d=" M 138.05 175.883 C 137.88 176.846 138.013 177.838 138.43 178.723 C 139.24 180.053 141.15 180.393 142.76 180.183 C 143.657 180.103 144.521 179.808 145.28 179.323 C 146.158 178.661 146.777 177.713 147.03 176.643 C 147.27 175.604 147.38 174.539 147.36 173.473 L 147.45 169.473 C 147.467 169.366 147.438 169.257 147.37 169.173 C 147.283 169.119 147.182 169.095 147.08 169.103 L 142.76 169.103 C 141.83 169.103 139.82 168.733 139.03 169.293 C 137.74 170.263 138.05 174.503 138.05 175.883 Z " fill="rgb(228,169,138)"/><path d=" M 130.53 159.063 C 130.201 159.302 129.917 159.596 129.69 159.933 C 129.441 160.273 129.028 160.452 128.61 160.403 C 128.295 160.286 128.04 160.048 127.9 159.743 C 127.057 158.467 126.609 156.972 126.61 155.443 C 126.658 153.872 127.575 152.458 128.99 151.773 C 129.18 151.693 129.39 151.613 129.46 151.423 C 129.53 151.233 129.41 151.073 129.32 150.913 C 128.531 149.599 128.113 148.096 128.11 146.563 C 128.08 146.038 128.198 145.515 128.45 145.053 C 129.13 144.267 130.111 143.806 131.15 143.783 C 132.63 143.573 134.41 143.603 135.26 144.783 C 135.404 144.116 135.754 143.511 136.26 143.053 C 136.82 142.581 137.608 142.49 138.26 142.823 C 139.241 141.011 140.985 139.736 143.01 139.353 C 144 139.117 145.036 139.148 146.01 139.443 C 147.61 139.993 148.66 141.443 149.6 142.763 C 151.475 142.031 153.606 142.731 154.68 144.433 C 154.78 144.664 154.922 144.875 155.1 145.053 C 155.571 145.316 156.12 145.404 156.65 145.303 C 158.416 145.28 160.011 146.356 160.65 148.003 C 161.162 149.64 160.535 151.419 159.11 152.373 C 158.503 152.665 157.954 153.065 157.49 153.553 C 157.24 153.913 157.16 154.363 156.88 154.703 C 156.383 155.177 155.716 155.429 155.03 155.403 C 152.062 155.551 149.22 154.194 147.47 151.793 C 147.27 151.503 147.01 151.163 146.64 151.173 C 146.451 151.202 146.272 151.277 146.12 151.393 C 144.45 152.34 142.376 152.198 140.85 151.033 C 140.34 150.633 139.79 150.033 139.14 150.213 C 138.01 150.463 138.35 152.353 137.31 152.853 C 137.167 152.903 137.032 152.973 136.91 153.063 C 136.8 153.205 136.747 153.384 136.76 153.563 C 136.835 154.425 136.835 155.291 136.76 156.153 C 136.306 157.682 135.453 159.062 134.29 160.153 C 132.93 161.503 131.3 160.203 130.53 159.063 Z " fill="rgb(62,62,82)"/><path d=" M 206.62 173.043 C 203.405 172.68 200.162 172.646 196.94 172.943 C 193.727 173.235 190.651 174.381 188.03 176.263 C 186.268 177.715 184.769 179.461 183.6 181.423 C 182.027 183.918 180.665 186.541 179.53 189.263 C 177.41 194.213 175.83 199.553 176.53 204.853 C 176.536 204.977 176.582 205.096 176.66 205.193 C 176.783 205.279 176.931 205.321 177.08 205.313 C 188.58 205.823 200.08 205.613 211.61 206.063 C 218.02 206.313 224.61 206.753 230.72 204.933 C 229.65 202.14 228.914 199.229 228.53 196.263 C 228.1 192.823 228.12 189.263 226.61 186.073 C 225.547 184.05 224.158 182.216 222.5 180.643 C 220.95 178.944 219.193 177.446 217.27 176.183 C 215.641 175.143 213.799 174.483 211.88 174.253 C 210.04 174.023 208.53 173.203 206.62 173.043 Z " fill="rgb(70,176,75)"/><linearGradient id="_lgradient_36" x1="1" y1="0.4999933836410353" x2="0.933120001020157" y2="1.1158881442915423" gradientTransform="matrix(54.358,0,0,33.555,176.362,172.743)" gradientUnits="userSpaceOnUse"><stop offset="0%" stop-opacity="1" style="stop-color:rgb(155,89,182)"/><stop offset="100%" stop-opacity="1" style="stop-color:rgb(0,0,0)"/></linearGradient><path d=" M 206.62 173.043 C 203.405 172.68 200.162 172.646 196.94 172.943 C 193.727 173.235 190.651 174.381 188.03 176.263 C 186.268 177.715 184.769 179.461 183.6 181.423 C 182.027 183.918 180.665 186.541 179.53 189.263 C 177.41 194.213 175.83 199.553 176.53 204.853 C 176.536 204.977 176.582 205.096 176.66 205.193 C 176.783 205.279 176.931 205.321 177.08 205.313 C 188.58 205.823 200.08 205.613 211.61 206.063 C 218.02 206.313 224.61 206.753 230.72 204.933 C 229.65 202.14 228.914 199.229 228.53 196.263 C 228.1 192.823 228.12 189.263 226.61 186.073 C 225.547 184.05 224.158 182.216 222.5 180.643 C 220.95 178.944 219.193 177.446 217.27 176.183 C 215.641 175.143 213.799 174.483 211.88 174.253 C 210.04 174.023 208.53 173.203 206.62 173.043 Z " fill="url(#_lgradient_36)"/><path d=" M 190.2 165.723 C 190.681 167.053 191.407 168.28 192.34 169.343 C 193.335 170.322 194.514 171.094 195.81 171.613 C 196.995 172.173 198.273 172.512 199.58 172.613 C 202.205 172.61 204.712 171.525 206.51 169.613 C 208.216 167.765 209.641 165.676 210.74 163.413 C 210.8 163.773 211.32 163.933 211.67 163.773 C 212.007 163.588 212.269 163.291 212.41 162.933 C 212.973 161.789 213.287 160.538 213.33 159.263 C 213.349 158.986 213.301 158.708 213.19 158.453 C 212.74 157.663 211.48 157.933 210.62 158.313 C 209.89 156.943 210.05 155.313 209.52 153.863 C 208.52 151.103 205.36 149.683 202.52 148.553 C 199.867 147.326 197.022 146.568 194.11 146.313 C 193.31 146.246 192.506 146.366 191.76 146.663 C 191.076 147.019 190.471 147.509 189.98 148.103 C 188.773 149.22 187.921 150.666 187.53 152.263 C 187.518 153.383 187.656 154.5 187.94 155.583 C 188.224 159.051 188.985 162.463 190.2 165.723 L 190.2 165.723 Z " fill="rgb(228,169,138)"/><path d=" M 185.65 145.133 C 184.716 147.238 184.294 149.534 184.42 151.833 C 184.374 153.678 184.623 155.518 185.16 157.283 C 185.71 158.893 186.63 160.393 186.84 162.073 C 187.2 165.003 185.34 167.803 185.44 170.753 C 185.424 171.554 185.682 172.337 186.17 172.973 C 187.25 174.243 189.25 174.053 190.86 173.613 C 191.173 173.554 191.462 173.405 191.69 173.183 C 191.955 172.754 192.014 172.23 191.85 171.753 L 189.24 158.203 C 189.15 157.818 189.15 157.418 189.24 157.033 C 189.407 156.65 189.657 156.309 189.97 156.033 C 191.896 153.874 192.819 151 192.51 148.123 C 193.165 149.625 194.462 150.752 196.04 151.193 C 197.598 151.623 199.219 151.775 200.83 151.643 L 204.71 157.493 C 204.856 157.76 205.065 157.987 205.32 158.153 C 206.23 158.683 207.4 157.543 208.38 157.913 C 209.2 158.977 209.505 160.352 209.21 161.663 C 209.01 162.973 208.49 164.213 208.21 165.513 C 207.78 167.46 207.88 169.487 208.5 171.383 C 208.638 171.952 208.957 172.461 209.41 172.833 C 209.808 173.061 210.252 173.198 210.71 173.233 L 219.11 174.463 L 219.17 163.693 C 219.264 160.905 219.107 158.113 218.7 155.353 C 218.437 153.172 217.488 151.13 215.99 149.523 C 215.071 148.764 214.106 148.063 213.1 147.423 C 211.25 146.063 209.79 144.223 207.9 142.923 C 204.07 140.303 199.3 140.433 194.9 141.153 C 191.1 141.723 187.73 141.023 185.65 145.133 Z " fill="rgb(62,62,82)"/><path d=" M 205.53 175.883 C 205.7 176.846 205.567 177.838 205.15 178.723 C 204.34 180.053 202.43 180.393 200.82 180.183 C 199.923 180.103 199.059 179.808 198.3 179.323 C 197.422 178.661 196.803 177.713 196.55 176.643 C 196.31 175.604 196.2 174.539 196.22 173.473 L 196.13 169.473 C 196.113 169.366 196.142 169.257 196.21 169.173 C 196.297 169.119 196.398 169.095 196.5 169.103 L 200.82 169.103 C 201.75 169.103 203.76 168.733 204.55 169.293 C 205.87 170.263 205.53 174.503 205.53 175.883 Z " fill="rgb(228,169,138)"/><path d=" M 210.53 175.113 C 211.15 174.883 212.02 175.323 211.93 175.973 C 212.455 175.283 212.873 174.518 213.17 173.703 C 213.472 172.875 214.096 172.205 214.9 171.843 C 215.72 171.573 216.83 172.113 216.81 172.983 C 217.74 170.723 218.946 168.587 220.4 166.623 C 221.882 164.653 224.041 163.299 226.46 162.823 C 227.46 164.083 226.9 165.893 226.24 167.343 C 225.169 169.704 223.827 171.933 222.24 173.983 C 223.24 173.613 224.52 173.313 225.24 174.113 C 225.676 174.727 225.676 175.549 225.24 176.163 C 224.809 176.754 224.257 177.245 223.62 177.603 C 224.68 177.513 225.42 178.843 225.11 179.863 C 224.696 180.858 223.878 181.629 222.86 181.983 C 221.852 182.326 220.885 182.782 219.98 183.343 C 219.61 183.633 219.28 183.983 218.89 184.253 C 216.7 185.703 211.01 185.493 209.04 183.583 C 207.07 181.673 208.11 176.043 210.53 175.113 Z " fill="rgb(70,176,75)"/><path d=" M 188.76 179.723 C 188.58 177.923 190.49 176.153 192.2 176.723 L 189.7 172.183 C 189.32 171.513 189.1 170.403 189.84 170.183 C 190.39 170.013 191.11 170.563 191.49 170.183 C 191.613 170.012 191.673 169.803 191.66 169.593 C 191.625 168.384 191.675 167.175 191.81 165.973 C 191.96 164.756 192.627 163.663 193.64 162.973 C 193.867 162.814 194.149 162.756 194.42 162.813 C 194.76 162.923 194.92 163.293 195.04 163.633 L 198.22 172.393 C 199.02 171.753 199.22 170.543 200.08 169.983 C 201.15 169.283 202.7 170.083 203.19 171.273 C 203.565 172.509 203.49 173.837 202.98 175.023 C 204.099 174.36 205.361 173.976 206.66 173.903 C 206.483 176.429 206.105 178.937 205.53 181.403 C 205.517 181.622 205.417 181.826 205.251 181.969 C 205.085 182.112 204.868 182.182 204.65 182.163 C 201.35 182.553 189.3 185.263 188.76 179.723 Z " fill="rgb(70,176,75)"/><linearGradient id="_lgradient_37" x1="0.500016413039603" y1="1.0000170542208826" x2="0.5000164130396031" y2="0" gradientTransform="matrix(18.998,0,0,22.377,208.007,162.823)" gradientUnits="userSpaceOnUse"><stop offset="0%" stop-opacity="1" style="stop-color:rgb(0,0,0)"/><stop offset="100%" stop-opacity="1" style="stop-color:rgb(70,176,75)"/></linearGradient><path d=" M 210.53 175.113 C 211.15 174.883 212.02 175.323 211.93 175.973 C 212.455 175.283 212.873 174.518 213.17 173.703 C 213.472 172.875 214.096 172.205 214.9 171.843 C 215.72 171.573 216.83 172.113 216.81 172.983 C 217.74 170.723 218.946 168.587 220.4 166.623 C 221.882 164.653 224.041 163.299 226.46 162.823 C 227.46 164.083 226.9 165.893 226.24 167.343 C 225.169 169.704 223.827 171.933 222.24 173.983 C 223.24 173.613 224.52 173.313 225.24 174.113 C 225.676 174.727 225.676 175.549 225.24 176.163 C 224.809 176.754 224.257 177.245 223.62 177.603 C 224.68 177.513 225.42 178.843 225.11 179.863 C 224.696 180.858 223.878 181.629 222.86 181.983 C 221.852 182.326 220.885 182.782 219.98 183.343 C 219.61 183.633 219.28 183.983 218.89 184.253 C 216.7 185.703 211.01 185.493 209.04 183.583 C 207.07 181.673 208.11 176.043 210.53 175.113 Z " fill="url(#_lgradient_37)"/><linearGradient id="_lgradient_38" x1="0.49999487630852" y1="0.00001998380879397743" x2="0.49999487630851985" y2="1.000005527239241" gradientTransform="matrix(17.912,0,0,20.376,188.748,162.792)" gradientUnits="userSpaceOnUse"><stop offset="0%" stop-opacity="1" style="stop-color:rgb(70,176,75)"/><stop offset="100%" stop-opacity="1" style="stop-color:rgb(0,0,0)"/></linearGradient><path d=" M 188.76 179.723 C 188.58 177.923 190.49 176.153 192.2 176.723 L 189.7 172.183 C 189.32 171.513 189.1 170.403 189.84 170.183 C 190.39 170.013 191.11 170.563 191.49 170.183 C 191.613 170.012 191.673 169.803 191.66 169.593 C 191.625 168.384 191.675 167.175 191.81 165.973 C 191.96 164.756 192.627 163.663 193.64 162.973 C 193.867 162.814 194.149 162.756 194.42 162.813 C 194.76 162.923 194.92 163.293 195.04 163.633 L 198.22 172.393 C 199.02 171.753 199.22 170.543 200.08 169.983 C 201.15 169.283 202.7 170.083 203.19 171.273 C 203.565 172.509 203.49 173.837 202.98 175.023 C 204.099 174.36 205.361 173.976 206.66 173.903 C 206.483 176.429 206.105 178.937 205.53 181.403 C 205.517 181.622 205.417 181.826 205.251 181.969 C 205.085 182.112 204.868 182.182 204.65 182.163 C 201.35 182.553 189.3 185.263 188.76 179.723 Z " fill="url(#_lgradient_38)"/><path d=" M 226.53 181.873 C 227.821 181.986 229.103 182.179 230.37 182.453 C 231.243 187.519 230.148 192.727 227.31 197.013 C 222.31 204.473 212.12 207.833 203.49 205.963 C 198.643 204.823 194.365 201.985 191.43 197.963 C 189.809 195.763 188.534 193.329 187.65 190.743 C 187.08 189.093 185.34 184.923 186.32 183.263 C 187.3 181.603 191.69 181.643 193.38 181.473 C 196.469 181.205 199.57 181.091 202.67 181.133 Q 212.83 181.133 222.96 181.673 C 224.17 181.693 225.37 181.763 226.53 181.873 Z " fill="rgb(70,176,75)"/><linearGradient id="_lgradient_39" x1="-0.7621512424044519" y1="1.0720463333844399" x2="0.9999787514333738" y2="0.747228478248827" gradientTransform="matrix(44.637,0,0,25.347,186.026,181.125)" gradientUnits="userSpaceOnUse"><stop offset="0%" stop-opacity="1" style="stop-color:rgb(70,176,75)"/><stop offset="14.144506285418057%" stop-opacity="1" style="stop-color:rgb(0,0,0)"/><stop offset="100%" stop-opacity="1" style="stop-color:rgb(63,158,68)"/></linearGradient><path d=" M 226.53 181.873 C 227.821 181.986 229.103 182.179 230.37 182.453 C 231.243 187.519 230.148 192.727 227.31 197.013 C 222.31 204.473 212.12 207.833 203.49 205.963 C 198.643 204.823 194.365 201.985 191.43 197.963 C 189.809 195.763 188.534 193.329 187.65 190.743 C 187.08 189.093 185.34 184.923 186.32 183.263 C 187.3 181.603 191.69 181.643 193.38 181.473 C 196.469 181.205 199.57 181.091 202.67 181.133 Q 212.83 181.133 222.96 181.673 C 224.17 181.693 225.37 181.763 226.53 181.873 Z " fill="url(#_lgradient_39)"/><g style="opacity:0.18;"><g opacity="0.18"><ellipse vector-effect="non-scaling-stroke" cx="189.69999999999996" cy="311.3832255805022" rx="170.8" ry="21.629999999999995" fill="rgb(70,176,75)"/></g></g><path d=" M 227.97 309.843 C 227.695 309.847 227.423 309.781 227.18 309.653 C 226.42 309.173 226.87 307.983 227.46 307.303 C 228.799 305.856 230.302 304.571 231.94 303.473 L 238.18 298.943 C 238.727 298.506 239.329 298.143 239.97 297.863 C 240.778 297.604 241.622 297.479 242.47 297.493 L 247.86 297.263 C 248.246 297.213 248.638 297.261 249 297.403 C 249.413 297.649 249.727 298.031 249.89 298.483 C 250.673 300.405 251.084 302.458 251.1 304.533 C 251.213 305.447 251.082 306.376 250.72 307.223 C 249.99 308.563 248.02 308.633 246.72 308.853 C 244.62 309.203 242.52 309.503 240.41 309.703 C 236.274 310.086 232.114 310.132 227.97 309.843 L 227.97 309.843 Z " fill="rgb(231,76,60)"/><path d=" M 317.05 166.073 L 312.92 311.493 L 305.6 311.493 L 305.6 264.483 L 262.91 264.483 L 262.91 311.493 L 255.59 311.493 L 255.59 257.273 L 306.91 256.593 L 308.46 166.073 L 317.05 166.073 L 317.05 166.073 Z " fill="rgb(70,176,75)"/><path d=" M 40.94 166.073 L 45.07 311.493 L 52.39 311.493 L 52.39 264.483 L 95.08 264.483 L 95.08 311.493 L 102.41 311.493 L 102.41 257.273 L 51.08 256.593 L 49.54 166.073 L 40.94 166.073 L 40.94 166.073 Z " fill="rgb(70,176,75)"/><linearGradient id="_lgradient_40" x1="0.5" y1="0" x2="0.49999999999999983" y2="0.9999999999999999" gradientTransform="matrix(61.46,0,0,145.42,255.59,166.073)" gradientUnits="userSpaceOnUse"><stop offset="0%" stop-opacity="1" style="stop-color:rgb(70,176,75)"/><stop offset="100%" stop-opacity="1" style="stop-color:rgb(0,0,0)"/></linearGradient><path d=" M 317.05 166.073 L 312.92 311.493 L 305.6 311.493 L 305.6 264.483 L 262.91 264.483 L 262.91 311.493 L 255.59 311.493 L 255.59 257.273 L 306.91 256.593 L 308.46 166.073 L 317.05 166.073 L 317.05 166.073 Z " fill="url(#_lgradient_40)"/><linearGradient id="_lgradient_41" x1="0.5" y1="0" x2="0.49999999999999983" y2="0.9999999999999999" gradientTransform="matrix(61.47,0,0,145.42,40.94,166.073)" gradientUnits="userSpaceOnUse"><stop offset="0%" stop-opacity="1" style="stop-color:rgb(70,176,75)"/><stop offset="100%" stop-opacity="1" style="stop-color:rgb(0,0,0)"/></linearGradient><path d=" M 40.94 166.073 L 45.07 311.493 L 52.39 311.493 L 52.39 264.483 L 95.08 264.483 L 95.08 311.493 L 102.41 311.493 L 102.41 257.273 L 51.08 256.593 L 49.54 166.073 L 40.94 166.073 L 40.94 166.073 Z " fill="url(#_lgradient_41)"/><path d=" M 306.42 242.433 C 307 242.763 305.85 246.503 305.71 246.913 C 304.464 250.277 301.868 252.968 298.55 254.333 C 292.4 257.053 284.96 255.923 278.44 256.333 Q 264.55 257.203 250.65 257.573 Q 251 279.763 251.13 301.943 C 247.371 301.382 243.748 300.135 240.44 298.263 C 239.858 297.983 239.35 297.568 238.96 297.053 C 238.668 296.506 238.497 295.902 238.46 295.283 L 236.46 280.753 C 235.35 272.633 234.25 264.453 234.77 256.283 C 235.251 251.682 234.809 247.031 233.47 242.603 C 232.82 240.433 232.86 239.373 234.47 237.743 C 237.34 234.853 242.71 233.853 246.47 232.963 C 256.69 230.563 267.29 229.573 277.75 228.873 C 278.98 228.793 280.21 228.713 281.44 228.663 L 306.42 242.433 Z " fill="rgb(62,62,82)"/><path d=" M 247.36 132.413 C 247.9 135.163 248.36 138.143 247.09 140.653 C 246.7 141.443 246.15 142.363 246.58 143.133 C 246.873 143.512 247.254 143.815 247.69 144.013 C 249.85 145.283 251.02 147.663 252.26 149.843 C 253.5 152.023 255.12 154.263 257.55 154.843 C 259.98 155.423 262.6 154.083 265.14 154.293 C 268.09 154.523 270.45 156.753 272.38 159.003 C 272.609 159.359 272.968 159.61 273.38 159.703 C 273.713 159.685 274.031 159.562 274.29 159.353 C 276.87 157.663 279.269 155.713 281.45 153.533 C 281.626 153.389 281.753 153.193 281.81 152.973 C 281.818 152.712 281.733 152.457 281.57 152.253 C 277.32 145.253 277.26 136.613 275.93 128.533 C 275.25 124.463 274.15 120.293 271.45 117.173 C 267.45 112.573 260.67 111.233 254.68 112.333 C 253.429 112.501 252.235 112.956 251.19 113.663 C 250.269 114.468 249.512 115.442 248.96 116.533 C 246.07 121.483 246.26 126.893 247.36 132.413 Z " fill="rgb(228,169,138)"/><path d=" M 265.09 139.953 C 261.26 141.413 257 141.193 253.04 142.253 C 252.001 142.435 251.059 142.976 250.38 143.783 C 249.83 144.785 249.7 145.965 250.02 147.063 C 250.361 148.561 250.823 150.029 251.4 151.453 C 252.24 153.673 253.2 156.063 255.22 157.313 C 256.454 157.977 257.82 158.36 259.22 158.433 C 261.383 158.804 263.608 158.496 265.59 157.553 C 267.59 156.423 268.81 154.313 269.92 152.303 L 273.97 145.013 C 275.15 142.873 276.38 140.473 275.78 138.103 C 275.18 135.733 273.54 133.943 271.38 135.643 C 269.22 137.343 267.64 138.983 265.09 139.953 Z " fill="rgb(62,62,82)"/><linearGradient id="_lgradient_42" x1="-2.690014970712" y1="0.6251732330302114" x2="0.9907999428814578" y2="0.33630655779348356" gradientTransform="matrix(43.573,0,0,100.805,265.22,151.942)" gradientUnits="userSpaceOnUse"><stop offset="0%" stop-opacity="1" style="stop-color:rgb(0,0,0)"/><stop offset="0%" stop-opacity="1" style="stop-color:rgb(4,1,1)"/><stop offset="4.3478260869565215%" stop-opacity="1" style="stop-color:rgb(9,3,2)"/><stop offset="100%" stop-opacity="1" style="stop-color:rgb(231,76,60)"/></linearGradient><path d=" M 297.37 160.003 C 304.438 170.533 308.288 182.892 308.45 195.573 C 308.56 201.573 307.34 206.573 307.96 212.623 C 308.845 219.942 309.025 227.329 308.5 234.683 C 308.336 237.443 307.749 240.161 306.76 242.743 C 304.606 247.721 300.162 251.337 294.85 252.433 C 283.08 254.753 271.8 243.783 267.15 234.113 C 265.971 231.918 265.311 229.483 265.22 226.993 C 265.22 223.993 266.54 221.193 267.53 218.373 C 269.73 212.153 269.64 206.283 269.91 199.893 C 270.18 193.503 270.83 187.023 270.82 180.523 C 270.82 175.933 270.68 171.303 271.56 166.803 C 272.44 162.303 274.44 157.803 277.98 154.923 C 285.53 148.683 292.67 153.143 297.37 160.003 Z " fill="url(#_lgradient_42)"/><linearGradient id="_lgradient_43" x1="-0.8303936301571433" y1="0.9817986029376211" x2="1.099798544481911" y2="0.16801902784929867" gradientTransform="matrix(49.563,0,0,43.893,246.83,163.869)" gradientUnits="userSpaceOnUse"><stop offset="0%" stop-opacity="1" style="stop-color:rgb(0,0,0)"/><stop offset="100%" stop-opacity="1" style="stop-color:rgb(231,76,60)"/></linearGradient><path d=" M 290.93 196.333 C 289.79 200.023 288.45 203.043 283.74 205.243 C 279.6 207.163 274.92 207.523 270.36 207.683 C 264.93 207.873 259.55 207.683 254.09 207.503 C 253.37 207.521 252.653 207.399 251.98 207.143 C 251.243 206.727 250.613 206.145 250.14 205.443 C 248.98 204.117 248.032 202.619 247.33 201.003 C 246.621 199.367 246.668 197.501 247.46 195.903 C 248.433 194.414 250 193.416 251.76 193.163 C 253.497 192.923 255.258 192.903 257 193.103 Q 261.44 193.383 265.88 193.273 C 267.95 193.213 271.69 193.713 273.41 192.333 C 273.987 191.779 274.419 191.092 274.67 190.333 L 280.94 175.693 C 282.34 172.433 283.22 168.573 285.86 166.033 C 290.61 161.443 295.34 164.723 296.13 170.563 C 297.19 178.283 294.87 184.563 292.38 191.563 C 291.8 193.263 291.38 194.863 290.93 196.333 Z " fill="url(#_lgradient_43)"/><path d=" M 256.84 145.693 C 257.097 146.5 257.252 147.337 257.3 148.183 C 257.3 148.653 257.3 149.183 256.88 149.463 C 256.571 149.642 256.189 149.642 255.88 149.463 C 255.594 149.271 255.346 149.026 255.15 148.743 C 254.74 148.213 253.5 147.113 253.97 146.373 C 254.19 145.993 256.75 145.423 256.84 145.693 Z " fill="rgb(255,255,255)"/><path d=" M 245.65 105.263 C 244.108 105.712 242.835 106.806 242.16 108.263 C 241.737 109.762 242.18 111.372 243.31 112.443 C 244.438 113.489 245.871 114.144 247.4 114.313 C 247.121 115.015 246.992 115.768 247.02 116.523 C 247.039 117.317 247.556 118.014 248.31 118.263 C 248.793 118.331 249.285 118.261 249.73 118.063 C 251.436 117.482 253.088 116.756 254.67 115.893 C 255.267 115.492 255.954 115.245 256.67 115.173 C 257.296 115.242 257.903 115.429 258.46 115.723 C 259.911 116.33 261.478 116.614 263.05 116.553 C 263.608 116.483 264.172 116.483 264.73 116.553 C 266.52 116.923 267.35 118.963 267.89 120.713 L 270.53 129.323 C 271.441 127.82 272.471 126.392 273.61 125.053 C 274.809 126.142 275.439 127.724 275.318 129.339 C 275.197 130.955 274.338 132.424 272.99 133.323 C 272.76 133.473 272.5 133.633 272.44 133.903 C 272.417 134.071 272.434 134.243 272.49 134.403 L 275.77 145.603 C 276.574 145.123 277.494 144.874 278.43 144.883 C 280.75 143.103 281.52 140.023 282.37 137.223 C 283.444 133.68 284.847 130.245 286.56 126.963 C 287.28 125.593 288.07 124.053 287.62 122.583 C 287.05 120.743 284.69 119.653 284.7 117.723 C 284.773 117.022 284.984 116.342 285.32 115.723 C 286.13 113.833 286.42 111.523 285.32 109.773 C 284.725 108.918 283.954 108.198 283.06 107.663 C 280.967 106.259 278.67 105.186 276.25 104.483 C 277.07 102.773 275.69 100.803 274.16 99.683 C 271.068 97.516 267.268 96.605 263.53 97.133 C 259.805 97.674 256.324 99.31 253.53 101.833 C 252.48 102.763 251.07 102.833 249.85 103.473 C 248.483 104.144 247.081 104.742 245.65 105.263 Z " fill="rgb(62,62,82)"/><path d=" M 105.67 254.633 Q 112.87 268.793 120.49 282.743 C 124.93 290.873 128.44 299.303 137.62 302.953 C 138.886 303.328 140.066 303.95 141.09 304.783 C 142.02 305.703 142.41 307.353 141.52 308.323 C 140.77 309.143 139.52 309.133 138.39 309.063 L 126.11 308.323 C 124.888 308.327 123.677 308.086 122.55 307.613 C 120.55 306.613 119.55 304.273 118.65 302.183 C 115.82 295.713 110.65 290.823 107.65 284.673 C 104.907 278.92 101.704 273.399 98.07 268.163 C 92.41 260.163 85.79 252.343 83.92 242.733 C 83.547 241.945 83.687 241.009 84.274 240.364 C 84.862 239.72 85.781 239.494 86.6 239.793 C 90.714 240.05 94.597 241.787 97.53 244.683" fill="rgb(228,169,138)"/><path d=" M 99.53 195.933 C 101.275 194.558 102.525 192.652 103.09 190.503 C 103.651 188.372 104.353 186.281 105.19 184.243 C 106.275 182.036 107.982 180.193 110.1 178.943 C 110.9 178.406 111.846 178.127 112.81 178.143 C 113.83 178.295 114.773 178.772 115.5 179.503 C 116.867 180.563 117.793 182.091 118.1 183.793 C 118.33 185.793 117.19 187.793 115.78 189.253 C 114.37 190.713 112.66 191.883 111.28 193.393 C 110.195 194.685 109.193 196.044 108.28 197.463 C 103.676 203.858 97.054 208.518 89.48 210.693 C 87.98 211.538 86.084 211.105 85.1 209.693 C 83.1 207.363 81.3 204.553 80.91 201.453 C 80.77 200.303 80.68 198.363 81.43 197.363 C 82.18 196.363 84.07 196.363 85.35 196.363 C 90.06 196.323 95.01 198.993 99.53 195.933 Z " fill="rgb(228,169,138)"/><path d=" M 100.41 129.403 C 96.82 123.603 89.06 120.553 82.67 122.933 C 82.078 123.214 81.435 123.374 80.78 123.403 C 76.12 123.193 72.71 120.733 68.14 123.793 C 65.099 125.869 63.328 129.353 63.44 133.033 C 60.33 132.153 57.07 134.693 56.01 137.743 C 54.95 140.793 55.53 144.163 56.2 147.323 C 53.53 148.553 51.94 151.503 51.53 154.433 C 51.302 157.384 51.573 160.352 52.33 163.213 C 49.89 162.483 47.47 165.033 47.33 167.573 C 47.19 170.113 48.53 172.483 49.83 174.673 C 46.33 175.578 43.47 178.096 42.13 181.453 C 40.95 184.803 42.13 189.003 45.13 190.823 C 46.05 191.373 47.13 191.703 47.98 192.283 C 48.83 192.863 49.4 193.453 50.14 194.003 C 53.97 196.883 59.67 196.003 63.5 193.113 C 71.95 186.783 73.59 174.383 79.5 166.113 C 83.98 159.863 90.64 158.113 96.5 153.683 C 100.5 150.683 101.72 146.203 102.5 141.363 C 103.257 137.255 102.515 133.011 100.41 129.403 L 100.41 129.403 Z " fill="rgb(62,62,82)"/><path d=" M 100.16 151.933 L 100.66 153.933 C 100.797 154.353 100.821 154.801 100.73 155.233 C 100.54 155.813 99.95 156.163 99.51 156.583 C 98.22 157.803 98.05 159.773 97.17 161.313 C 95.81 163.713 92.87 164.793 90.17 164.933 C 88.747 164.851 87.323 165.055 85.98 165.533 C 84.3 166.363 83.45 168.253 83.05 170.083 C 82.752 171.445 82.638 172.841 82.71 174.233 C 82.92 178.233 84.71 182.233 84.19 186.233 C 80.7 185.893 77.49 184.233 74.37 182.653 C 71.25 181.073 67.68 178.973 66.86 175.493 C 65.73 170.673 69.59 165.923 70.24 161.303 C 71.08 155.373 70.37 149.303 71.18 143.383 C 71.404 140.636 72.388 138.004 74.02 135.783 C 75.141 134.496 76.499 133.437 78.02 132.663 C 84.13 129.353 91.7 130.243 95.49 136.533 C 96.947 139.301 97.972 142.275 98.53 145.353 L 100.16 151.933 Z " fill="rgb(228,169,138)"/><path d=" M 68.17 173.003 C 69.258 172.65 70.446 172.793 71.42 173.393 C 73.42 174.633 81.92 186.463 84.14 186.263 C 86.36 186.063 90.4 194.563 89.26 198.643 C 88.12 202.723 84.9 205.493 84.59 210.063 C 84.28 214.633 81.47 224.923 81.47 224.923 L 98.72 231.983 C 96.96 238.763 96.57 245.733 94.32 252.463 C 94.105 253.449 93.558 254.332 92.77 254.963 C 92.085 255.316 91.32 255.488 90.55 255.463 C 80.918 255.915 71.266 255.621 61.68 254.583 C 58.68 254.263 55.53 253.793 53.18 251.923 C 49.68 249.143 48.98 244.133 49.08 239.663 C 49.42 224.373 55.95 209.873 57.78 194.663 C 58.27 190.553 58.44 186.363 59.78 182.443 C 60.69 179.733 64.39 174.083 68.17 173.003 Z " fill="rgb(52,152,219)"/><path d=" M 70.87 236.073 C 66.592 239.65 62.866 243.838 59.81 248.503 C 59.159 249.274 58.858 250.281 58.98 251.283 C 59.2 251.9 59.61 252.432 60.15 252.803 C 65.63 257.213 73.32 255.453 79.7 257.063 C 87.36 259.003 91.14 268.063 93.92 274.803 C 94.245 275.844 94.842 276.78 95.65 277.513 C 96.604 278.09 97.705 278.378 98.82 278.343 C 104.314 278.632 109.823 278.324 115.25 277.423 C 116.351 277.34 117.399 276.917 118.25 276.213 C 119.47 274.983 119.25 272.983 118.91 271.283 C 117.173 263.121 113.935 255.352 109.36 248.373 C 107.22 245.103 104.78 241.373 101.83 238.783 C 98.59 235.913 93.59 234.583 89.59 232.853 C 86.87 231.663 84.01 230.463 81.05 230.683 C 78.09 230.903 75.3 232.603 72.88 234.443 C 72.21 234.973 71.53 235.513 70.87 236.073 Z " fill="rgb(62,62,82)"/><path d=" M 82.34 146.843 C 81.23 147.096 80.141 147.43 79.08 147.843 C 78.003 148.278 77.263 149.285 77.17 150.443 C 77.39 149.443 76.17 148.543 75.17 148.763 C 74.173 149.068 73.454 149.937 73.34 150.973 C 73.077 152.821 74.127 154.606 75.87 155.273 C 74.02 157.613 74.39 160.923 74.23 163.893 C 74.04 167.244 73.06 170.503 71.37 173.403 C 70.331 175.304 68.845 176.924 67.04 178.123 C 65.78 178.903 63.91 179.293 62.96 178.123 C 62.54 177.5 62.32 176.764 62.33 176.013 C 61.33 164.633 61.03 152.873 64.88 142.123 C 65.686 139.681 66.874 137.383 68.4 135.313 C 71.66 131.123 76.82 128.723 82.06 127.863 C 87.06 127.053 93.45 128.483 91.45 134.623 C 89.9 139.583 87.8 145.113 82.34 146.843 Z " fill="rgb(62,62,82)"/><path d=" M 70.36 173.403 C 71.872 174.267 73.105 175.548 73.91 177.093 C 78.01 183.843 79.22 192.093 83.36 198.773 C 83.903 199.729 84.607 200.585 85.44 201.303 C 86.263 201.905 87.169 202.383 88.13 202.723 C 93.295 204.774 98.746 206.015 104.29 206.403 C 106.92 206.593 109.29 206.783 111.65 205.763 C 114.313 204.619 117.327 204.605 120 205.725 C 122.673 206.845 124.777 209.002 125.83 211.703 C 125.988 211.985 126.01 212.323 125.89 212.623 C 125.7 212.953 125.26 213.003 124.89 213.013 L 119.41 213.243 L 112.05 213.533 L 110.73 213.593 C 103.42 213.883 95.22 215.123 88.1 213.033 C 80.98 210.943 75.95 205.263 70.95 199.973 C 68.322 197.436 65.976 194.623 63.95 191.583 C 62.06 188.453 60.95 184.723 61.61 181.133 C 62.27 177.543 66.74 173.863 70.36 173.403 Z " fill="rgb(228,169,138)"/><path d=" M 114.93 185.733 L 120.8 193.733 C 120.8 193.733 121.57 194.733 119.9 194.223 C 119.9 194.223 112.84 184.223 112.84 184.223 C 111.73 182.223 110.42 180.423 109.31 178.473 C 109.08 178.053 108.86 177.633 108.64 177.203 C 108.607 177.106 108.544 177.022 108.46 176.963 C 108.376 176.92 108.284 176.896 108.19 176.893 C 107.85 176.893 107.5 176.893 107.19 176.893 C 106.894 176.918 106.596 176.918 106.3 176.893 C 105.944 176.841 105.604 176.715 105.3 176.523 C 104.289 175.756 103.546 174.688 103.18 173.473 C 102.889 172.932 102.79 172.308 102.9 171.703 C 103.235 171.98 103.514 172.32 103.72 172.703 C 104.071 173.231 104.48 173.717 104.94 174.153 C 105.111 174.355 105.356 174.481 105.62 174.503 C 105.684 174.498 105.745 174.469 105.79 174.423 C 105.88 174.333 105.79 174.173 105.79 174.053 L 104.33 170.473 C 104.237 170.302 104.215 170.1 104.27 169.913 C 104.664 169.969 105.022 170.172 105.27 170.483 C 105.515 170.789 105.72 171.125 105.88 171.483 C 106.262 172.306 106.735 173.085 107.29 173.803 C 107.329 173.868 107.389 173.917 107.46 173.943 C 107.562 173.953 107.658 173.891 107.69 173.793 C 107.72 173.699 107.72 173.597 107.69 173.503 C 107.51 172.183 106.29 171.153 106.21 169.823 C 106.716 169.958 107.154 170.275 107.44 170.713 C 107.721 171.147 107.962 171.605 108.16 172.083 C 108.457 172.686 108.791 173.271 109.16 173.833 C 109.377 174.145 109.558 174.48 109.7 174.833 C 109.831 175.201 109.79 175.608 109.59 175.943 C 109.563 175.974 109.546 176.012 109.54 176.053 C 109.544 176.097 109.561 176.139 109.59 176.173 L 110.5 177.643 C 110.76 178.053 111.03 178.423 111.32 178.803 C 111.513 179.12 111.674 179.455 111.8 179.803 C 112.22 180.633 112.65 181.463 113.08 182.293 C 113.67 183.413 114.26 184.543 114.86 185.663 L 114.93 185.733 Z " fill="rgb(255,255,255)"/><path d=" M 110.53 167.713 C 110.686 167.846 110.809 168.014 110.89 168.203 C 110.96 168.428 110.96 168.668 110.89 168.893 C 110.46 169.965 109.507 170.74 108.37 170.943 C 107.255 171.133 106.157 171.417 105.09 171.793 C 104.15 172.243 103.28 173.053 102.24 172.953 C 101.577 172.866 100.981 172.503 100.6 171.953 C 100.243 171.39 99.964 170.781 99.77 170.143 C 99.691 169.964 99.667 169.766 99.7 169.573 C 99.77 169.4 99.893 169.253 100.05 169.153 C 101.785 167.848 103.754 166.887 105.85 166.323 C 107.8 165.723 109.14 166.263 110.53 167.713 Z " fill="rgb(93,46,51)"/><linearGradient id="_lgradient_44" x1="0.0000063044461295902465" y1="0.4999996956623072" x2="0.9999919999034752" y2="0.4999996956623072" gradientTransform="matrix(10.944,0,0,6.294,100.39,166.826)" gradientUnits="userSpaceOnUse"><stop offset="100%" stop-opacity="1" style="stop-color:rgb(0,0,0)"/><stop offset="100%" stop-opacity="1" style="stop-color:rgb(0,0,0)"/><stop offset="100%" stop-opacity="1" style="stop-color:rgb(0,0,0)"/></linearGradient><path d=" M 109.09 167.913 C 108.729 168.255 108.299 168.518 107.83 168.683 C 106.63 169.129 105.381 169.431 104.11 169.583 C 103.835 169.606 103.563 169.66 103.3 169.743 C 102.791 169.975 102.322 170.285 101.91 170.663 C 101.494 171.044 100.954 171.261 100.39 171.273 C 100.385 171.846 100.652 172.388 101.11 172.733 C 101.92 173.211 102.916 173.248 103.76 172.833 C 104.61 172.483 105.38 171.943 106.25 171.643 C 107.44 171.223 108.77 171.303 109.95 170.843 C 110.209 170.744 110.452 170.606 110.67 170.433 C 111.256 169.893 111.478 169.063 111.24 168.303 C 111.055 167.71 110.656 167.208 110.12 166.893 C 109.47 166.563 109.44 167.543 109.09 167.913 Z " fill="url(#_lgradient_44)"/><path d=" M 94.05 158.393 C 92.914 158.231 91.767 158.154 90.62 158.163 C 90.696 159.537 91.235 160.845 92.15 161.873 C 92.352 162.143 92.655 162.32 92.99 162.363 C 93.367 162.305 93.693 162.071 93.87 161.733 C 94.467 160.875 94.813 159.867 94.87 158.823 C 94.885 158.764 94.885 158.702 94.87 158.643 C 94.816 158.575 94.737 158.531 94.65 158.523 L 93.37 158.173" fill="rgb(255,255,255)"/><path d=" M 110.02 205.943 C 107.19 205.943 104.15 206.043 101.89 207.163 C 99.63 208.283 98.56 210.353 97.74 212.243 C 92.74 223.643 87.2 235.143 77.17 244.983 C 76.54 245.603 75.86 246.263 75.85 246.983 C 75.965 247.797 76.419 248.524 77.1 248.983 C 82.72 253.913 92.88 255.563 102.21 255.473 C 104.71 255.473 107.36 255.353 109.57 256.143 C 111.107 256.76 112.497 257.694 113.65 258.883 C 118.65 263.473 124.04 268.433 132.11 270.313 C 139.97 272.153 149.17 270.733 156.56 273.313 C 162.29 275.313 165.69 279.233 169.56 282.683 C 171.102 284.281 173.146 285.302 175.35 285.573 C 178.84 285.823 181.46 283.633 183.81 281.903 C 188.65 278.333 195.06 275.903 200.93 273.103 C 206.8 270.303 212.47 266.833 214.64 262.253 C 215.84 265.783 222.4 267.343 227.8 266.843 C 233.2 266.343 238.08 264.453 243.38 263.623 C 251.77 262.323 260.49 263.743 269.08 264.143 C 274.08 264.373 279.72 264.063 282.98 261.553 C 285.98 259.233 285.88 255.723 284.35 252.843 C 282.82 249.963 280.09 247.413 278.18 244.633 C 274.09 238.633 273.98 231.853 272.9 225.313 C 271.97 219.653 269.9 211.663 262.81 207.743 C 259.33 205.803 253.5 206.513 249.19 206.443 Q 239.65 206.283 230.1 206.163 Q 191.68 205.653 153.25 205.713 Q 131.61 205.743 110.02 205.943 Z " fill="rgb(70,176,75)"/><rect x="232.93" y="184.143" width="10.14" height="21.55" transform="matrix(1,0,0,1,0,0)" fill="rgb(255,255,255)"/><g style="opacity:0.18;"><g opacity="0.18"><path d=" M 234.24 190.263 C 234.216 190.047 234.281 189.83 234.42 189.663 C 234.576 189.538 234.77 189.471 234.97 189.473 Q 238.04 189.213 241.14 189.103 C 241.388 189.038 241.652 189.112 241.83 189.297 C 242.008 189.481 242.073 189.747 242 189.993 Q 242.22 195.623 242.23 201.253 C 242.23 202.193 242.36 203.923 241.52 204.493 C 240.93 204.903 238.7 204.703 237.96 204.623 C 236.602 204.585 235.369 203.822 234.73 202.623 C 233 199.343 234.11 193.803 234.24 190.263 Z " fill="rgb(70,176,75)"/></g></g><g style="opacity:0.18;"><g opacity="0.18"><path d=" M 234.24 190.263 C 234.216 190.047 234.281 189.83 234.42 189.663 C 234.576 189.538 234.77 189.471 234.97 189.473 Q 238.04 189.213 241.14 189.103 C 241.388 189.038 241.652 189.112 241.83 189.297 C 242.008 189.481 242.073 189.747 242 189.993 Q 242.22 195.623 242.23 201.253 C 242.23 202.193 242.36 203.923 241.52 204.493 C 240.93 204.903 238.7 204.703 237.96 204.623 C 236.602 204.585 235.369 203.822 234.73 202.623 C 233 199.343 234.11 193.803 234.24 190.263 Z " fill="rgb(70,176,75)"/></g></g><rect x="140.42" y="184.143" width="10.14" height="21.55" transform="matrix(1,0,0,1,0,0)" fill="rgb(255,255,255)"/><rect x="118.83" y="184.143" width="10.14" height="21.55" transform="matrix(1,0,0,1,0,0)" fill="rgb(255,255,255)"/><path d=" M 237.53 194.413 C 235.623 194.921 234.219 196.542 233.99 198.503 C 233.92 200.503 235.5 202.203 237.32 202.953 C 239.2 203.573 241.187 203.808 243.16 203.643 C 245.3 203.643 249.03 204.503 249.88 202.093 C 250.47 200.452 250.274 198.631 249.35 197.153 C 247.27 194.463 240.53 193.503 237.53 194.413 Z " fill="rgb(228,169,138)"/><g style="opacity:0.18;"><g opacity="0.18"><path d=" M 141.72 190.833 C 141.704 190.615 141.768 190.398 141.9 190.223 C 142.059 190.097 142.258 190.034 142.46 190.043 Q 145.53 189.793 148.62 189.663 C 148.816 189.634 149.016 189.669 149.19 189.763 C 149.401 189.973 149.507 190.266 149.48 190.563 C 149.64 194.303 149.72 198.063 149.72 201.813 C 149.72 202.753 149.85 204.483 149.01 205.063 C 148.41 205.463 146.19 205.273 145.45 205.183 C 144.088 205.158 142.849 204.391 142.22 203.183 C 140.53 199.903 141.59 194.373 141.72 190.833 Z " fill="rgb(70,176,75)"/></g></g><g style="opacity:0.18;"><g opacity="0.18"><path d=" M 141.72 190.833 C 141.704 190.615 141.768 190.398 141.9 190.223 C 142.059 190.097 142.258 190.034 142.46 190.043 Q 145.53 189.793 148.62 189.663 C 148.816 189.634 149.016 189.669 149.19 189.763 C 149.401 189.973 149.507 190.266 149.48 190.563 C 149.64 194.303 149.72 198.063 149.72 201.813 C 149.72 202.753 149.85 204.483 149.01 205.063 C 148.41 205.463 146.19 205.273 145.45 205.183 C 144.088 205.158 142.849 204.391 142.22 203.183 C 140.53 199.903 141.59 194.373 141.72 190.833 Z " fill="rgb(70,176,75)"/></g></g><g style="opacity:0.18;"><g opacity="0.18"><path d=" M 120.14 190.833 C 120.091 190.623 120.15 190.403 120.296 190.245 C 120.442 190.086 120.657 190.011 120.87 190.043 C 122.87 189.873 124.98 189.743 127.03 189.663 C 127.226 189.634 127.426 189.669 127.6 189.763 C 127.822 189.966 127.934 190.264 127.9 190.563 C 128.05 194.303 128.13 198.063 128.13 201.813 C 128.13 202.753 128.26 204.483 127.42 205.063 C 126.83 205.463 124.6 205.273 123.86 205.183 C 122.5 205.154 121.263 204.388 120.63 203.183 C 118.9 199.903 120.01 194.373 120.14 190.833 Z " fill="rgb(70,176,75)"/></g></g><g style="opacity:0.18;"><g opacity="0.18"><path d=" M 120.14 190.833 C 120.091 190.623 120.15 190.403 120.296 190.245 C 120.442 190.086 120.657 190.011 120.87 190.043 C 122.87 189.873 124.98 189.743 127.03 189.663 C 127.226 189.634 127.426 189.669 127.6 189.763 C 127.822 189.966 127.934 190.264 127.9 190.563 C 128.05 194.303 128.13 198.063 128.13 201.813 C 128.13 202.753 128.26 204.483 127.42 205.063 C 126.83 205.463 124.6 205.273 123.86 205.183 C 122.5 205.154 121.263 204.388 120.63 203.183 C 118.9 199.903 120.01 194.373 120.14 190.833 Z " fill="rgb(70,176,75)"/></g></g><path d=" M 73.77 174.643 C 73 173.219 71.837 172.045 70.42 171.263 C 68.21 170.263 65.48 171.173 63.75 172.893 C 62.119 174.72 60.935 176.901 60.29 179.263 C 59.439 181.291 59.072 183.489 59.22 185.683 C 59.482 187.146 59.953 188.564 60.62 189.893 L 66.15 202.263 C 68.41 200.48 70.576 198.581 72.64 196.573 C 74.71 194.55 77.293 193.129 80.11 192.463 C 79.117 189.46 78.378 186.379 77.9 183.253 C 77.33 180.263 75.38 177.203 73.77 174.643 Z " fill="rgb(52,152,219)"/><path d=" M 137.97 303.853 C 136.898 304.034 135.864 304.392 134.91 304.913 C 133.234 305.591 131.406 305.802 129.62 305.523 C 127.29 305.153 125.19 303.963 122.96 303.203 C 122.404 302.983 121.807 302.885 121.21 302.913 C 120.591 302.96 120.049 303.345 119.8 303.913 C 119.657 304.519 119.743 305.156 120.04 305.703 L 120.88 307.853 C 121.16 308.694 121.568 309.487 122.09 310.203 C 122.631 310.92 123.472 311.348 124.37 311.363 C 125.37 311.363 126.14 310.653 127.07 310.413 C 128.181 310.242 129.317 310.328 130.39 310.663 C 132.042 310.969 133.712 311.169 135.39 311.263 C 138.81 311.523 142.53 311.713 145.39 309.783 C 145.8 309.503 146.23 309.023 146.02 308.563 C 145.916 308.379 145.764 308.227 145.58 308.123 C 143.53 306.713 140.53 303.703 137.97 303.853 Z " fill="rgb(52,152,219)"/><path d=" M 203.94 281.983 C 202.09 283.173 200.88 285.103 199.33 286.643 C 197.78 288.183 195.49 289.413 193.45 288.643 C 192.864 288.316 192.239 288.064 191.59 287.893 C 190.15 287.713 189.06 289.143 188.33 290.403 C 187.6 291.663 186.76 293.333 187.06 294.893 C 187.09 295.101 187.18 295.296 187.32 295.453 C 187.494 295.587 187.702 295.67 187.92 295.693 C 190.45 296.103 192.98 295.023 195.19 293.693 C 197.162 292.55 199.029 291.235 200.77 289.763 C 203.02 287.863 205.18 285.103 203.94 281.983 Z " fill="rgb(155,89,182)"/><path d=" M 216.7 284.423 C 214.86 285.613 213.7 287.543 212.1 289.083 C 210.5 290.623 208.26 291.853 206.21 291.083 C 205.626 290.758 205.005 290.506 204.36 290.333 C 202.91 290.153 201.82 291.583 201.1 292.843 C 200.38 294.103 199.52 295.773 199.83 297.333 C 199.856 297.54 199.943 297.735 200.08 297.893 C 200.257 298.029 200.468 298.112 200.69 298.133 C 203.21 298.543 205.74 297.463 207.96 296.133 C 209.928 295.012 211.792 293.716 213.53 292.263 C 215.79 290.263 217.95 287.543 216.7 284.423 Z " fill="rgb(155,89,182)"/><path d=" M 166.97 286.523 C 168.02 287.759 169.28 288.802 170.69 289.603 C 171.844 290.222 172.899 291.011 173.82 291.943 C 174.744 292.911 175.076 294.302 174.69 295.583 C 173.94 297.483 171.46 297.873 169.42 297.833 C 165.841 297.765 162.283 297.271 158.82 296.363 C 154.7 295.293 151.94 290.063 154.62 286.163 C 156.88 282.883 164.87 283.833 166.97 286.523 Z " fill="rgb(52,73,94)"/><path d=" M 137.21 290.693 C 136.76 289.943 137.53 289.053 138.21 288.563 C 139.798 287.49 141.566 286.711 143.43 286.263 C 143.969 286.109 144.529 286.038 145.09 286.053 C 145.713 286.097 146.324 286.243 146.9 286.483 C 151.651 288.305 155.291 292.222 156.76 297.093 C 156.93 297.567 156.988 298.073 156.93 298.573 C 156.66 299.933 155.01 300.463 153.64 300.573 C 146.351 301.194 139.229 298.15 134.64 292.453" fill="rgb(52,73,94)"/><path d=" M 152.63 187.623 C 152.234 187.419 151.795 187.312 151.35 187.313 C 150.35 187.383 149.73 188.313 149.48 189.313 C 148.78 191.973 150.13 194.753 151.84 196.913 C 153.76 199.198 155.9 201.288 158.23 203.153 C 160.47 205.083 162.88 207.083 165.79 207.573 C 166.557 207.718 167.343 207.718 168.11 207.573 C 170.24 207.034 171.842 205.274 172.18 203.103 C 172.92 198.423 169.69 196.733 166.18 195.263 C 161.37 193.263 157.41 189.683 152.63 187.623 Z " fill="rgb(228,169,138)"/><path d=" M 143.07 165.263 C 143.025 165.248 142.975 165.248 142.93 165.263 C 142.85 165.323 142.86 165.433 142.93 165.533 C 143.21 166.613 143.938 167.522 144.93 168.033 C 145.358 168.296 145.887 168.337 146.35 168.143 C 146.546 168.009 146.718 167.843 146.86 167.653 C 147.46 166.903 148.52 165.573 147.11 165.203 C 145.766 165.055 144.409 165.075 143.07 165.263 L 143.07 165.263 Z " fill="rgb(255,255,255)"/><path d=" M 150.8 186.853 C 150.634 186.765 150.448 186.72 150.26 186.723 C 149.702 186.658 149.138 186.658 148.58 186.723 C 148.021 186.799 147.498 187.043 147.08 187.423 C 146.804 187.716 146.581 188.054 146.42 188.423 C 146.202 188.872 146.038 189.345 145.93 189.833 C 145.834 190.374 145.807 190.925 145.85 191.473 C 145.874 192.022 145.965 192.566 146.12 193.093 C 146.226 193.476 146.41 193.834 146.66 194.143 C 146.939 194.445 147.28 194.684 147.66 194.843 C 148.312 195.149 149.033 195.276 149.75 195.213 C 150.474 195.125 151.138 194.768 151.61 194.213 C 152.05 193.62 152.285 192.901 152.28 192.163 C 152.261 191.432 152.168 190.705 152 189.993 C 151.899 189.376 151.762 188.765 151.59 188.163 C 151.449 187.663 151.176 187.211 150.8 186.853 Z " fill="rgb(228,169,138)"/></g></g></svg>