<svg width="836" height="578" viewBox="0 0 836 578" fill="none" xmlns="http://www.w3.org/2000/svg">
<path d="M289.674 460.305L292.12 470.871C292.717 473.984 293.713 477.009 295.081 479.871C297.806 484.312 301.589 488.008 306.09 490.632C312.916 495.181 320.77 499.045 328.868 498.776C330.07 498.982 331.293 498.585 332.147 497.717C333.001 496.849 333.375 495.619 333.15 494.423C333.59 480.409 319.302 476.349 318.47 462.628C317.981 454.876 317.467 447.098 316.953 439.345C316.317 430.003 312.77 412.442 302.494 408.872C279.667 400.85 284.291 437.413 286.836 448.199L289.674 460.305Z" fill="#E4A98A"/>
<path d="M327.18 451.231L327.669 452.063C329.619 454.856 330.559 458.229 330.336 461.626C329.869 465.26 330.067 468.948 330.923 472.509C332.562 477.401 337.162 480.384 341.639 482.757C349.324 487.242 358.039 489.661 366.937 489.776C368.246 489.808 369.545 489.529 370.729 488.969C372.626 487.55 373.903 485.457 374.301 483.124C374.563 482.429 374.671 481.688 374.619 480.947C374.412 480.066 373.961 479.264 373.323 478.623C369.579 474.417 364.588 471.58 360.282 467.96C355.578 464.507 352.681 459.114 352.404 453.286C352.209 445.949 351.45 438.612 350.961 431.274C350.178 419.682 342.153 390.309 324.635 403.467C313.993 411.44 317.296 425.478 321.137 436.264C322.749 441.407 324.77 446.411 327.18 451.231Z" fill="#E4A98A"/>
<path d="M485.744 442.794L484.595 453.481C484.374 456.592 483.809 459.669 482.906 462.653C481.189 467.075 478.417 471.012 474.833 474.123C469.621 479.015 463.603 483.49 456.899 483.784C455.977 483.921 455.04 483.674 454.306 483.099C453.515 482.15 453.075 480.959 453.058 479.724C451.516 465.808 462.844 460.794 462.428 447.074C462.184 439.296 461.955 431.519 461.743 423.742C461.474 414.399 462.918 396.692 471.016 392.387C488.998 382.849 488.142 419.608 487.066 430.516L485.744 442.794Z" fill="#E4A98A"/>
<path d="M454.403 436.215L454.061 437.071C452.671 440.13 452.194 443.53 452.691 446.854C453.366 450.441 453.506 454.107 453.107 457.737C451.913 462.237 449.099 466.138 445.204 468.694C439.161 473.365 432.384 477.058 425.118 477.4C424.044 477.528 422.955 477.342 421.986 476.862C420.242 475.441 419.04 473.463 418.585 471.262C418.299 470.587 418.14 469.865 418.12 469.134C418.216 468.261 418.519 467.422 419.001 466.688C421.692 462.261 425.558 459.082 428.788 455.169C432.499 450.975 434.376 445.469 433.999 439.883C433.534 432.546 433.558 425.209 433.338 417.872C433.02 406.255 437.13 376.441 452.52 388.352C461.866 395.689 460.398 409.899 458.098 420.831C457.222 426.038 455.989 431.179 454.403 436.215Z" fill="#E4A98A"/>
<path d="M289.135 186.214C297.009 185.326 304.953 185.243 312.843 185.969C320.665 186.696 328.149 189.498 334.52 194.089C338.846 197.633 342.52 201.905 345.383 206.709C349.234 212.83 352.573 219.26 355.365 225.932C360.552 238.038 364.417 251.099 362.705 264.061C362.71 264.364 362.604 264.66 362.411 264.892C362.11 265.103 361.748 265.205 361.384 265.186C333.223 266.433 305.112 265.92 276.878 267.02C261.195 267.632 245.072 268.708 230.148 264.257C232.766 257.382 234.564 250.225 235.506 242.93C236.558 234.517 236.509 225.81 240.179 218.008C242.797 213.065 246.203 208.58 250.259 204.728C254.039 200.568 258.33 196.902 263.03 193.82C267.026 191.279 271.54 189.665 276.242 189.1C280.695 188.611 284.511 186.605 289.135 186.214Z" fill="#34495E"/>
<path d="M329.309 168.311C328.149 171.566 326.383 174.572 324.097 177.165C321.658 179.564 318.764 181.452 315.583 182.716C312.684 184.088 309.557 184.918 306.36 185.162C299.945 185.155 293.821 182.499 289.429 177.825C285.255 173.305 281.769 168.196 279.08 162.662C278.933 163.542 277.661 163.933 276.78 163.542C275.968 163.082 275.337 162.356 274.994 161.488C273.609 158.692 272.841 155.63 272.743 152.512C272.67 151.832 272.79 151.147 273.086 150.531C274.187 148.599 277.269 149.259 279.374 150.188C281.135 146.838 280.768 142.851 282.065 139.305C284.511 132.555 292.243 129.082 299.191 126.318C305.709 123.334 312.696 121.505 319.84 120.913C321.798 120.749 323.765 121.043 325.59 121.769C327.263 122.64 328.744 123.838 329.945 125.291C332.893 128.003 334.992 131.51 335.988 135.392C336.017 138.131 335.68 140.863 334.985 143.512C334.253 152.001 332.342 160.348 329.309 168.311Z" fill="#E4A98A"/>
<path d="M291.753 193.16C291.338 195.515 291.663 197.941 292.683 200.105C294.665 203.358 299.338 204.19 303.277 203.676C305.472 203.481 307.585 202.759 309.442 201.573C311.59 199.954 313.105 197.635 313.724 195.018C314.311 192.477 314.58 189.873 314.531 187.265L314.751 177.483C314.793 177.221 314.722 176.954 314.556 176.749C314.343 176.617 314.096 176.558 313.846 176.578H303.277C301.002 176.578 296.084 175.673 294.151 177.042C290.995 179.415 291.753 189.784 291.753 193.16Z" fill="#E4A98A"/>
<path d="M273.355 152.023C272.55 152.607 271.855 153.326 271.3 154.15C270.691 154.982 269.68 155.42 268.657 155.3C267.887 155.014 267.263 154.432 266.92 153.686C264.858 150.565 263.762 146.909 263.764 143.169C263.882 139.327 266.125 135.869 269.587 134.193C270.052 133.998 270.566 133.802 270.737 133.337C270.908 132.873 270.615 132.481 270.394 132.09C268.464 128.876 267.441 125.2 267.434 121.451C267.361 120.167 267.649 118.888 268.266 117.758C269.93 115.836 272.33 114.708 274.872 114.652C278.493 114.139 282.848 114.212 284.927 117.098C285.28 115.467 286.136 113.987 287.374 112.867C288.744 111.712 290.672 111.49 292.267 112.304C294.667 107.873 298.934 104.754 303.888 103.818C306.311 103.24 308.845 103.316 311.228 104.038C315.143 105.383 317.712 108.929 320.012 112.158C324.599 110.367 329.813 112.079 332.44 116.242C332.685 116.807 333.032 117.323 333.468 117.758C334.62 118.401 335.963 118.617 337.26 118.37C341.581 118.313 345.483 120.945 347.047 124.973C348.299 128.977 346.765 133.328 343.279 135.661C341.794 136.375 340.451 137.353 339.315 138.547C338.704 139.427 338.508 140.528 337.823 141.359C336.607 142.519 334.975 143.135 333.297 143.071C326.035 143.433 319.082 140.114 314.8 134.242C314.311 133.533 313.675 132.701 312.77 132.726C312.307 132.797 311.869 132.98 311.497 133.264C307.412 135.58 302.337 135.233 298.604 132.384C297.356 131.405 296.01 129.938 294.42 130.378C291.655 130.989 292.487 135.612 289.943 136.835C289.593 136.957 289.263 137.128 288.964 137.348C288.695 137.696 288.565 138.133 288.597 138.571C288.781 140.679 288.781 142.797 288.597 144.906C287.486 148.645 285.399 152.02 282.554 154.688C279.227 157.99 275.239 154.811 273.355 152.023Z" fill="#3E3E52"/>
<path d="M459.517 186.214C451.651 185.326 443.717 185.243 435.834 185.969C427.973 186.683 420.447 189.486 414.035 194.089C409.724 197.64 406.056 201.91 403.196 206.709C399.348 212.811 396.015 219.226 393.238 225.883C388.052 237.99 384.186 251.05 385.899 264.012C385.913 264.315 386.026 264.606 386.217 264.843C386.518 265.054 386.88 265.157 387.244 265.137C415.38 266.384 443.516 265.871 471.725 266.971C487.408 267.583 503.531 268.659 518.48 264.208C515.862 257.377 514.061 250.257 513.122 243.003C512.07 234.59 512.119 225.883 508.424 218.081C505.824 213.134 502.425 208.648 498.369 204.801C494.577 200.646 490.278 196.982 485.573 193.893C481.588 191.35 477.081 189.736 472.386 189.173C467.884 188.611 464.19 186.605 459.517 186.214Z" fill="#46B04B"/>
<path d="M459.517 186.214C451.651 185.326 443.717 185.243 435.834 185.969C427.973 186.683 420.447 189.486 414.035 194.089C409.724 197.64 406.056 201.91 403.196 206.709C399.348 212.811 396.015 219.226 393.238 225.883C388.052 237.99 384.186 251.05 385.899 264.012C385.913 264.315 386.026 264.606 386.217 264.843C386.518 265.054 386.88 265.157 387.244 265.137C415.38 266.384 443.516 265.871 471.725 266.971C487.408 267.583 503.531 268.659 518.48 264.208C515.862 257.377 514.061 250.257 513.122 243.003C512.07 234.59 512.119 225.883 508.424 218.081C505.824 213.134 502.425 208.648 498.369 204.801C494.577 200.646 490.278 196.982 485.573 193.893C481.588 191.35 477.081 189.736 472.386 189.173C467.884 188.611 464.19 186.605 459.517 186.214Z" fill="url(#paint0_linear)"/>
<path d="M419.344 168.311C420.521 171.564 422.297 174.565 424.579 177.165C427.014 179.559 429.898 181.447 433.069 182.716C435.968 184.086 439.095 184.915 442.293 185.162C448.715 185.155 454.849 182.501 459.248 177.825C463.422 173.305 466.908 168.196 469.597 162.662C469.744 163.542 471.016 163.933 471.872 163.542C472.697 163.09 473.338 162.363 473.683 161.488C475.06 158.69 475.828 155.63 475.934 152.512C475.98 151.834 475.863 151.154 475.591 150.531C474.49 148.599 471.407 149.259 469.303 150.188C467.517 146.838 467.909 142.851 466.612 139.305C464.166 132.555 456.434 129.082 449.486 126.318C442.995 123.317 436.034 121.464 428.91 120.84C426.953 120.676 424.986 120.969 423.16 121.696C421.487 122.566 420.007 123.765 418.806 125.218C415.852 127.95 413.768 131.486 412.811 135.392C412.782 138.131 413.12 140.863 413.814 143.512C414.509 151.993 416.371 160.338 419.344 168.311Z" fill="#E4A98A"/>
<path d="M408.212 117.954C405.927 123.102 404.894 128.717 405.202 134.34C405.09 138.852 405.699 143.353 407.013 147.669C408.359 151.607 410.609 155.275 411.123 159.384C412.004 166.55 407.453 173.398 407.698 180.613C407.659 182.572 408.29 184.487 409.484 186.043C412.126 189.149 417.02 188.684 420.959 187.608C421.724 187.464 422.431 187.099 422.989 186.556C423.638 185.507 423.782 184.225 423.381 183.059L416.995 149.919C416.775 148.978 416.775 147.999 416.995 147.058C417.404 146.121 418.015 145.287 418.781 144.612C423.493 139.332 425.751 132.303 424.995 125.267C426.598 128.94 429.771 131.696 433.632 132.775C437.444 133.827 441.41 134.198 445.351 133.875L454.844 148.183C455.201 148.836 455.713 149.391 456.336 149.797C458.563 151.093 461.425 148.305 463.823 149.21C465.829 151.812 466.576 155.175 465.854 158.382C465.364 161.585 464.092 164.618 463.407 167.798C462.355 172.559 462.6 177.517 464.117 182.154C464.454 183.545 465.235 184.79 466.343 185.7C467.317 186.258 468.403 186.593 469.524 186.678L490.075 189.687L490.222 163.346C490.452 156.528 490.068 149.699 489.072 142.949C488.429 137.615 486.107 132.621 482.442 128.691C480.193 126.834 477.832 125.12 475.371 123.555C470.845 120.228 467.273 115.728 462.649 112.549C453.278 106.141 441.608 106.459 430.843 108.22C421.546 109.614 413.301 107.902 408.212 117.954Z" fill="#3E3E52"/>
<path d="M456.85 193.16C457.266 195.515 456.941 197.941 455.921 200.105C453.939 203.358 449.266 204.19 445.327 203.676C443.132 203.481 441.018 202.759 439.161 201.573C437.013 199.954 435.499 197.635 434.88 195.018C434.293 192.477 434.023 189.873 434.072 187.265L433.852 177.483C433.811 177.221 433.882 176.954 434.048 176.749C434.261 176.617 434.508 176.558 434.757 176.578H445.327C447.602 176.578 452.52 175.673 454.453 177.042C457.682 179.415 456.85 189.784 456.85 193.16Z" fill="#E4A98A"/>
<path d="M469.083 191.276C470.6 190.714 472.729 191.79 472.508 193.38C473.793 191.692 474.816 189.821 475.542 187.828C476.281 185.803 477.808 184.164 479.775 183.279C481.781 182.619 484.497 183.939 484.448 186.067C486.723 180.54 489.674 175.316 493.231 170.512C496.857 165.694 502.139 162.383 508.058 161.219C510.504 164.3 509.134 168.727 507.519 172.273C504.899 178.047 501.616 183.499 497.733 188.513C500.18 187.608 503.311 186.874 505.073 188.831C506.139 190.332 506.139 192.343 505.073 193.844C504.018 195.29 502.668 196.491 501.109 197.366C503.703 197.146 505.513 200.399 504.755 202.894C503.742 205.327 501.74 207.213 499.25 208.078C496.784 208.917 494.418 210.033 492.204 211.405C491.298 212.114 490.491 212.97 489.537 213.63C484.179 217.176 470.258 216.663 465.438 211.992C460.618 207.32 463.162 193.551 469.083 191.276Z" fill="#46B04B"/>
<path d="M415.82 202.551C415.38 198.149 420.053 193.82 424.237 195.214L418.12 184.11C417.191 182.472 416.652 179.757 418.463 179.219C419.808 178.803 421.57 180.148 422.5 179.219C422.801 178.801 422.947 178.29 422.916 177.776C422.83 174.819 422.952 171.862 423.283 168.923C423.65 165.946 425.281 163.273 427.76 161.585C428.315 161.197 429.005 161.055 429.668 161.194C430.5 161.463 430.891 162.368 431.185 163.2L438.965 184.624C440.923 183.059 441.412 180.099 443.516 178.73C446.134 177.018 449.926 178.974 451.125 181.885C452.042 184.908 451.859 188.156 450.611 191.056C453.349 189.435 456.436 188.496 459.615 188.317C459.182 194.495 458.257 200.629 456.85 206.66C456.818 207.196 456.573 207.694 456.167 208.044C455.761 208.394 455.23 208.565 454.697 208.519C446.623 209.473 417.142 216.1 415.82 202.551Z" fill="#46B04B"/>
<path d="M469.083 191.276C470.6 190.714 472.729 191.79 472.508 193.38C473.793 191.692 474.816 189.821 475.542 187.828C476.281 185.803 477.808 184.164 479.775 183.279C481.781 182.619 484.497 183.939 484.448 186.067C486.723 180.54 489.674 175.316 493.231 170.512C496.857 165.694 502.139 162.383 508.058 161.219C510.504 164.3 509.134 168.727 507.519 172.273C504.899 178.047 501.616 183.499 497.733 188.513C500.18 187.608 503.311 186.874 505.073 188.831C506.139 190.332 506.139 192.343 505.073 193.844C504.018 195.29 502.668 196.491 501.109 197.366C503.703 197.146 505.513 200.399 504.755 202.894C503.742 205.327 501.74 207.213 499.25 208.078C496.784 208.917 494.418 210.033 492.204 211.405C491.298 212.114 490.491 212.97 489.537 213.63C484.179 217.176 470.258 216.663 465.438 211.992C460.618 207.32 463.162 193.551 469.083 191.276Z" fill="url(#paint1_linear)"/>
<path d="M415.82 202.551C415.38 198.149 420.053 193.82 424.237 195.214L418.12 184.11C417.191 182.472 416.652 179.757 418.463 179.219C419.808 178.803 421.57 180.148 422.5 179.219C422.801 178.801 422.947 178.29 422.916 177.776C422.83 174.819 422.952 171.862 423.283 168.923C423.65 165.946 425.281 163.273 427.76 161.585C428.315 161.197 429.005 161.055 429.668 161.194C430.5 161.463 430.891 162.368 431.185 163.2L438.965 184.624C440.923 183.059 441.412 180.099 443.516 178.73C446.134 177.018 449.926 178.974 451.125 181.885C452.042 184.908 451.859 188.156 450.611 191.056C453.349 189.435 456.436 188.496 459.615 188.317C459.182 194.495 458.257 200.629 456.85 206.66C456.818 207.196 456.573 207.694 456.167 208.044C455.761 208.394 455.23 208.565 454.697 208.519C446.623 209.473 417.142 216.1 415.82 202.551Z" fill="url(#paint2_linear)"/>
<path d="M508.229 207.809C511.387 208.086 514.524 208.558 517.624 209.228C519.76 221.618 517.081 234.355 510.137 244.838C497.904 263.083 472.973 271.3 451.859 266.727C440 263.939 429.534 256.998 422.353 247.161C418.387 241.78 415.268 235.827 413.105 229.503C411.71 225.467 407.453 215.269 409.851 211.209C412.249 207.149 422.989 207.247 427.124 206.831C434.681 206.176 442.268 205.897 449.853 206C466.424 206 482.972 206.44 499.494 207.32C502.455 207.369 505.391 207.54 508.229 207.809Z" fill="#46B04B"/>
<path d="M508.229 207.809C511.387 208.086 514.524 208.558 517.624 209.228C519.76 221.618 517.081 234.355 510.137 244.838C497.904 263.083 472.973 271.3 451.859 266.727C440 263.939 429.534 256.998 422.353 247.161C418.387 241.78 415.268 235.827 413.105 229.503C411.71 225.467 407.453 215.269 409.851 211.209C412.249 207.149 422.989 207.247 427.124 206.831C434.681 206.176 442.268 205.897 449.853 206C466.424 206 482.972 206.44 499.494 207.32C502.455 207.369 505.391 207.54 508.229 207.809Z" fill="url(#paint3_linear)"/>
<g opacity="0.18">
<g opacity="0.18">
<path opacity="0.18" d="M418.12 577.455C648.909 577.455 836 553.771 836 524.555C836 495.338 648.909 471.654 418.12 471.654C187.332 471.654 0.240723 495.338 0.240723 524.555C0.240723 553.771 187.332 577.455 418.12 577.455Z" fill="#46B04B"/>
</g>
</g>
<path d="M511.752 520.787C511.079 520.797 510.414 520.636 509.819 520.323C507.96 519.149 509.061 516.238 510.504 514.575C513.78 511.036 517.457 507.894 521.465 505.208L536.732 494.129C538.07 493.06 539.543 492.173 541.111 491.488C543.088 490.854 545.153 490.549 547.228 490.583L560.415 490.02C561.359 489.898 562.318 490.015 563.204 490.363C564.214 490.964 564.983 491.899 565.381 493.004C567.297 497.705 568.303 502.726 568.342 507.801C568.618 510.036 568.298 512.308 567.412 514.38C565.626 517.657 560.806 517.828 557.626 518.366C552.488 519.222 547.35 519.956 542.188 520.445C532.069 521.382 521.891 521.494 511.752 520.787Z" fill="#E74C3C"/>
<path d="M729.695 169.167L719.59 524.823H701.681V409.85H597.236V524.823H579.327V392.216L704.886 390.553L708.679 169.167H729.695Z" fill="#46B04B"/>
<path d="M54.1638 169.167L64.2683 524.823H82.1774V409.85H186.623V524.823H204.556V392.216L78.9724 390.553L75.2046 169.167H54.1638Z" fill="#46B04B"/>
<path d="M729.695 169.167L719.59 524.823H701.681V409.85H597.236V524.823H579.327V392.216L704.886 390.553L708.679 169.167H729.695Z" fill="url(#paint4_linear)"/>
<path d="M54.1638 169.167L64.2683 524.823H82.1774V409.85H186.623V524.823H204.556V392.216L78.9724 390.553L75.2046 169.167H54.1638Z" fill="url(#paint5_linear)"/>
<path d="M703.688 355.922C705.107 356.729 702.293 365.876 701.951 366.879C698.902 375.106 692.551 381.688 684.433 385.026C669.386 391.678 651.184 388.915 635.232 389.917C612.576 391.336 589.913 392.347 567.241 392.95C567.812 429.13 568.203 465.302 568.415 501.466C559.218 500.094 550.354 497.045 542.261 492.466C540.837 491.781 539.594 490.766 538.64 489.507C537.926 488.169 537.507 486.692 537.417 485.178L532.523 449.642C529.808 429.782 527.116 409.777 528.389 389.795C529.566 378.542 528.484 367.167 525.208 356.338C523.618 351.031 523.716 348.438 527.655 344.452C534.676 337.383 547.815 334.938 557.014 332.761C582.018 326.891 607.952 324.47 633.544 322.758C636.553 322.562 639.562 322.367 642.572 322.244L703.688 355.922Z" fill="#3E3E52"/>
<path d="M559.191 86.8443C560.512 93.5701 561.638 100.858 558.531 106.997C557.576 108.929 556.231 111.179 557.283 113.062C558 113.989 558.932 114.73 559.999 115.215C565.283 118.321 568.146 124.142 571.179 129.473C574.213 134.805 578.177 140.283 584.122 141.702C590.067 143.12 596.477 139.843 602.692 140.357C609.909 140.919 615.683 146.373 620.405 151.876C620.965 152.747 621.844 153.36 622.852 153.588C623.667 153.544 624.445 153.243 625.078 152.732C631.39 148.599 637.26 143.83 642.596 138.498C643.026 138.146 643.337 137.666 643.477 137.128C643.496 136.49 643.288 135.866 642.889 135.367C632.491 118.247 632.345 97.1164 629.091 77.355C627.427 67.4009 624.736 57.2023 618.13 49.5717C608.343 38.3214 591.755 35.0441 577.1 37.7344C574.04 38.1453 571.118 39.2581 568.562 40.9872C566.308 42.956 564.456 45.3381 563.106 48.0064C556.035 60.1127 556.5 73.344 559.191 86.8443Z" fill="#E4A98A"/>
<path d="M602.57 105.285C593.199 108.856 582.777 108.318 573.088 110.91C570.546 111.355 568.241 112.678 566.58 114.652C565.235 117.103 564.917 119.989 565.699 122.674C566.534 126.338 567.664 129.928 569.076 133.411C571.131 138.84 573.48 144.686 578.422 147.743C581.441 149.367 584.783 150.303 588.208 150.482C593.5 151.389 598.944 150.636 603.793 148.33C608.686 145.566 611.671 140.405 614.387 135.49L624.296 117.66C627.183 112.427 630.192 106.557 628.724 100.76C627.256 94.9641 623.244 90.5863 617.959 94.744C612.674 98.9017 608.809 102.913 602.57 105.285Z" fill="#3E3E52"/>
<path d="M681.546 154.322C698.839 180.075 708.258 210.302 708.654 241.316C708.923 255.99 705.939 268.219 707.455 283.015C709.621 300.915 710.061 318.982 708.777 336.968C708.375 343.718 706.939 350.365 704.52 356.68C699.25 368.855 688.377 377.699 675.381 380.379C646.584 386.053 618.986 359.224 607.61 335.574C604.725 330.205 603.11 324.25 602.888 318.16C602.888 310.823 606.117 303.975 608.539 297.078C613.922 281.866 613.702 267.509 614.362 251.881C615.023 236.253 616.613 220.405 616.589 204.508C616.589 193.282 616.246 181.958 618.399 170.952C620.552 159.947 625.445 148.941 634.106 141.897C652.578 126.636 670.047 137.544 681.546 154.322Z" fill="url(#paint6_linear)"/>
<path d="M665.79 243.174C663.001 252.199 659.722 259.585 648.199 264.966C638.07 269.662 626.62 270.542 615.463 270.933C602.178 271.398 589.015 270.933 575.657 270.493C573.895 270.537 572.141 270.239 570.495 269.613C568.691 268.595 567.15 267.172 565.993 265.455C563.155 262.212 560.835 258.548 559.118 254.596C557.383 250.595 557.498 246.031 559.436 242.123C561.817 238.481 565.65 236.04 569.956 235.422C574.206 234.835 578.515 234.786 582.777 235.275C590.018 235.731 597.26 235.87 604.502 235.691C609.567 235.544 618.717 236.767 622.925 233.392C624.337 232.037 625.394 230.356 626.008 228.5L641.348 192.695C644.773 184.722 646.926 175.281 653.385 169.069C665.007 157.843 676.579 165.865 678.512 180.148C681.105 199.029 675.429 214.388 669.337 231.508C667.918 235.666 666.891 239.579 665.79 243.174Z" fill="url(#paint7_linear)"/>
<path d="M582.385 119.323C583.014 121.297 583.393 123.344 583.511 125.413C583.511 126.563 583.511 127.859 582.483 128.544C581.727 128.982 580.793 128.982 580.037 128.544C579.337 128.074 578.73 127.475 578.25 126.783C577.247 125.487 574.214 122.796 575.363 120.987C575.902 120.057 582.165 118.663 582.385 119.323Z" fill="white"/>
<path d="M555.008 20.4432C551.235 21.5414 548.12 24.217 546.469 27.7804C545.434 31.4465 546.518 35.3841 549.283 38.0035C552.042 40.5617 555.548 42.1636 559.289 42.577C558.607 44.2939 558.291 46.1355 558.36 47.982C558.406 49.9239 559.671 51.6285 561.516 52.2375C562.697 52.4038 563.901 52.2326 564.99 51.7484C569.164 50.3274 573.205 48.5518 577.076 46.4412C578.537 45.4604 580.217 44.8564 581.969 44.6803C583.501 44.849 584.986 45.3064 586.349 46.0254C589.899 47.51 593.732 48.2046 597.578 48.0554C598.944 47.8842 600.324 47.8842 601.689 48.0554C606.068 48.9603 608.099 53.9495 609.42 58.2295L615.879 79.2871C618.108 75.6112 620.628 72.1187 623.415 68.8439C626.348 71.5073 627.889 75.3764 627.593 79.3263C627.297 83.2785 625.196 86.8713 621.898 89.07C621.335 89.4368 620.699 89.8282 620.552 90.4885C620.496 90.8994 620.537 91.32 620.674 91.7113L628.699 119.103C630.666 117.929 632.917 117.32 635.207 117.342C640.883 112.989 642.767 105.456 644.847 98.6083C647.474 89.9431 650.907 81.5421 655.098 73.5152C656.86 70.1646 658.792 66.3982 657.691 62.803C656.297 58.3029 650.523 55.6371 650.547 50.9168C650.726 49.2024 651.242 47.5393 652.064 46.0254C654.046 41.403 654.756 35.7534 652.064 31.4734C650.609 29.3823 648.722 27.6214 646.535 26.313C641.414 22.8792 635.794 20.2549 629.874 18.5356C631.88 14.3534 628.504 9.53535 624.76 6.79615C617.195 1.49629 607.898 -0.731742 598.753 0.559595C589.639 1.88273 581.123 5.88391 574.287 12.0544C571.718 14.329 568.268 14.5002 565.283 16.0654C561.939 17.7065 558.509 19.169 555.008 20.4432Z" fill="#3E3E52"/>
<path d="M212.532 385.76C224.276 408.847 236.362 431.764 248.791 454.509C259.654 474.392 268.241 495.01 290.701 503.937C293.799 504.854 296.686 506.375 299.191 508.412C301.466 510.662 302.42 514.698 300.243 517.07C298.408 519.076 295.35 519.051 292.585 518.88L262.541 517.07C259.551 517.08 256.588 516.49 253.831 515.334C248.938 512.888 246.491 507.165 244.289 502.053C237.365 486.23 224.716 474.27 217.377 459.229C210.666 445.159 202.829 431.656 193.938 418.85C180.09 399.284 163.894 380.159 159.319 356.656C158.406 354.728 158.749 352.439 160.185 350.862C161.623 349.287 163.872 348.734 165.876 349.465C175.941 350.094 185.441 354.342 192.617 361.425" fill="#E4A98A"/>
<path d="M197.51 242.196C201.779 238.833 204.838 234.172 206.22 228.916C207.593 223.704 209.31 218.59 211.358 213.606C214.012 208.208 218.189 203.701 223.371 200.643C225.328 199.33 227.642 198.648 230.001 198.687C232.496 199.059 234.804 200.225 236.582 202.013C239.927 204.606 242.192 208.343 242.943 212.505C243.506 217.397 240.717 222.288 237.267 225.859C233.818 229.43 229.634 232.291 226.258 235.984C223.603 239.144 221.152 242.468 218.918 245.938C207.654 261.578 191.452 272.975 172.922 278.295C169.252 280.362 164.613 279.303 162.206 275.849C157.312 270.151 152.909 263.278 151.954 255.697C151.612 252.884 151.392 248.139 153.227 245.694C155.062 243.248 159.686 243.248 162.817 243.248C174.341 243.15 186.451 249.68 197.51 242.196Z" fill="#E4A98A"/>
<path d="M199.663 79.4828C190.88 65.2977 171.894 57.8383 156.26 63.659C154.812 64.3463 153.239 64.7376 151.636 64.8085C140.235 64.2949 131.892 58.2785 120.711 65.7624C113.271 70.8397 108.938 79.3605 109.212 88.3608C101.603 86.2085 93.6274 92.4206 91.034 99.8801C88.4406 107.339 89.8596 115.582 91.4988 123.31C84.9664 126.318 81.0763 133.533 80.0732 140.699C79.5154 147.916 80.1784 155.175 82.0305 162.172C76.0608 160.387 70.14 166.624 69.7975 172.836C69.455 179.048 72.7334 184.844 75.914 190.2C67.3509 192.414 60.3536 198.572 57.0752 206.782C54.1882 214.975 57.0752 225.247 64.415 229.699C66.6658 231.044 69.3082 231.851 71.3878 233.269C73.4674 234.688 74.8619 236.131 76.6724 237.476C86.0429 244.52 99.9885 242.367 109.359 235.299C130.033 219.818 134.045 189.491 148.505 169.265C159.465 153.979 175.76 149.699 190.097 138.865C199.883 131.528 202.868 120.571 204.777 108.734C206.629 98.6866 204.813 88.307 199.663 79.4828Z" fill="#3E3E52"/>
<path d="M199.052 134.585L200.275 139.476C200.61 140.503 200.669 141.599 200.446 142.656C199.981 144.074 198.538 144.93 197.461 145.957C194.305 148.941 193.889 153.759 191.736 157.526C188.409 163.395 181.216 166.037 174.61 166.379C171.129 166.178 167.645 166.677 164.359 167.846C160.249 169.876 158.169 174.499 157.19 178.974C156.461 182.306 156.182 185.72 156.359 189.124C156.872 198.907 161.252 208.69 159.979 218.473C151.441 217.641 143.587 213.581 135.954 209.717C128.32 205.853 119.586 200.717 117.58 192.206C114.815 180.417 124.259 168.8 125.849 157.501C127.905 142.998 126.167 128.152 128.149 113.674C128.697 106.955 131.105 100.518 135.098 95.0864C137.84 91.9388 141.163 89.3488 144.884 87.4558C159.833 79.3605 178.353 81.5372 187.626 96.9207C191.191 103.69 193.699 110.964 195.064 118.492L199.052 134.585Z" fill="#E4A98A"/>
<path d="M120.785 186.116C123.447 185.253 126.353 185.602 128.736 187.07C133.63 190.102 154.426 219.035 159.857 218.546C165.289 218.057 175.173 238.846 172.384 248.824C169.595 258.803 161.717 265.577 160.958 276.754C160.2 287.931 153.325 313.097 153.325 313.097L195.529 330.364C191.223 346.946 190.268 363.993 184.764 380.452C184.237 382.864 182.899 385.023 180.971 386.567C179.295 387.43 177.424 387.851 175.54 387.789C151.974 388.895 128.36 388.176 104.906 385.637C97.5666 384.855 89.8598 383.705 84.1103 379.132C75.5472 372.333 73.8346 360.08 74.0792 349.147C74.9111 311.752 90.8874 276.289 95.3647 239.09C96.5635 229.038 96.9794 218.791 100.258 209.203C102.484 202.576 111.537 188.757 120.785 186.116Z" fill="#3498DB"/>
<path d="M127.391 340.367C116.924 349.115 107.808 359.358 100.331 370.767C98.7387 372.653 98.0022 375.116 98.3007 377.566C98.839 379.075 99.8421 380.377 101.163 381.284C114.571 392.07 133.385 387.765 148.994 391.703C167.735 396.447 176.983 418.606 183.785 435.09C184.58 437.636 186.041 439.925 188.018 441.718C190.352 443.129 193.045 443.833 195.773 443.747C209.215 444.454 222.693 443.701 235.971 441.497C238.665 441.294 241.229 440.26 243.311 438.538C246.296 435.53 245.757 430.638 244.926 426.481C240.676 406.519 232.754 387.518 221.561 370.449C216.325 362.452 210.355 353.329 203.138 346.995C195.211 339.976 182.978 336.723 173.191 332.492C166.536 329.582 159.539 326.647 152.297 327.185C145.055 327.723 138.229 331.88 132.308 336.381C130.669 337.677 129.006 338.998 127.391 340.367Z" fill="#3E3E52"/>
<path d="M155.453 122.136C152.738 122.755 150.073 123.572 147.477 124.582C144.842 125.646 143.032 128.108 142.804 130.941C143.343 128.495 140.358 126.294 137.911 126.832C135.472 127.578 133.713 129.703 133.434 132.237C132.79 136.757 135.359 141.122 139.624 142.753C135.098 148.476 136.003 156.572 135.611 163.836C135.146 172.031 132.749 180.002 128.614 187.094C126.072 191.744 122.436 195.706 118.02 198.638C114.938 200.546 110.362 201.5 108.038 198.638C107.011 197.114 106.472 195.314 106.497 193.478C104.05 165.645 103.316 136.884 112.736 110.592C114.708 104.62 117.614 98.9996 121.348 93.937C129.324 83.6894 141.948 77.8197 154.768 75.7164C167.001 73.7354 182.635 77.2328 177.742 92.2494C173.95 104.38 168.812 117.905 155.453 122.136Z" fill="#3E3E52"/>
<path d="M126.143 187.094C129.842 189.207 132.859 192.34 134.828 196.119C144.86 212.627 147.82 232.805 157.949 249.142C159.277 251.48 161 253.574 163.038 255.33C165.051 256.802 167.268 257.971 169.619 258.803C182.256 263.819 195.592 266.854 209.156 267.803C215.591 268.267 221.389 268.732 227.163 266.237C233.679 263.44 241.053 263.405 247.592 266.145C254.132 268.884 259.28 274.159 261.856 280.765C262.243 281.455 262.296 282.281 262.003 283.015C261.538 283.822 260.461 283.944 259.556 283.969L246.149 284.531L228.142 285.241L224.912 285.387C207.028 286.097 186.966 289.129 169.546 284.018C152.126 278.906 139.82 265.015 127.587 252.077C121.157 245.872 115.417 238.992 110.46 231.557C105.836 223.902 103.12 214.78 104.735 206C106.35 197.219 117.286 188.219 126.143 187.094Z" fill="#E4A98A"/>
<path d="M235.188 217.25L249.55 236.816C249.55 236.816 251.434 239.261 247.348 238.014L230.075 213.557C227.359 208.665 224.154 204.263 221.438 199.494C220.875 198.467 220.337 197.44 219.799 196.388C219.718 196.151 219.564 195.945 219.359 195.801C219.153 195.696 218.928 195.637 218.698 195.63C217.866 195.63 217.01 195.63 216.251 195.63C215.527 195.691 214.798 195.691 214.074 195.63C213.203 195.503 212.371 195.194 211.627 194.725C209.154 192.849 207.336 190.237 206.44 187.265C205.729 185.942 205.486 184.416 205.755 182.936C206.575 183.614 207.258 184.446 207.762 185.382C208.62 186.674 209.621 187.862 210.747 188.928C211.165 189.423 211.764 189.731 212.41 189.785C212.567 189.772 212.716 189.701 212.826 189.589C213.046 189.369 212.826 188.977 212.826 188.684L209.254 179.928C209.027 179.51 208.973 179.016 209.107 178.559C210.071 178.696 210.947 179.192 211.554 179.953C212.153 180.701 212.655 181.523 213.046 182.398C213.981 184.411 215.138 186.316 216.496 188.072C216.591 188.231 216.738 188.351 216.912 188.415C217.161 188.439 217.396 188.288 217.475 188.048C217.548 187.818 217.548 187.569 217.475 187.339C217.034 184.11 214.049 181.591 213.854 178.339C215.092 178.669 216.163 179.444 216.863 180.515C217.551 181.577 218.14 182.697 218.625 183.866C219.351 185.341 220.168 186.771 221.071 188.146C221.602 188.909 222.045 189.728 222.392 190.592C222.713 191.492 222.613 192.487 222.123 193.306C222.057 193.382 222.016 193.475 222.001 193.575C222.011 193.683 222.052 193.786 222.123 193.869L224.35 197.464C224.986 198.467 225.646 199.372 226.356 200.301C226.828 201.076 227.222 201.896 227.53 202.747C228.558 204.777 229.61 206.807 230.662 208.837C232.105 211.576 233.549 214.339 235.017 217.079L235.188 217.25Z" fill="white"/>
<path d="M224.423 173.178C224.805 173.503 225.106 173.914 225.304 174.376C225.475 174.927 225.475 175.514 225.304 176.064C224.252 178.686 221.92 180.581 219.138 181.078C216.41 181.542 213.724 182.237 211.113 183.157C208.814 184.257 206.685 186.238 204.141 185.994C202.519 185.781 201.06 184.893 200.128 183.548C199.255 182.171 198.572 180.682 198.098 179.121C197.904 178.683 197.846 178.199 197.926 177.727C198.098 177.304 198.398 176.944 198.783 176.7C203.027 173.508 207.845 171.158 212.973 169.778C217.744 168.311 221.022 169.632 224.423 173.178Z" fill="#5D2E33"/>
<path d="M220.9 173.667C220.017 174.504 218.965 175.147 217.817 175.55C214.881 176.641 211.825 177.38 208.716 177.752C208.043 177.808 207.378 177.94 206.734 178.143C205.489 178.71 204.341 179.468 203.333 180.393C202.315 181.325 200.994 181.855 199.614 181.885C199.602 183.286 200.255 184.612 201.376 185.456C203.358 186.625 205.795 186.715 207.859 185.7C209.939 184.844 211.823 183.523 213.952 182.79C216.863 181.763 220.117 181.958 223.004 180.833C223.638 180.591 224.232 180.254 224.765 179.83C226.199 178.51 226.742 176.48 226.16 174.621C225.707 173.171 224.731 171.943 223.42 171.173C221.83 170.366 221.756 172.762 220.9 173.667Z" fill="url(#paint8_linear)"/>
<path d="M184.103 150.384C181.323 149.988 178.517 149.799 175.711 149.821C175.897 153.182 177.216 156.381 179.454 158.895C179.948 159.555 180.69 159.988 181.509 160.094C182.432 159.952 183.229 159.379 183.662 158.553C185.123 156.454 185.97 153.989 186.109 151.436C186.146 151.291 186.146 151.14 186.109 150.995C185.977 150.829 185.784 150.722 185.571 150.702L182.439 149.846" fill="white"/>
<path d="M223.175 266.678C216.251 266.678 208.814 266.922 203.284 269.662C197.755 272.401 195.137 277.463 193.131 282.086C180.898 309.967 167.344 338.093 142.804 362.158C141.263 363.675 139.599 365.289 139.575 367.05C139.856 369.041 140.967 370.819 142.633 371.941C156.383 383.999 181.24 388.034 204.067 387.814C210.184 387.814 216.667 387.521 222.074 389.453C225.835 390.962 229.235 393.246 232.056 396.154C244.289 407.38 257.476 419.51 277.221 424.108C296.451 428.608 318.96 425.136 337.04 431.445C351.059 436.337 359.377 445.924 368.846 454.362C372.618 458.27 377.619 460.767 383.012 461.43C391.55 462.041 397.96 456.685 403.71 452.454C415.551 443.723 431.234 437.78 445.596 430.932C459.957 424.084 473.829 415.597 479.139 404.396C482.074 413.029 498.124 416.845 511.336 415.622C524.548 414.399 536.487 409.776 549.454 407.747C569.981 404.567 591.315 408.04 612.331 409.018C624.565 409.581 638.363 408.823 646.339 402.684C653.679 397.01 653.434 388.425 649.691 381.382C645.948 374.338 639.269 368.102 634.596 361.302C624.589 346.628 624.32 330.046 621.678 314.051C619.402 300.209 614.338 280.667 596.991 271.08C588.477 266.335 574.213 268.072 563.669 267.901C548.108 267.64 532.54 267.411 516.963 267.216C454.297 266.384 391.624 266.017 328.942 266.115C293.645 266.164 258.39 266.352 223.175 266.678Z" fill="#46B04B"/>
<path d="M548.695 213.361H523.887V266.066H548.695V213.361Z" fill="white"/>
<g opacity="0.18">
<g opacity="0.18">
<path opacity="0.18" d="M527.092 228.329C527.033 227.801 527.192 227.27 527.532 226.861C527.914 226.556 528.389 226.392 528.878 226.397C533.885 225.973 538.917 225.671 543.974 225.492C544.58 225.333 545.226 225.514 545.662 225.966C546.097 226.416 546.256 227.067 546.078 227.669C546.436 236.848 546.624 246.028 546.64 255.207C546.64 257.506 546.958 261.737 544.903 263.131C543.46 264.134 538.004 263.645 536.193 263.449C532.871 263.356 529.854 261.49 528.291 258.558C524.058 250.536 526.774 236.987 527.092 228.329Z" fill="#46B04B"/>
</g>
</g>
<g opacity="0.18">
<g opacity="0.18">
<path opacity="0.18" d="M527.092 228.329C527.033 227.801 527.192 227.27 527.532 226.861C527.914 226.556 528.389 226.392 528.878 226.397C533.885 225.973 538.917 225.671 543.974 225.492C544.58 225.333 545.226 225.514 545.662 225.966C546.097 226.416 546.256 227.067 546.078 227.669C546.436 236.848 546.624 246.028 546.64 255.207C546.64 257.506 546.958 261.737 544.903 263.131C543.46 264.134 538.004 263.645 536.193 263.449C532.871 263.356 529.854 261.49 528.291 258.558C524.058 250.536 526.774 236.987 527.092 228.329Z" fill="#46B04B"/>
</g>
</g>
<path d="M322.36 213.361H297.552V266.066H322.36V213.361Z" fill="white"/>
<path d="M269.538 213.361H244.729V266.066H269.538V213.361Z" fill="white"/>
<path d="M535.142 238.479C530.476 239.721 527.041 243.686 526.481 248.482C526.309 253.373 530.175 257.531 534.628 259.365C539.227 260.881 544.089 261.456 548.916 261.053C554.152 261.053 563.277 263.156 565.357 257.262C566.801 253.248 566.321 248.795 564.06 245.18C558.971 238.601 542.481 236.253 535.142 238.479Z" fill="#E4A98A"/>
<g opacity="0.18">
<g opacity="0.18">
<path opacity="0.18" d="M300.732 229.723C300.693 229.19 300.85 228.659 301.173 228.231C301.562 227.923 302.049 227.769 302.543 227.791C307.55 227.383 312.574 227.073 317.614 226.861C318.094 226.791 318.583 226.876 319.009 227.106C319.525 227.62 319.784 228.336 319.718 229.063C320.11 238.21 320.305 247.406 320.305 256.577C320.305 258.876 320.623 263.107 318.568 264.526C317.1 265.504 311.669 265.039 309.858 264.819C306.526 264.758 303.495 262.882 301.956 259.928C297.821 251.906 300.414 238.381 300.732 229.723Z" fill="#46B04B"/>
</g>
</g>
<g opacity="0.18">
<g opacity="0.18">
<path opacity="0.18" d="M300.732 229.723C300.693 229.19 300.85 228.659 301.173 228.231C301.562 227.923 302.049 227.769 302.543 227.791C307.55 227.383 312.574 227.073 317.614 226.861C318.094 226.791 318.583 226.876 319.009 227.106C319.525 227.62 319.784 228.336 319.718 229.063C320.11 238.21 320.305 247.406 320.305 256.577C320.305 258.876 320.623 263.107 318.568 264.526C317.1 265.504 311.669 265.039 309.858 264.819C306.526 264.758 303.495 262.882 301.956 259.928C297.821 251.906 300.414 238.381 300.732 229.723Z" fill="#46B04B"/>
</g>
</g>
<g opacity="0.18">
<g opacity="0.18">
<path opacity="0.18" d="M247.935 229.723C247.815 229.209 247.959 228.671 248.316 228.285C248.674 227.896 249.2 227.713 249.721 227.791C254.614 227.375 259.776 227.057 264.792 226.861C265.271 226.791 265.761 226.876 266.186 227.106C266.73 227.603 267.004 228.331 266.92 229.063C267.287 238.21 267.483 247.406 267.483 256.577C267.483 258.876 267.801 263.107 265.746 264.526C264.303 265.504 258.847 265.039 257.036 264.819C253.709 264.748 250.682 262.875 249.134 259.928C244.901 251.906 247.617 238.381 247.935 229.723Z" fill="#46B04B"/>
</g>
</g>
<g opacity="0.18">
<g opacity="0.18">
<path opacity="0.18" d="M247.935 229.723C247.815 229.209 247.959 228.671 248.316 228.285C248.674 227.896 249.2 227.713 249.721 227.791C254.614 227.375 259.776 227.057 264.792 226.861C265.271 226.791 265.761 226.876 266.186 227.106C266.73 227.603 267.004 228.331 266.92 229.063C267.287 238.21 267.483 247.406 267.483 256.577C267.483 258.876 267.801 263.107 265.746 264.526C264.303 265.504 258.847 265.039 257.036 264.819C253.709 264.748 250.682 262.875 249.134 259.928C244.901 251.906 247.617 238.381 247.935 229.723Z" fill="#46B04B"/>
</g>
</g>
<path d="M134.486 190.127C132.602 186.644 129.757 183.773 126.29 181.86C120.883 179.415 114.204 181.64 109.971 185.847C105.981 190.315 103.084 195.649 101.506 201.426C99.4236 206.386 98.5257 211.762 98.8878 217.128C99.5289 220.706 100.681 224.174 102.313 227.424L115.843 257.678C121.372 253.317 126.671 248.672 131.721 243.761C136.786 238.814 143.105 235.338 149.997 233.71C147.568 226.365 145.76 218.83 144.59 211.185C143.196 203.872 138.425 196.388 134.486 190.127Z" fill="#3498DB"/>
<path d="M291.558 506.138C288.935 506.58 286.405 507.456 284.071 508.73C279.971 510.388 275.498 510.904 271.129 510.222C265.428 509.317 260.29 506.407 254.834 504.548C253.474 504.01 252.013 503.77 250.553 503.839C249.038 503.954 247.712 504.895 247.103 506.284C246.753 507.766 246.964 509.324 247.69 510.662L249.745 515.92C250.43 517.977 251.429 519.917 252.706 521.668C254.029 523.422 256.087 524.468 258.284 524.505C260.731 524.505 262.614 522.769 264.89 522.182C267.608 521.763 270.387 521.974 273.012 522.793C277.054 523.541 281.14 524.031 285.245 524.26C293.613 524.896 302.714 525.361 309.711 520.641C310.715 519.956 311.767 518.782 311.253 517.657C310.998 517.207 310.627 516.835 310.176 516.581C305.161 513.132 297.821 505.771 291.558 506.138Z" fill="#3498DB"/>
<path d="M452.96 452.65C448.434 455.56 445.474 460.281 441.681 464.047C437.889 467.813 432.286 470.822 427.295 468.938C425.862 468.139 424.332 467.522 422.745 467.104C419.221 466.664 416.555 470.161 414.769 473.243C412.983 476.324 410.928 480.409 411.662 484.224C411.735 484.733 411.955 485.21 412.298 485.594C412.723 485.921 413.232 486.124 413.766 486.181C419.955 487.183 426.145 484.542 431.552 481.289C436.377 478.494 440.945 475.278 445.204 471.678C450.709 467.031 455.994 460.281 452.96 452.65Z" fill="#9B59B6"/>
<path d="M484.179 458.617C479.677 461.528 476.839 466.248 472.924 470.014C469.01 473.781 463.529 476.789 458.514 474.906C457.085 474.111 455.566 473.495 453.988 473.072C450.44 472.631 447.773 476.129 446.012 479.21C444.25 482.292 442.146 486.376 442.905 490.192C442.968 490.698 443.181 491.175 443.516 491.561C443.949 491.894 444.465 492.097 445.009 492.148C451.174 493.151 457.364 490.51 462.795 487.257C467.61 484.515 472.171 481.345 476.423 477.792C481.952 472.9 487.237 466.248 484.179 458.617Z" fill="#9B59B6"/>
<path d="M362.509 463.753C365.078 466.776 368.161 469.327 371.611 471.286C374.434 472.8 377.015 474.73 379.269 477.009C381.529 479.377 382.341 482.779 381.397 485.912C379.562 490.558 373.495 491.512 368.503 491.414C359.747 491.248 351.042 490.04 342.569 487.819C332.489 485.202 325.737 472.411 332.294 462.873C337.823 454.851 357.371 457.174 362.509 463.753Z" fill="#34495E"/>
<path d="M289.698 473.952C288.597 472.118 290.481 469.941 292.145 468.743C296.03 466.118 300.356 464.213 304.916 463.118C306.235 462.741 307.605 462.567 308.977 462.604C310.502 462.712 311.997 463.069 313.406 463.656C325.03 468.112 333.935 477.692 337.529 489.605C337.945 490.764 338.087 492.001 337.945 493.224C337.285 496.55 333.248 497.847 329.896 498.116C312.063 499.635 294.638 492.19 283.41 478.257" fill="#34495E"/>
<path d="M327.425 221.872C326.456 221.373 325.382 221.112 324.293 221.114C321.847 221.285 320.33 223.56 319.718 226.006C318.005 232.511 321.308 239.31 325.492 244.593C330.19 250.181 335.425 255.293 341.126 259.854C346.606 264.574 352.503 269.466 359.622 270.664C361.499 271.019 363.422 271.019 365.298 270.664C370.51 269.346 374.429 265.042 375.256 259.732C377.066 248.286 369.164 244.153 360.576 240.558C348.808 235.666 339.12 226.911 327.425 221.872Z" fill="#E4A98A"/>
<path d="M304.035 167.186C303.925 167.149 303.803 167.149 303.693 167.186C303.497 167.333 303.521 167.602 303.693 167.846C304.378 170.488 306.159 172.711 308.586 173.961C309.633 174.604 310.927 174.704 312.06 174.23C312.54 173.902 312.96 173.496 313.308 173.031C314.776 171.197 317.369 167.944 313.92 167.039C310.631 166.677 307.311 166.726 304.035 167.186Z" fill="white"/>
<path d="M322.948 219.989C322.541 219.774 322.086 219.664 321.626 219.671C320.261 219.512 318.881 219.512 317.516 219.671C316.148 219.857 314.869 220.454 313.846 221.383C313.171 222.1 312.625 222.926 312.231 223.829C311.698 224.927 311.297 226.084 311.033 227.277C310.798 228.6 310.732 229.948 310.837 231.288C310.896 232.631 311.118 233.961 311.497 235.25C311.757 236.187 312.207 237.063 312.819 237.818C313.501 238.557 314.336 239.141 315.265 239.53C316.86 240.279 318.624 240.589 320.379 240.435C322.15 240.22 323.774 239.347 324.929 237.989C326.006 236.539 326.581 234.781 326.568 232.976C326.522 231.188 326.294 229.41 325.883 227.669C325.636 226.16 325.301 224.665 324.88 223.193C324.535 221.97 323.867 220.865 322.948 219.989Z" fill="#E4A98A"/>
<defs>
<linearGradient id="paint0_linear" x1="518.48" y1="226.512" x2="515.069" y2="277.424" gradientUnits="userSpaceOnUse">
<stop stop-color="#9B59B6"/>
<stop offset="1"/>
</linearGradient>
<linearGradient id="paint1_linear" x1="486.151" y1="215.947" x2="486.151" y2="161.219" gradientUnits="userSpaceOnUse">
<stop/>
<stop offset="1" stop-color="#46B04B"/>
</linearGradient>
<linearGradient id="paint2_linear" x1="437.703" y1="161.144" x2="437.703" y2="210.977" gradientUnits="userSpaceOnUse">
<stop stop-color="#46B04B"/>
<stop offset="1"/>
</linearGradient>
<linearGradient id="paint3_linear" x1="325.898" y1="272.438" x2="505.896" y2="213.986" gradientUnits="userSpaceOnUse">
<stop stop-color="#46B04B"/>
<stop offset="0.141445"/>
<stop offset="1" stop-color="#3F9E44"/>
</linearGradient>
<linearGradient id="paint4_linear" x1="654.511" y1="169.167" x2="654.511" y2="524.823" gradientUnits="userSpaceOnUse">
<stop stop-color="#46B04B"/>
<stop offset="1"/>
</linearGradient>
<linearGradient id="paint5_linear" x1="129.36" y1="169.167" x2="129.36" y2="524.823" gradientUnits="userSpaceOnUse">
<stop stop-color="#46B04B"/>
<stop offset="1"/>
</linearGradient>
<linearGradient id="paint6_linear" x1="316.117" y1="288.737" x2="710.475" y2="275.355" gradientUnits="userSpaceOnUse">
<stop stop-color="#040101"/>
<stop offset="0.0434783" stop-color="#090302"/>
<stop offset="1" stop-color="#E74C3C"/>
</linearGradient>
<linearGradient id="paint7_linear" x1="457.2" y1="269.173" x2="681.898" y2="162.162" gradientUnits="userSpaceOnUse">
<stop/>
<stop offset="1" stop-color="#E74C3C"/>
</linearGradient>
<linearGradient id="paint8_linear" x1="199.615" y1="178.705" x2="226.39" y2="178.705" gradientUnits="userSpaceOnUse">
<stop offset="1"/>
</linearGradient>
</defs>
</svg>
