<svg width="799" height="625" viewBox="0 0 799 625" fill="none" xmlns="http://www.w3.org/2000/svg">
<g clip-path="url(#clip0)">
<path opacity="0.1" d="M252.272 22.0564C273.97 2.70592 308.04 -1.21176 339.1 0.27503C436.575 5.12195 524.562 52.1638 600.674 105.383C628.231 124.645 655.356 145.408 673.239 171.939C709.674 225.947 698.848 300.762 648.226 345.254C630.997 360.389 610.117 372.016 588.68 382.282C550.565 400.57 509.437 415.252 466.176 419.452C435.333 422.425 404.103 420.009 373.43 415.854C287.748 404.235 203.643 378.543 133.144 334.594C102.227 315.317 73.0711 291.35 60.3411 260.165C47.6111 228.98 55.7532 189.461 87.3254 171.003C100.383 163.368 115.998 159.919 131.278 156.677C153.779 151.912 176.636 147.214 196.936 137.528C217.912 127.522 242.74 108.171 238.576 86.0179C234.129 62.2517 230.56 41.3846 252.272 22.0564Z" fill="#46B04B"/>
<path opacity="0.1" d="M342.736 617.447C397.411 617.447 441.735 603.575 441.735 586.463C441.735 569.35 397.411 555.478 342.736 555.478C288.06 555.478 243.736 569.35 243.736 586.463C243.736 603.575 288.06 617.447 342.736 617.447Z" fill="#46B04B"/>
<path d="M545.746 267.8L549.338 458.644L556.974 459.543L554.096 267.042L545.746 267.8Z" fill="#F5C5CC"/>
<path d="M527.283 264.209L530.875 455.053L538.511 455.953L535.634 263.451L527.283 264.209Z" fill="#F5C5CC"/>
<path d="M531.797 254.233L532.168 462.383L539.976 461.64L537.002 250.144L531.797 254.233Z" fill="#CC929B"/>
<path d="M316.435 219.479L319.729 392.474L327.366 393.277L324.793 218.781L316.435 219.479Z" fill="#F5C5CC"/>
<path d="M320.845 216.245L324.622 396.295L327.366 393.277L324.793 218.78L320.845 216.245Z" fill="#CC929B"/>
<path d="M332.682 223.858L335.976 396.845L343.613 397.648L341.04 223.159L332.682 223.858Z" fill="#F5C5CC"/>
<path d="M337.092 220.617L340.877 400.666L343.613 397.648L341.04 223.159L337.092 220.617Z" fill="#CC929B"/>
<path d="M348.565 228.601L351.859 401.596L359.496 402.398L356.923 227.909L348.565 228.601Z" fill="#F5C5CC"/>
<path d="M352.975 225.374L356.759 405.417L359.496 402.398L356.923 227.909L352.975 225.374Z" fill="#CC929B"/>
<path d="M364.017 229.567L367.407 408.635L375.044 409.468L372.367 228.853L364.017 229.567Z" fill="#F5C5CC"/>
<path d="M368.419 226.222L372.308 412.59L375.044 409.468L372.367 228.853L368.419 226.222Z" fill="#CC929B"/>
<path d="M380.769 230.965L384.167 410.026L391.804 410.858L389.127 230.244L380.769 230.965Z" fill="#F5C5CC"/>
<path d="M385.179 227.619L389.068 413.981L391.804 410.858L389.127 230.244L385.179 227.619Z" fill="#CC929B"/>
<path d="M397.232 236.815L400.623 415.884L408.259 416.716L405.59 236.102L397.232 236.815Z" fill="#F5C5CC"/>
<path d="M401.634 233.47L405.523 419.838L408.259 416.716L405.59 236.101L401.634 233.47Z" fill="#CC929B"/>
<path d="M416.074 240.681L419.554 424.745L427.191 425.6L424.432 239.945L416.074 240.681Z" fill="#F5C5CC"/>
<path d="M420.476 237.246L424.454 428.811L427.191 425.6L424.432 239.945L420.476 237.246Z" fill="#CC929B"/>
<path d="M432.47 242.636L435.942 426.7L443.586 427.555L440.82 241.9L432.47 242.636Z" fill="#F5C5CC"/>
<path d="M436.872 239.194L440.85 430.766L443.587 427.555L440.82 241.9L436.872 239.194Z" fill="#CC929B"/>
<path d="M449.84 247.542L453.32 431.607L460.956 432.469L458.198 246.814L449.84 247.542Z" fill="#F5C5CC"/>
<path d="M454.249 244.108L458.22 435.68L460.956 432.469L458.198 246.814L454.249 244.108Z" fill="#CC929B"/>
<path d="M301.556 219.174L301.185 208.217L305.051 206.106L582.36 262.968L582.873 276.877L301.556 219.174Z" fill="#F5C5CC"/>
<path d="M305.051 206.106L583.379 262.923L583.096 268.134L301.757 207.897" fill="#CC929B"/>
<path d="M316.532 491.881L308.725 494.72H301.289L300.917 201.422L305.007 195.743L308.955 194.583L313.93 193.832L316.532 491.881Z" fill="#F5C5CC"/>
<path d="M316.532 491.881L308.725 494.72L308.241 202.002L308.955 194.583L313.93 193.832L316.532 491.881Z" fill="#CC929B"/>
<path d="M468.712 252.991L472.192 437.048L479.828 437.91L477.07 252.255L468.712 252.991Z" fill="#F5C5CC"/>
<path d="M473.114 249.55L477.092 441.122L479.828 437.91L477.07 252.255L473.114 249.55Z" fill="#CC929B"/>
<path d="M487.725 255.898L491.272 443.895L498.908 444.772L496.075 255.155L487.725 255.898Z" fill="#F5C5CC"/>
<path d="M507.303 259.34L510.895 450.184L518.531 451.083L515.661 258.582L507.303 259.34Z" fill="#F5C5CC"/>
<path d="M511.705 255.779L515.802 454.414L518.531 451.083L515.661 258.582L511.705 255.779Z" fill="#CC929B"/>
<path d="M208.342 435.621L200.534 436.364L200.17 231.046L200.163 228.214L205.368 224.125L205.449 229.82L208.342 435.621Z" fill="#F5C5CC"/>
<path d="M235.854 424.098L228.047 424.842L227.682 222.877L227.675 216.692L232.88 212.603L232.999 220.899L235.854 424.098Z" fill="#F5C5CC"/>
<path d="M281.212 405.513L273.405 406.257L273.048 206.842L273.033 198.107L278.238 194.018L278.402 205.6L281.212 405.513Z" fill="#F5C5CC"/>
<path d="M300.917 398.079L293.11 398.823L292.76 204.277L292.738 190.673L297.943 186.584L298.21 205.481L300.917 398.079Z" fill="#F5C5CC"/>
<path d="M222.098 433.391L214.29 434.134L213.919 227.471V225.984L219.124 221.895L219.176 225.813L222.098 433.391Z" fill="#F5C5CC"/>
<path d="M262.251 414.806L254.444 415.549L254.079 212.781L254.072 207.399L259.277 203.31L259.381 210.938L262.251 414.806Z" fill="#F5C5CC"/>
<path d="M249.239 418.523L241.431 419.266L241.074 217.725L241.059 211.116L246.264 207.027L246.383 215.636L249.239 418.523Z" fill="#F5C5CC"/>
<path d="M200.014 401.321L198.155 405.223C198.155 405.223 193.322 412.471 193.879 423.622C194.437 434.773 186.094 464.323 186.094 464.323C186.094 464.323 193.716 467.854 199.479 467.482C205.241 467.111 217.696 473.244 217.696 473.244L243.513 481.25L295.749 493.516C295.749 493.516 326.421 510.614 334.787 510.614C343.152 510.614 376.427 521.951 376.427 521.951C376.427 521.951 421.413 531.801 424.945 535.518C428.477 539.235 443.371 544.238 444.858 544.439C446.345 544.639 469.024 546.855 469.024 546.855C469.024 546.855 495.421 552.988 499.139 546.483C501.306 542.825 502.757 538.789 503.414 534.589C503.414 534.589 515.126 537.19 518.286 533.288C521.446 529.385 521.632 521.022 525.35 521.393C529.068 521.765 544.311 526.411 545.984 524.739C547.657 523.066 556.58 503.366 562.9 506.34C569.221 509.313 580.188 513.959 580.188 513.959L573.868 449.656L571.08 432C571.08 432 469.768 473.259 466.236 473.259C462.704 473.259 200.014 401.321 200.014 401.321Z" fill="#46B04B"/>
<path d="M570.522 345.009L569.964 435.702L464.726 476.046L198.155 405.238C198.155 405.238 180.123 379.777 196.854 355.988C196.854 355.988 175.29 326.253 202.059 306.925L202.721 306.768L303.929 282.393L348.937 290.615L547.806 326.981C547.806 326.981 567.34 334.229 570.522 345.009Z" fill="#46B04B"/>
<path opacity="0.1" d="M345.383 299.29C340.364 301.892 303.929 311.37 296.679 317.131C289.429 322.893 239.238 327.368 239.238 327.368L233.661 328.483C233.661 328.483 234.033 324.766 211.911 313.987C208.377 312.249 205.246 309.79 202.721 306.768L303.929 282.393L348.937 290.615C348.997 294.175 348.387 297.729 345.383 299.29Z" fill="black"/>
<path d="M192.392 263.436C192.392 263.436 190.533 299.491 212.655 310.27C234.776 321.049 234.426 324.751 234.426 324.751L240.003 323.636C240.003 323.636 220.67 302.078 221.972 298.361C223.273 294.644 204.684 275.873 202.059 275.13C199.434 274.386 192.392 263.436 192.392 263.436Z" fill="#46B04B"/>
<path opacity="0.1" d="M192.786 263.979C192.786 263.979 190.927 300.033 213.049 310.812C235.17 321.592 234.798 325.309 234.798 325.309L240.375 324.194C240.375 324.194 221.042 302.635 222.343 298.918C223.645 295.201 205.033 276.431 202.453 275.687C199.873 274.944 192.786 263.979 192.786 263.979Z" fill="black"/>
<path opacity="0.1" d="M197.991 279.218C197.991 279.218 215.837 306.166 218.997 307.095C222.158 308.025 202.245 279.59 197.991 279.218Z" fill="black"/>
<path d="M189.812 258.403C189.812 258.403 201.337 249.111 202.825 247.252C204.312 245.394 220.67 244.651 221.228 244.651C221.786 244.651 234.241 237.031 248.183 234.615C262.125 232.199 267.701 231.084 267.701 231.084C267.701 231.084 288.15 222.535 289.265 220.676C290.38 218.818 299.861 216.773 311.572 225.88C323.284 234.987 349.123 275.873 349.309 280.333C349.495 284.794 351.168 292.971 346.148 295.573C341.129 298.175 304.694 307.653 297.444 313.414C290.194 319.176 239.981 323.651 239.981 323.651L221.042 303.007L211.004 286.838L194.273 269.183L189.812 258.403Z" fill="#46B04B"/>
<path opacity="0.1" d="M220.894 418.917C220.894 418.917 213.956 420.403 217.919 424.366C221.883 428.328 220.894 418.917 220.894 418.917Z" fill="black"/>
<path opacity="0.1" d="M245.186 426.849C245.186 426.849 237.75 435.769 239.237 438.245C240.725 440.72 245.186 426.849 245.186 426.849Z" fill="black"/>
<path opacity="0.1" d="M288.812 438.245C288.812 438.245 281.376 447.166 282.863 449.641C284.35 452.117 288.812 438.245 288.812 438.245Z" fill="black"/>
<path opacity="0.1" d="M341.851 453.113C341.851 453.113 334.415 462.033 335.902 464.509C337.389 466.984 341.851 453.113 341.851 453.113Z" fill="black"/>
<path opacity="0.1" d="M413.234 470.954C413.234 470.954 405.798 479.875 407.285 482.35C408.772 484.826 413.234 470.954 413.234 470.954Z" fill="black"/>
<path opacity="0.1" d="M266.504 429.324C266.504 429.324 259.069 438.245 260.556 440.72C262.043 443.196 266.504 429.324 266.504 429.324Z" fill="black"/>
<path opacity="0.1" d="M370.106 460.547C370.106 460.547 362.671 469.467 364.158 471.943C365.645 474.418 370.106 460.547 370.106 460.547Z" fill="black"/>
<path opacity="0.1" d="M391.915 467.482C391.915 467.482 384.48 476.403 385.967 478.886C387.454 481.369 391.915 467.482 391.915 467.482Z" fill="black"/>
<path opacity="0.1" d="M308.145 444.192C308.145 444.192 300.709 453.113 302.196 455.588C303.683 458.064 308.145 444.192 308.145 444.192Z" fill="black"/>
<path opacity="0.1" d="M495.525 498.214L503.392 534.574C503.392 534.574 503.452 509.113 495.525 498.214Z" fill="black"/>
<path opacity="0.1" d="M519.81 503.664L525.328 521.393C525.328 521.393 524.77 514.569 519.81 503.664Z" fill="black"/>
<path opacity="0.1" d="M545.984 524.724C545.984 524.724 534.213 481.86 531.73 478.886C529.246 475.913 538.898 522.003 545.984 524.724Z" fill="black"/>
<path opacity="0.1" d="M559.963 504.652C559.963 504.652 546.088 480.373 551.538 475.913C556.989 471.452 559.963 504.652 559.963 504.652Z" fill="black"/>
<path opacity="0.1" d="M196.854 355.974L466.273 416.441L569.883 386.207L465.284 413.468C465.284 413.468 205.033 353.498 196.854 355.974Z" fill="black"/>
<path d="M204.996 290.288L205.368 463.312L212.989 464.241L213.361 289.73L204.996 290.288Z" fill="#F5C5CC"/>
<path d="M209.457 287.128L210.201 467.215L212.989 464.241L213.361 289.73L209.457 287.128Z" fill="#CC929B"/>
<path d="M221.169 294.934L221.54 467.958L229.162 468.887L229.534 294.376L221.169 294.934Z" fill="#F5C5CC"/>
<path d="M225.63 291.774L226.374 471.861L229.162 468.888L229.534 294.376L225.63 291.774Z" fill="#CC929B"/>
<path d="M236.97 299.952L237.342 472.976L244.963 473.905L245.335 299.394L236.97 299.952Z" fill="#F5C5CC"/>
<path d="M241.431 296.792L242.175 476.879L244.963 473.905L245.335 299.394L241.431 296.792Z" fill="#CC929B"/>
<path d="M252.399 301.178L252.77 480.276L260.392 481.235L260.764 300.598L252.399 301.178Z" fill="#F5C5CC"/>
<path d="M256.86 297.907L257.604 484.313L260.392 481.235L260.764 300.598L256.86 297.907Z" fill="#CC929B"/>
<path d="M269.129 302.851L269.501 481.949L277.123 482.908L277.494 302.271L269.129 302.851Z" fill="#F5C5CC"/>
<path d="M273.591 299.58L274.334 485.986L277.123 482.908L277.494 302.271L273.591 299.58Z" fill="#CC929B"/>
<path d="M285.488 308.984L285.86 488.082L293.481 489.041L293.853 308.404L285.488 308.984Z" fill="#F5C5CC"/>
<path d="M289.949 305.713L290.693 492.119L293.481 489.041L293.853 308.404L289.949 305.713Z" fill="#CC929B"/>
<path d="M308.725 309.802L309.468 501.411L312.257 498.244L312.628 312.567L308.725 309.802Z" fill="#CC929B"/>
<path d="M320.622 315.392L320.993 499.486L328.615 500.474L328.987 314.797L320.622 315.392Z" fill="#F5C5CC"/>
<path d="M325.083 312.032L325.827 503.641L328.615 500.474L328.987 314.797L325.083 312.032Z" fill="#CC929B"/>
<path d="M337.91 320.595L338.281 504.689L345.903 505.678L346.275 320.001L337.91 320.595Z" fill="#F5C5CC"/>
<path d="M342.371 317.235L343.115 508.845L345.903 505.678L346.275 320.001L342.371 317.235Z" fill="#CC929B"/>
<path d="M356.685 326.357L357.057 510.451L364.679 511.439L365.05 325.762L356.685 326.357Z" fill="#F5C5CC"/>
<path d="M361.146 322.997L361.89 514.606L364.678 511.439L365.05 325.762L361.146 322.997Z" fill="#CC929B"/>
<path d="M375.646 329.591L376.018 517.609L383.64 518.62L384.011 328.981L375.646 329.591Z" fill="#F5C5CC"/>
<path d="M380.108 326.156L380.851 521.854L383.64 518.621L384.011 328.981L380.108 326.156Z" fill="#CC929B"/>
<path d="M395.165 333.36L395.537 524.241L403.158 525.267L403.53 332.743L395.165 333.36Z" fill="#CC929B"/>
<path d="M415.056 338.563L415.427 529.444L423.049 530.47L423.421 337.946L415.056 338.563Z" fill="#F5C5CC"/>
<path d="M419.517 335.077L420.261 533.749L423.049 530.47L423.421 337.946L419.517 335.077Z" fill="#CC929B"/>
<path d="M433.459 342.466L433.831 533.347L441.452 534.373L441.824 341.849L433.459 342.466Z" fill="#CC929B"/>
<path d="M194.958 496.951L187.15 499.924H179.714L179.343 227.099L183.432 221.152L187.381 219.94L193.099 218.178L194.958 496.951Z" fill="#F5C5CC"/>
<path d="M194.958 496.951L187.15 499.924L186.667 227.701L187.381 219.94L193.099 218.178L194.958 496.951Z" fill="#CC929B"/>
<path d="M187.894 508.473C192.822 508.473 196.817 504.479 196.817 499.553C196.817 494.626 192.822 490.632 187.894 490.632C182.966 490.632 178.971 494.626 178.971 499.553C178.971 504.479 182.966 508.473 187.894 508.473Z" fill="#40414D"/>
<path d="M594.257 538.714L586.449 541.554H579.014L578.642 241.565L582.732 242.576L586.68 241.417L592.398 239.737L594.257 538.714Z" fill="#F5C5CC"/>
<path d="M594.257 538.714L586.449 541.554L585.966 248.836L586.68 241.417L592.398 239.737L594.257 538.714Z" fill="#CC929B"/>
<path d="M486.067 482.454L478.259 483.198L477.903 282.787L477.888 275.048L483.093 270.959L483.241 281.642L486.067 482.454Z" fill="#F5C5CC"/>
<path d="M513.579 470.932L505.772 471.675L505.422 274.966L505.4 263.525L510.605 259.437L510.798 273.011L513.579 470.932Z" fill="#F5C5CC"/>
<path d="M558.937 452.347L551.13 453.09L550.78 256.842L550.758 244.94L555.963 240.852L556.156 254.612L558.937 452.347Z" fill="#F5C5CC"/>
<path d="M570.462 237.507L570.834 445.656L578.642 444.913L575.667 233.418L570.462 237.507Z" fill="#F5C5CC"/>
<path d="M499.823 480.224L492.015 480.968L491.658 279.419L491.644 272.818L496.849 268.729L496.975 277.806L499.823 480.224Z" fill="#F5C5CC"/>
<path d="M526.964 465.356L519.156 466.1L518.806 269.911L518.784 257.95L523.989 253.861L524.183 267.748L526.964 465.356Z" fill="#F5C5CC"/>
<path d="M542.08 460.398L534.273 461.141L533.923 264.953V263.786L533.901 252.991L539.106 248.903L539.284 261.585L539.299 262.789L542.08 460.398Z" fill="#F5C5CC"/>
<path d="M470.452 481.094L578.27 435.249L585.706 436.981L585.951 454.079L472.437 497.939L470.452 481.094Z" fill="#F5C5CC"/>
<path d="M578.27 435.249L470.452 481.094L585.304 436.884" fill="#CC929B"/>
<path d="M191.113 456.807L463.016 539.324L462.518 552.705L190.125 468.702L191.113 456.807Z" fill="#F5C5CC"/>
<path d="M474.913 586.158L467.106 589.131H459.67L459.298 283.597V282.11L459.878 281.263L463.388 276.163L467.336 274.951L473.054 273.189L473.114 283.597L474.913 586.158Z" fill="#F5C5CC"/>
<path d="M474.913 586.158L467.106 589.131L466.622 282.712L467.336 274.951L473.054 273.189L474.913 586.158Z" fill="#CC929B"/>
<path opacity="0.1" d="M473.054 273.189L473.114 283.597C470.962 283.911 468.795 284.115 466.623 284.207C461.269 284.415 459.298 283.604 459.298 283.604C459.298 283.5 459.507 282.668 459.878 281.278L463.388 276.178L467.336 274.966L473.054 273.189Z" fill="black"/>
<path opacity="0.1" d="M483.092 270.959L483.241 281.642C481.323 282.088 479.543 282.469 477.902 282.787V275.048L483.092 270.959Z" fill="black"/>
<path opacity="0.1" d="M496.849 268.729L496.975 277.806C495.124 278.393 493.347 278.928 491.659 279.419V272.818L496.849 268.729Z" fill="black"/>
<path opacity="0.1" d="M510.605 259.437L510.798 273.011C508.939 273.7 507.147 274.351 505.422 274.966V263.525L510.605 259.437Z" fill="black"/>
<path opacity="0.1" d="M523.989 253.861L524.182 267.748L519.899 269.472L518.806 269.911V257.95L523.989 253.861Z" fill="black"/>
<path opacity="0.1" d="M556.156 254.612L550.78 256.842V244.948L555.985 240.859L556.156 254.612Z" fill="black"/>
<path opacity="0.1" d="M539.292 261.585L533.931 263.815V253.021L539.136 248.933L539.292 261.585Z" fill="black"/>
<path d="M596.859 246.427C596.859 246.427 583.103 246.427 579.385 245.312C575.668 244.197 567.86 248.657 519.9 267.986C490.9 279.679 474.802 282.393 466.623 282.712C461.269 282.92 459.298 282.11 459.298 282.11C459.298 282.11 469.091 237.194 500.277 228.801C503.754 227.854 507.173 226.705 510.516 225.359L511.118 225.129C513.737 224.115 516.423 223.283 519.156 222.639C529.165 220.342 536.31 215.948 554.401 215.814C565.626 215.626 576.581 219.26 585.468 226.118C591.669 230.994 597.016 237.737 596.859 246.427Z" fill="#CC929B"/>
<path d="M512.464 224.869C473.872 241.506 467.983 272.602 466.623 282.712C461.269 282.92 459.298 282.11 459.298 282.11C459.298 282.11 469.091 237.194 500.277 228.801C503.754 227.855 507.173 226.705 510.516 225.36L511.118 225.129C511.564 225.062 512.01 224.973 512.464 224.869Z" fill="#F5C5CC"/>
<path opacity="0.1" d="M205.368 224.125L205.45 229.82C203.568 230.288 201.813 230.697 200.17 231.046V228.214L205.368 224.125Z" fill="black"/>
<path opacity="0.1" d="M219.124 221.895L219.176 225.813C217.347 226.418 215.594 226.97 213.919 227.471V225.984L219.124 221.895Z" fill="black"/>
<path opacity="0.1" d="M232.88 212.603L232.999 220.899C231.17 221.598 229.398 222.257 227.682 222.877V216.692L232.88 212.603Z" fill="black"/>
<path opacity="0.1" d="M246.264 207.027L246.383 215.636C244.673 216.295 242.903 216.991 241.074 217.725V211.116L246.264 207.027Z" fill="black"/>
<path opacity="0.1" d="M259.277 203.31L259.381 210.938C257.695 211.503 255.928 212.117 254.079 212.781V207.399L259.277 203.31Z" fill="black"/>
<path opacity="0.1" d="M278.238 194.018L278.402 205.6C276.758 205.942 274.981 206.344 273.048 206.842V198.107L278.238 194.018Z" fill="black"/>
<path opacity="0.1" d="M298.21 205.451C296.46 204.792 294.625 204.387 292.76 204.247V190.643L297.965 186.554L298.21 205.451Z" fill="black"/>
<path d="M316.904 205.541C316.904 205.541 303.148 205.541 299.43 204.426C295.712 203.31 287.904 197.363 239.944 216.692C210.944 228.385 194.846 231.098 186.667 231.418C181.313 231.626 179.343 230.816 179.343 230.816C179.343 230.816 186.726 191.788 219.287 185.201C221.104 184.847 222.899 184.388 224.663 183.826C226.664 183.172 229.816 182.235 234.055 181.261C244.985 178.749 263.106 175.991 287.19 177.158C295.538 177.47 303.455 180.941 309.342 186.867C311.804 189.303 313.745 192.215 315.045 195.426C316.345 198.636 316.978 202.078 316.904 205.541Z" fill="#CC929B"/>
<path d="M234.055 181.261C195.463 197.899 188.027 221.308 186.667 231.418C181.313 231.626 179.343 230.816 179.343 230.816C179.343 230.816 186.726 191.788 219.287 185.201C221.104 184.847 222.899 184.388 224.663 183.826C226.664 183.15 229.816 182.235 234.055 181.261Z" fill="#F5C5CC"/>
<path d="M190.124 289.73L189.938 278.765L193.842 276.72L460.785 336.564L460.042 350.502L190.124 289.73Z" fill="#F5C5CC"/>
<path d="M193.842 276.72L460.785 336.564L460.414 341.767L190.519 278.46" fill="#CC929B"/>
<path d="M586.449 550.475C591.377 550.475 595.372 546.481 595.372 541.554C595.372 536.627 591.377 532.633 586.449 532.633C581.521 532.633 577.526 536.627 577.526 541.554C577.526 546.481 581.521 550.475 586.449 550.475Z" fill="#40414D"/>
<path d="M468.221 601.025C473.149 601.025 477.144 597.032 477.144 592.105C477.144 587.178 473.149 583.184 468.221 583.184C463.293 583.184 459.298 587.178 459.298 592.105C459.298 597.032 463.293 601.025 468.221 601.025Z" fill="#40414D"/>
<path d="M200.289 408.732C200.289 408.732 192.355 417.653 189.879 425.585C187.403 433.517 192.853 463.253 192.853 463.253C195.647 458.305 197.654 452.953 198.802 447.389C200.78 437.977 200.289 408.732 200.289 408.732Z" fill="#46B04B"/>
<path d="M576.783 482.826C576.783 482.826 581.616 507.358 581.988 511.075C582.36 514.792 569.719 509.217 569.719 509.217L576.783 482.826Z" fill="#46B04B"/>
<path d="M430.299 179.291H430.172C430.142 179.039 430.047 178.798 429.897 178.593C429.558 178.196 429.137 177.876 428.663 177.656L425.176 175.716L428.187 176.809C428.046 176.566 427.889 176.333 427.719 176.11L428.068 176.303L427.83 175.968L427.51 175.857C425.904 173.976 423.227 173.196 420.632 173.233H420.677C421.012 173.188 421.354 173.158 421.688 173.136C420.944 173.09 420.197 173.112 419.457 173.203C419.541 173.239 419.628 173.264 419.718 173.277C419.48 173.277 419.242 173.322 418.974 173.352C418.592 173.455 418.189 173.455 417.807 173.352C417.571 173.232 417.367 173.059 417.211 172.846C417.055 172.632 416.95 172.386 416.907 172.125C416.535 170.638 417.123 169.04 417.294 167.486C417.377 166.757 417.299 166.018 417.063 165.323C417.063 165.174 417.063 165.026 417.063 164.877C416.94 164.548 416.742 164.253 416.483 164.015C416.225 163.777 415.914 163.604 415.576 163.509C415.572 163.566 415.572 163.623 415.576 163.68L415.45 163.628C415.45 164.959 415.45 166.297 415.45 167.628C414.295 166.717 413.271 165.652 412.408 164.461C412.254 164.28 412.149 164.062 412.104 163.829C412.029 163.152 412.892 162.684 412.944 162C412.941 161.78 412.867 161.568 412.733 161.393C412.599 161.219 412.412 161.093 412.2 161.034L412.423 160.952C412.158 160.829 411.866 160.778 411.576 160.803C410.939 160.948 410.313 161.137 409.702 161.368L409.895 161.405C409.751 161.453 409.605 161.493 409.456 161.524C407.59 161.911 405.924 160.424 404.579 159.079L404.289 158.789C403.649 153.191 402.616 146.775 402.616 146.775C402.616 146.775 401.686 139.446 400.385 135.506C399.084 131.566 397.21 124.607 397.21 124.607C397.21 124.607 392.927 116.155 392.005 115.783C391.645 115.604 391.295 115.405 390.956 115.189C390.554 113.924 390.304 112.617 390.213 111.293C389.982 103.904 397.879 98.6556 399.069 91.3332C400.043 85.3861 396.295 79.4389 396.838 73.41C397.091 70.771 398.154 68.288 398.727 65.701C399.27 63.1914 399.343 60.6027 398.942 58.0664C398.753 56.7026 398.341 55.3791 397.723 54.1487C398.804 52.7526 399.705 51.2266 400.407 49.6066C401.612 46.1721 400.31 42.3362 398.429 39.1991C392.384 29.2153 380.137 21.3576 368.686 20.3392C364.069 19.9155 359.436 19.8337 354.811 19.7593C349.502 19.6627 344.014 19.6032 339.107 21.655C329.351 25.7362 324.734 36.6418 318.807 45.4436C313.912 52.723 307.643 58.9778 300.352 63.8574C296.924 66.1471 292.916 68.5854 292.113 72.6517C292.037 73.0417 291.989 73.4368 291.972 73.8337C291.871 73.4764 291.79 73.1141 291.726 72.7484C290.916 76.9932 293.912 80.9257 295.444 84.9772C296.244 87.0946 296.706 89.3249 296.812 91.586C296.872 90.5163 296.872 89.4442 296.812 88.3745C298.3 96.0909 295.571 104.372 293.883 112.26C293.756 112.84 293.66 113.419 293.541 113.999C292.155 114.385 290.837 114.98 289.629 115.761C286.982 117.523 283.983 118.69 280.84 119.181C276.625 119.843 272.832 122.12 270.267 125.529C269.791 126.169 269.33 126.607 268.928 126.652C267.255 126.845 257.931 155.956 257.931 155.956C257.931 155.956 255.99 167.947 255.99 170.757C255.99 173.567 252.637 193.862 252.637 193.862C252.637 193.862 251.514 197.579 251.893 199.118C252.109 199.973 251.596 202.835 251.112 205.139C250.91 205.055 250.731 204.922 250.592 204.753C250.034 203.63 239.773 204.753 242.948 212.268C243.737 214.29 244.964 216.113 246.539 217.606C245.127 221.144 243.9 224.438 244.063 224.854C244.063 224.854 244.063 227.538 244.301 230.853C242.122 232.34 240.338 233.678 240.338 233.678C240.182 237.782 242.918 238.436 245.491 238.287C246.153 240.666 247.119 242.554 248.54 243.067C253.202 244.762 256.183 244.011 257.678 245.297C259.173 246.583 267.144 249.081 267.144 249.081C270.529 249.591 273.94 249.916 277.36 250.055L278.729 250.739L278.565 249.996C279.004 249.914 278.803 249.393 278.253 248.509C278.007 247.371 277.695 245.885 277.346 244.19L279.39 243.446L279.948 244.271C279.205 248.167 278.729 250.761 278.729 250.761C278.729 250.761 275.011 264.098 276.676 266.164C278.342 268.231 276.676 270.863 276.676 270.863C276.676 270.863 276.305 274.238 277.241 274.238C278.178 274.238 279.286 278.557 278.357 278.75C277.427 278.943 273.152 282.504 274.639 283.255C276.126 284.006 274.639 285.693 274.639 287.388C274.639 288.622 276.914 290.451 278.149 291.35C277.926 292.153 277.695 293.008 277.479 293.848C276.84 296.331 276.342 298.725 276.498 299.595C276.87 301.661 275.568 307.482 275.94 309.363C276.312 311.244 277.621 315.37 276.684 317.064C275.747 318.759 276.87 324.387 276.87 324.387L278.55 340.347C278.55 340.347 277.435 344.86 278.55 345.982C279.666 347.105 280.602 360.263 281.718 361.765C282.833 363.266 284.521 371.154 283.205 373.785C281.889 376.417 284.885 381.859 284.885 381.859C284.885 381.859 284.7 388.244 284.7 389.932C284.7 391.619 286.373 394.251 286.373 394.251C286.373 394.251 288.053 403.268 287.86 405.521C287.666 407.773 288.975 410.97 288.975 410.97C288.975 410.97 290.098 417.541 289.912 419.043C289.726 420.545 291.399 422.611 291.399 422.611C291.399 422.611 293.451 427.495 292.886 429.562C292.321 431.629 294.188 433.695 294.188 433.695C294.188 433.695 294.002 438.2 294.002 438.765C294.002 439.33 297.92 443.835 297.92 443.835C297.92 443.835 296.24 447.218 297.177 448.533C298.114 449.849 297.92 454.54 299.407 456.049C300.895 457.558 300.523 463.743 302.382 464.873C304.241 466.003 305.921 466.94 306.293 469.378C306.665 471.816 308.159 475.392 309.84 475.957C310.159 476.176 310.436 476.451 310.658 476.767L309.914 479.927L307.616 489.479C307.616 489.479 305.386 503.373 305.564 505.44C305.743 507.507 303.334 509.573 303.334 509.573C303.334 509.573 301.281 521.594 300.909 523.096C300.538 524.597 301.095 527.415 301.095 527.415C301.095 527.415 299.794 534.551 300.724 534.931C301.653 535.31 305.572 539.25 305.572 539.25H305.877L305.475 540.662L299.043 563.484C299.043 563.484 293.094 573.438 306.88 578.508C307.341 579.4 307.765 579.423 307.267 579.252C307.721 579.638 316.933 587.429 317.677 591.079C318.421 594.729 324.763 598.587 327.001 598.966C329.24 599.345 344.156 611.359 349.562 599.531C354.967 587.704 340.051 579.995 340.051 579.995L328.697 572.687C328.697 572.687 322.919 564.235 322.005 562.733C321.09 561.232 319.395 553.902 320.517 552.779C321.09 552.2 322.882 547.055 324.503 542.164C324.652 541.695 324.808 541.234 324.957 540.774C328.124 541.517 331.708 540.03 331.708 540.03L340.014 526.932L341.501 524.635L341.769 525.17C341.769 525.17 348.669 525.735 352.023 526.3C353.088 526.343 354.154 526.21 355.175 525.906C355.302 526.181 355.428 526.463 355.547 526.746C356.361 528.487 357.052 530.283 357.614 532.12C358.172 534.559 358.737 543.197 358.737 543.197C358.737 543.197 355.019 555.597 354.075 557.849C353.131 560.102 355.004 578.887 373.467 571.372C373.467 571.372 375.698 567.803 377.75 567.803C379.803 567.803 384.837 562.733 382.955 557.284C381.074 551.835 373.289 535.124 378.672 526.3C383.015 519.193 382.665 509.663 376.828 505.232C376.583 505.046 376.323 504.883 376.085 504.719C376.148 503.773 376.148 502.825 376.085 501.879C374.776 483.852 366.418 482.908 366.418 482.908C366.418 482.908 361.57 481.785 361.013 479.934C360.685 478.849 356.484 473.244 353.004 468.687C353.123 468.493 353.235 468.3 353.346 468.107C353.346 468.04 353.421 467.973 353.45 467.906C353.614 467.601 353.77 467.289 353.919 466.962C356.625 460.881 355.927 452.035 355.785 450.451C355.599 448.385 355.785 445.753 355.785 442.75C355.785 439.747 358.759 435.234 358.395 433.547C358.031 431.859 361.942 424.908 361.942 423.213C361.942 421.519 364.686 411.371 364.686 411.371C364.686 411.371 370.092 399.722 371.214 396.34C372.285 393.099 391.38 334.014 392.927 329.226C392.955 329.12 392.99 329.016 393.031 328.914C393.031 328.914 399.128 308.969 395.046 295.87C394.781 295.006 394.461 294.159 394.087 293.335C395.336 292.733 396.198 292.295 396.198 292.295C396.198 292.295 393.774 285.158 394.89 282.526C396.005 279.895 395.262 274.825 395.262 274.825C395.262 274.825 390.8 272.193 390.607 271.071C390.413 269.948 388.555 268.439 389.12 266.937C389.685 265.436 392.837 266.194 392.473 262.804C392.109 259.414 388.19 255.853 388.562 253.787C388.934 251.72 390.421 247.966 388.562 245.714C386.703 243.461 385.952 239.893 385.766 237.075C385.714 236.332 385.878 234.139 386.138 231.247C388.126 232.484 390.178 233.613 392.287 234.63C392.287 234.63 400.303 235.76 400.682 235.009C401.399 234.052 402.211 233.17 403.106 232.377C413.174 229.939 408.698 211.562 408.698 211.562C408.698 211.562 408.549 210.217 408.311 208.001C408.564 207.937 408.802 207.824 409.01 207.667C409.865 207.042 410.074 205.853 410.594 204.916C411.186 204.031 411.88 203.217 412.661 202.493C414.505 200.486 415.598 197.921 416.654 195.401C417.323 193.795 418.007 192.189 418.684 190.576C419.361 188.963 420.171 187.038 421.658 185.87C423.369 184.495 425.689 184.228 427.867 184.027C427.78 182.359 427.156 180.763 426.09 179.477C426.745 179.277 427.436 179.226 428.114 179.329C428.791 179.432 429.436 179.686 430.001 180.072C430.032 180.022 430.059 179.969 430.083 179.916H430.128C430.252 179.732 430.312 179.513 430.299 179.291ZM271.077 230.727C271.122 230.355 271.189 229.983 271.271 229.612C271.635 229.27 272.074 228.868 272.542 228.497L275.145 228.749C274.505 229.27 273.947 229.746 273.494 230.132C272.691 229.723 271.813 230.125 271.077 230.727ZM276.282 225.575C276.651 225.548 277.013 225.471 277.36 225.345C277.859 225.345 278.372 225.345 278.892 225.345H279.636C278.394 226.214 277.137 227.181 276.022 228.08L276.282 225.635V225.575ZM280.573 187.662C280.573 187.662 280.402 193 280.781 198.367C280.201 198.776 279.599 199.222 279.004 199.69L280.32 187.313L280.573 187.662Z" fill="url(#paint0_linear)"/>
<path d="M377.691 567.015C375.646 567.015 373.415 570.546 373.415 570.546C355.012 577.98 353.153 559.395 354.082 557.165C355.012 554.935 358.73 542.669 358.73 542.669C358.73 542.669 358.172 534.12 357.614 531.704C357.051 529.887 356.362 528.111 355.555 526.389C354.306 523.542 352.967 520.739 352.967 520.739C352.967 520.739 360.96 501.039 371.556 502.898C373.445 503.214 375.23 503.978 376.761 505.128C382.584 509.514 382.933 518.947 378.598 525.943C373.207 534.678 381.015 551.218 382.874 556.608C384.733 561.997 379.736 567.015 377.691 567.015Z" fill="#FDC2CC"/>
<path d="M349.621 598.424C344.23 610.132 329.359 598.238 327.128 597.866C324.897 597.494 318.577 593.777 317.833 590.061C317.09 586.344 307.892 578.739 307.423 578.36C307.922 578.516 307.498 578.493 307.037 577.616C293.281 572.598 299.229 562.748 299.229 562.748L305.639 540.164L307.408 533.942L327.485 532.641C327.485 532.641 326.109 537.034 324.578 541.651C322.964 546.49 321.179 551.583 320.607 552.155C319.492 553.27 321.165 560.518 322.094 562.005C323.023 563.492 328.786 571.855 328.786 571.855L340.126 579.103C340.126 579.103 355.012 586.715 349.621 598.424Z" fill="#FDC2CC"/>
<path opacity="0.1" d="M327.5 532.633C327.5 532.633 326.124 537.027 324.592 541.643C323.544 541.342 322.612 540.727 321.923 539.881L305.75 540.253L305.654 540.156L307.423 533.934L327.5 532.633Z" fill="black"/>
<path d="M392.934 330.616C392.934 330.616 392.934 330.721 392.838 330.921C391.291 335.657 372.255 394.11 371.185 397.336C370.069 400.681 364.678 412.204 364.678 412.204C364.678 412.204 361.89 422.24 361.89 423.912C361.89 425.585 357.986 432.461 358.358 434.134C358.73 435.807 355.756 440.267 355.756 443.24C355.756 446.214 355.57 448.816 355.756 450.86C355.897 452.429 356.588 461.186 353.889 467.215C353.301 468.618 352.427 469.884 351.324 470.932C351.024 471.204 350.703 471.452 350.365 471.675C343.672 476.136 343.115 521.854 343.115 521.854L342.803 522.345L340.088 526.597L331.775 539.532C331.775 539.532 325.083 542.32 321.923 538.417L305.75 538.789C305.75 538.789 301.846 534.886 300.917 534.514C299.988 534.142 301.289 527.08 301.289 527.08C301.289 527.08 300.731 524.293 301.103 522.806C301.475 521.319 303.519 509.425 303.519 509.425C303.519 509.425 305.936 507.38 305.75 505.336C305.564 503.292 307.795 489.539 307.795 489.539L310.085 480.09L311.215 475.429L313.558 465.765L329.359 326.193L349.435 320.06L388.101 321.919L392.339 329.576L392.934 330.616Z" fill="#5F5D7E"/>
<path opacity="0.1" d="M338.467 399.194C338.281 402.726 337.352 408.115 337.724 411.275C338.096 414.434 339.397 426.328 338.839 428.558C338.281 430.789 340.884 433.391 341.813 434.506C342.743 435.621 342.185 438.966 342.371 441.568C342.557 444.17 344.974 446.586 344.974 446.586C344.974 446.586 342.185 452.533 344.23 453.462C346.275 454.391 350.55 462.94 350.55 462.94C350.55 462.94 351.985 464.747 353.889 467.2C353.161 468.991 351.939 470.538 350.364 471.66C343.672 476.121 343.115 521.839 343.115 521.839L342.802 522.33L338.653 514.034C338.653 514.034 313.929 476.678 312.256 476.121C311.853 475.963 311.495 475.707 311.215 475.377L313.558 465.713L329.359 326.141L349.435 320.008L388.101 321.867L367.742 323.911C367.742 323.911 358.692 330.401 358.633 330.602L342.371 337.478L339.397 382.082C339.397 382.082 338.653 395.663 338.467 399.194Z" fill="black"/>
<path opacity="0.1" d="M392.339 329.539C391.826 331.605 338.282 325.413 338.282 325.413L338.653 339.723L335.679 384.327C335.679 384.327 334.935 397.894 334.75 401.425C334.564 404.956 333.634 410.345 334.006 413.505C334.378 416.664 335.679 428.558 335.121 430.789C334.564 433.019 337.166 435.621 338.096 436.736C339.025 437.851 338.467 441.196 338.653 443.798C338.839 446.4 341.256 448.816 341.256 448.816C341.256 448.816 338.467 454.763 340.512 455.692C342.557 456.622 346.833 465.171 346.833 465.171C346.833 465.171 348.877 467.75 351.294 470.917C350.994 471.189 350.673 471.437 350.335 471.66C343.643 476.121 343.085 521.839 343.085 521.839L342.773 522.33L340.088 526.597L334.935 516.301C334.935 516.301 315.863 487.48 310.085 480.09L311.215 475.429L313.558 465.765L329.359 326.193L349.435 320.06L388.101 321.919L392.339 329.539Z" fill="black"/>
<path opacity="0.1" d="M376.784 505.098C376.04 518.405 362.016 524.917 355.555 526.389C354.306 523.542 352.967 520.739 352.967 520.739C352.967 520.739 360.96 501.039 371.556 502.898C373.45 503.201 375.243 503.956 376.784 505.098Z" fill="black"/>
<path d="M336.237 399.194C336.051 402.726 335.121 408.115 335.493 411.275C335.865 414.434 337.166 426.328 336.608 428.559C336.051 430.789 338.653 433.391 339.583 434.506C340.512 435.621 339.954 438.966 340.14 441.568C340.326 444.17 342.743 446.586 342.743 446.586C342.743 446.586 339.954 452.533 341.999 453.462C344.044 454.391 348.32 462.94 348.32 462.94C348.32 462.94 360.403 478.18 360.96 480.038C361.518 481.897 366.351 483.012 366.351 483.012C366.351 483.012 374.717 483.941 376.018 501.783C377.319 519.624 355.384 526.501 352.038 525.943C348.691 525.385 341.813 524.828 341.813 524.828L336.423 514.049C336.423 514.049 311.699 476.693 310.026 476.136C308.353 475.578 306.865 472.047 306.494 469.631C306.122 467.215 304.449 466.286 302.59 465.171C300.731 464.056 301.103 457.923 299.616 456.436C298.128 454.949 298.314 450.303 297.385 449.002C296.455 447.701 298.128 444.356 298.128 444.356C298.128 444.356 294.225 439.895 294.225 439.338C294.225 438.78 294.411 434.32 294.411 434.32C294.411 434.32 292.552 432.275 293.109 430.231C293.667 428.187 291.622 423.355 291.622 423.355C291.622 423.355 289.949 421.31 290.135 419.824C290.321 418.337 289.206 411.832 289.206 411.832C289.206 411.832 287.904 408.673 288.09 406.443C288.276 404.212 286.603 395.292 286.603 395.292C286.603 395.292 284.93 392.69 284.93 391.017C284.93 389.345 285.116 383.026 285.116 383.026C285.116 383.026 282.142 377.636 283.443 375.034C284.744 372.432 283.071 364.627 281.956 363.14C280.84 361.653 279.911 348.644 278.796 347.529C277.68 346.414 278.796 341.953 278.796 341.953L277.123 326.156C277.123 326.156 276.007 320.581 276.937 318.908C277.866 317.235 276.565 313.147 276.193 311.288C275.821 309.43 277.123 303.669 276.751 301.624C276.595 300.762 277.093 298.398 277.725 295.937C278.602 292.547 279.725 288.987 279.725 288.987C279.725 288.987 375.274 280.066 389.03 289.358C392.005 291.351 393.841 294.376 394.979 297.915C399.046 310.879 392.964 330.624 392.964 330.624L340.17 337.5L337.196 382.104C337.196 382.104 336.423 395.663 336.237 399.194Z" fill="#5F5D7E"/>
<path opacity="0.1" d="M320.993 465.357C320.993 465.357 337.538 460.339 341.442 463.684C345.345 467.029 320.993 465.357 320.993 465.357Z" fill="black"/>
<path opacity="0.1" d="M326.942 486.543C326.942 486.543 331.961 481.153 339.397 482.826C343.759 483.842 348.335 483.385 352.41 481.525L326.942 486.543Z" fill="black"/>
<path opacity="0.1" d="M344.416 492.676C344.416 492.676 357.986 490.818 358.544 492.49C359.102 494.163 344.416 492.676 344.416 492.676Z" fill="black"/>
<path opacity="0.1" d="M340.512 503.641C340.512 503.641 355.569 499.181 356.313 501.039C357.057 502.898 339.769 503.455 339.769 503.455L340.512 503.641Z" fill="black"/>
<path opacity="0.1" d="M357.428 403.469C357.428 403.469 343.301 415.921 345.345 417.222C347.39 418.523 357.428 403.469 357.428 403.469Z" fill="black"/>
<path opacity="0.1" d="M345.903 434.32C345.903 434.32 355.755 434.32 353.897 436.55C352.038 438.78 345.903 434.32 345.903 434.32Z" fill="black"/>
<path opacity="0.1" d="M351.852 443.055C351.852 443.055 347.948 446.4 348.877 447.143C349.807 447.887 351.852 443.055 351.852 443.055Z" fill="black"/>
<path opacity="0.1" d="M308.91 522.783C308.91 522.783 321.179 526.872 321.365 529.474C321.551 532.076 308.91 522.783 308.91 522.783Z" fill="black"/>
<path d="M368.396 134.175L364.493 157.406C364.493 157.406 330.66 175.247 330.102 175.247C329.545 175.247 305.378 171.159 304.449 171.159C303.52 171.159 287.719 123.396 298.872 120.422C301.891 119.619 306.271 117.687 311.052 115.285C323.945 108.84 339.769 99.0497 339.769 99.0497C339.769 99.0497 363.377 96.4478 357.615 112.802C355.384 119.218 356.529 123.886 358.782 127.195C362.321 132.324 368.396 134.175 368.396 134.175Z" fill="#FDC2CC"/>
<path opacity="0.1" d="M368.396 134.175L364.493 157.406C364.493 157.406 330.66 175.247 330.102 175.247C329.545 175.247 305.378 171.159 304.449 171.159C303.52 171.159 287.719 123.396 298.872 120.422C301.891 119.619 306.271 117.687 311.052 115.285C314.093 115.486 316.16 115.776 316.16 115.776C316.16 115.776 323.596 144.211 324.154 152.946C324.711 161.681 344.044 162.61 345.346 162.238C346.647 161.866 352.038 140.494 352.038 140.494C352.038 140.494 351.48 133.06 353.153 133.06C354.551 133.06 357.778 128.6 358.782 127.195C362.321 132.324 368.396 134.175 368.396 134.175Z" fill="black"/>
<path opacity="0.1" d="M394.949 297.915C392.362 299.178 386.175 302.063 384.539 301.632C382.494 301.074 377.475 301.074 377.475 301.074C377.475 301.074 374.501 304.419 371.341 303.676C368.181 302.932 355.726 303.49 355.726 303.49C355.726 303.49 333.419 304.419 329.143 302.932C324.867 301.446 309.624 300.145 309.624 300.145C309.624 300.145 288.804 297.729 285.272 296.242C284.276 295.807 283.182 295.647 282.104 295.778C281.025 295.909 280.001 296.326 279.138 296.985C279.138 296.985 278.491 296.562 277.695 295.945C278.572 292.555 279.695 288.994 279.695 288.994C279.695 288.994 375.245 280.073 389.001 289.366C391.975 291.35 393.841 294.376 394.949 297.915Z" fill="black"/>
<path d="M316.16 117.263C316.16 117.263 297.385 114.661 289.949 119.679C287.307 121.423 284.319 122.577 281.19 123.061C276.994 123.711 273.215 125.963 270.646 129.343C270.17 129.982 269.709 130.413 269.315 130.458C267.642 130.644 258.347 159.45 258.347 159.45L280.841 190.859C280.841 190.859 280.283 208.328 283.443 211.674C286.603 215.019 278.982 253.304 278.982 253.304C278.982 253.304 275.264 266.499 276.937 268.543C278.61 270.587 276.937 273.189 276.937 273.189C276.937 273.189 276.565 276.535 277.494 276.535C278.424 276.535 279.539 280.809 278.61 280.995C277.68 281.181 273.405 284.712 274.892 285.455C276.379 286.199 274.892 287.871 274.892 289.544C274.892 291.217 279.167 294.004 279.167 294.004C280.031 293.345 281.055 292.928 282.133 292.797C283.212 292.666 284.306 292.826 285.302 293.261C288.834 294.748 309.654 297.164 309.654 297.164C309.654 297.164 324.897 298.465 329.173 299.951C333.448 301.438 355.756 300.509 355.756 300.509C355.756 300.509 368.21 299.951 371.371 300.695C374.531 301.438 377.505 298.093 377.505 298.093C377.505 298.093 382.524 298.093 384.569 298.651C386.614 299.208 396.094 294.376 396.094 294.376C396.094 294.376 393.678 287.314 394.793 284.712C395.909 282.11 395.165 277.092 395.165 277.092C395.165 277.092 390.704 274.49 390.518 273.375C390.332 272.26 388.473 270.773 389.031 269.287C389.588 267.8 392.748 268.543 392.377 265.198C392.005 261.853 388.101 258.321 388.473 256.277C388.845 254.233 390.332 250.516 388.473 248.286C386.614 246.055 385.87 242.524 385.684 239.737C385.499 236.949 388.473 211.674 388.473 211.674L381.595 160.751L402.601 150.344C402.601 150.344 401.671 143.096 400.37 139.193C399.069 135.29 397.21 128.414 397.21 128.414C397.21 128.414 392.934 120.05 392.005 119.679C391.075 119.307 381.223 112.802 378.992 113.732C376.762 114.661 359.102 128.228 359.102 128.228C359.102 128.228 354.826 134.547 353.153 134.547C351.48 134.547 352.038 141.981 352.038 141.981C352.038 141.981 346.647 163.353 345.346 163.725C344.044 164.096 324.711 163.167 324.154 154.432C323.596 145.697 316.16 117.263 316.16 117.263Z" fill="#D39999"/>
<path d="M287.012 227.144C284.433 227.711 281.807 228.034 279.168 228.11C275.353 228.214 271.999 227.731 271.174 226.356C268.943 222.639 268.943 215.576 268.943 215.576C268.943 215.576 279.026 217.903 285.986 220.446L287.139 220.877C289.838 221.925 291.89 222.995 292.344 223.932C292.991 225.188 290.5 226.363 287.012 227.144Z" fill="#FDC2CC"/>
<path opacity="0.1" d="M360.031 123.768C378.819 123.768 394.05 108.541 394.05 89.7573C394.05 70.974 378.819 55.7471 360.031 55.7471C341.243 55.7471 326.013 70.974 326.013 89.7573C326.013 108.541 341.243 123.768 360.031 123.768Z" fill="black"/>
<path d="M360.031 122.281C378.819 122.281 394.05 107.054 394.05 88.2705C394.05 69.4871 378.819 54.2603 360.031 54.2603C341.243 54.2603 326.013 69.4871 326.013 88.2705C326.013 107.054 341.243 122.281 360.031 122.281Z" fill="#FDC2CC"/>
<path opacity="0.1" d="M284.744 271.888C284.744 271.888 294.411 271.888 298.128 272.818C301.846 273.747 309.654 273.933 309.654 273.933C309.654 273.933 288.09 273.189 284.744 271.888Z" fill="black"/>
<path opacity="0.1" d="M285.116 277.836C285.116 277.836 297.571 278.765 297.757 280.623C297.943 282.482 285.116 277.836 285.116 277.836Z" fill="black"/>
<path opacity="0.1" d="M379.922 254.976C379.922 254.976 387.543 257.764 387.357 258.693C387.171 259.622 380.665 257.206 379.922 254.976Z" fill="black"/>
<path d="M263.181 156.105L258.347 159.45C258.347 159.45 256.302 171.345 256.302 174.132C256.302 176.92 252.956 196.992 252.956 196.992C252.956 196.992 251.841 200.709 252.213 202.195C252.585 203.682 250.726 211.302 250.726 211.302C250.726 211.302 244.034 226.727 244.405 227.657C244.777 228.586 276.193 231.559 276.193 231.559L280.655 189.929L263.181 156.105Z" fill="#D39999"/>
<path d="M249.053 222.639L244.405 227.657C244.405 227.657 244.219 244.011 248.867 245.684C253.514 247.356 256.488 246.613 257.976 247.914C259.463 249.215 267.456 251.631 267.456 251.631C267.456 251.631 276.193 252.932 278.796 252.56C281.398 252.189 263.552 237.878 275.264 225.798L249.053 222.639Z" fill="#D39999"/>
<path d="M396.094 143.096L402.601 150.344C402.601 150.344 405.389 167.628 404.645 170.044C403.902 172.46 408.549 214.461 408.549 214.461C408.549 214.461 413.011 232.675 402.972 235.091C402.081 235.874 401.271 236.746 400.556 237.692C400.184 238.436 392.191 237.321 392.191 237.321L379.922 156.848L396.094 143.096Z" fill="#D39999"/>
<path opacity="0.1" d="M307.609 209.629C307.609 209.629 331.961 195.133 336.423 194.39C340.884 193.646 368.582 180.451 368.582 180.451C368.582 180.451 382.338 187.513 383.639 192.903C384.941 198.293 377.877 219.851 377.877 219.851C377.877 219.851 355.198 235.648 353.896 238.993C352.595 242.339 333.076 252.189 333.076 253.861C333.076 255.534 302.218 273.747 288.648 257.764C275.078 241.781 275.264 237.135 275.264 237.135L309.654 229.143L313 214.276L307.609 209.629Z" fill="black"/>
<path d="M307.609 208.143C307.609 208.143 331.961 193.646 336.423 192.903C340.884 192.16 368.582 178.964 368.582 178.964C368.582 178.964 382.338 186.027 383.639 191.416C384.941 196.806 377.877 218.364 377.877 218.364C377.877 218.364 355.198 234.161 353.896 237.507C352.595 240.852 333.076 250.702 333.076 252.374C333.076 254.047 302.218 272.26 288.648 256.277C275.078 240.294 275.264 235.648 275.264 235.648L309.654 227.657L313 212.789L307.609 208.143Z" fill="#C4C8E2"/>
<path d="M270.059 214.647L268.943 223.94L260.102 223.293L251.469 222.654C251.469 222.654 246.45 222.654 243.29 215.22C240.13 207.786 250.354 206.671 250.912 207.786C251.335 208.626 262.065 212.127 267.27 213.785L270.059 214.647Z" fill="#FDC2CC"/>
<path opacity="0.1" d="M270.059 214.647L268.943 223.94L260.102 223.293C261.545 221.152 264.563 217.234 267.278 213.785L270.059 214.647Z" fill="black"/>
<path opacity="0.1" d="M268.943 215.576C268.943 215.576 279.026 217.903 285.986 220.446C285.525 221.189 282.447 226.006 279.168 228.11C275.353 228.214 271.999 227.731 271.174 226.356C268.943 222.639 268.943 215.576 268.943 215.576Z" fill="black"/>
<path opacity="0.1" d="M287.012 227.144L286.848 225.858C286.848 225.858 286.774 225.582 286.707 225.166C286.573 224.319 286.477 222.891 287.101 222.022C287.466 221.509 287.384 221.144 287.146 220.884C289.845 221.932 291.897 223.003 292.351 223.94C292.99 225.188 290.499 226.363 287.012 227.144Z" fill="black"/>
<path d="M318.577 221.063C318.577 221.063 308.479 231.165 307.855 233.329C307.23 235.492 288.15 235.559 288.15 235.559L286.849 225.151C286.849 225.151 286.774 224.876 286.707 224.46C286.573 223.613 286.477 222.185 287.101 221.315C288.031 220.015 286.046 219.643 286.046 219.643C286.046 219.643 280.9 228.125 276.565 228.378C276.565 228.378 270.557 232.712 270.616 233.581C270.616 233.581 267.702 236.243 267.642 239.462C267.583 242.681 263.865 243.989 261.136 243.06C258.407 242.13 251.655 240.146 249.484 240.458C247.313 240.77 240.442 242.807 240.688 236.429C240.688 236.429 249.61 229.738 251.841 229.924C254.072 230.11 259.277 227.508 260.02 225.464C260.764 223.419 273.405 207.808 273.405 207.808C273.405 207.808 281.398 200.248 284.618 199.504C284.618 199.504 291.065 194.486 300.791 202.106C300.791 202.106 314.242 210.402 314.673 211.518C315.015 212.395 318.919 216.141 319.246 218.951C319.322 219.331 319.3 219.724 319.183 220.093C319.066 220.462 318.857 220.796 318.577 221.063Z" fill="#FDC2CC"/>
<path opacity="0.1" d="M287.034 206.284C287.034 206.284 288.023 211.986 287.533 214.03C287.042 216.075 286.045 219.606 286.045 219.606C286.045 219.606 292.053 210.187 287.034 206.284Z" fill="black"/>
<path opacity="0.1" d="M287.466 220.163C287.466 220.163 290.566 216.751 291.25 217.621C291.934 218.491 287.466 220.163 287.466 220.163Z" fill="black"/>
<path d="M414.409 185.38C414.409 190.109 412.867 194.71 410.017 198.484C407.167 202.259 403.164 205.003 398.615 206.299C396.712 206.846 394.743 207.126 392.763 207.131H392.652C389.795 207.13 386.967 206.567 384.329 205.473C381.691 204.38 379.293 202.777 377.275 200.757C375.256 198.738 373.654 196.34 372.562 193.702C371.47 191.063 370.909 188.235 370.91 185.38C370.906 184.103 371.02 182.829 371.252 181.574C372.1 176.819 374.51 172.482 378.1 169.251C381.691 166.019 386.256 164.077 391.075 163.732C391.596 163.688 392.124 163.665 392.652 163.665C398.416 163.663 403.946 165.949 408.025 170.021C412.105 174.093 414.401 179.617 414.409 185.38Z" fill="#F8BDC5"/>
<path d="M425.882 182.711C426.944 183.982 427.565 185.562 427.652 187.216C425.481 187.417 423.19 187.677 421.465 189.037C419.978 190.197 419.235 192.011 418.491 193.698C417.812 195.289 417.138 196.88 416.468 198.471C415.413 200.961 414.327 203.504 412.49 205.489C411.711 206.204 411.018 207.007 410.423 207.882C409.91 208.812 409.68 209.986 408.847 210.611C408.428 210.867 407.952 211.015 407.461 211.042C406.971 211.069 406.481 210.975 406.036 210.767C405.122 210.425 404.304 209.852 403.389 209.488C402.801 209.262 402.19 209.102 401.567 209.012C398.846 208.611 395.849 209.198 393.537 207.734C393.269 207.556 393.02 207.352 392.793 207.124C391.89 206.239 391.236 205.131 390.897 203.913C390.727 203.419 390.666 202.894 390.718 202.374C390.825 201.898 391.035 201.452 391.333 201.067C391.631 200.681 392.01 200.366 392.444 200.144C392.57 200.069 392.696 199.995 392.83 199.928C395.061 198.761 398.162 198.486 399.329 196.211C400.444 194.055 399.061 191.431 397.366 189.691C396.563 188.874 395.611 187.944 395.723 186.8C395.827 185.789 396.727 185.082 397.478 184.406C399.603 182.484 401.035 179.916 401.552 177.098C401.75 176.228 401.735 175.323 401.508 174.459C401.276 173.84 400.958 173.257 400.563 172.727L398.154 169.159C397.411 167.899 396.394 166.822 395.18 166.007C394.176 165.405 393.024 165.197 392.012 164.602C391.627 164.391 391.304 164.084 391.075 163.71C390.948 163.501 390.905 163.251 390.956 163.011C391.083 162.416 391.7 162.126 392.317 161.955C393.914 161.492 395.584 161.333 397.24 161.487C397.764 161.599 398.306 161.599 398.831 161.487C399.091 161.418 399.317 161.257 399.469 161.035C399.62 160.812 399.687 160.543 399.656 160.275C401.485 159.8 403.218 161.227 404.556 162.565C405.895 163.903 407.531 165.368 409.419 164.989C410.096 164.855 410.721 164.468 411.405 164.394C412.089 164.319 412.936 164.766 412.892 165.457C412.847 166.148 411.985 166.594 412.059 167.263C412.104 167.495 412.209 167.71 412.364 167.888C413.222 169.069 414.241 170.125 415.39 171.025C415.39 169.709 415.39 168.386 415.39 167.07C416.877 167.442 417.42 169.345 417.249 170.884C417.078 172.422 416.506 173.976 416.863 175.478C416.907 175.735 417.011 175.978 417.166 176.189C417.321 176.399 417.522 176.57 417.755 176.69C418.137 176.793 418.54 176.793 418.922 176.69C422.335 176.206 426.321 177.113 428.016 180.109L425.042 179.031L428.499 180.919C428.973 181.137 429.394 181.454 429.734 181.849C429.898 182.049 429.996 182.296 430.012 182.555C430.028 182.814 429.962 183.072 429.823 183.291C429.251 182.906 428.6 182.655 427.918 182.554C427.236 182.454 426.541 182.507 425.882 182.711Z" fill="#585268"/>
<g opacity="0.1">
<path opacity="0.1" d="M419.331 176.519C419.713 176.622 420.116 176.622 420.499 176.519C420.833 176.474 421.168 176.444 421.51 176.422C420.766 176.375 420.019 176.397 419.279 176.489L419.331 176.519Z" fill="black"/>
<path opacity="0.1" d="M426.588 178.883L427.867 179.589L427.629 179.254L426.588 178.883Z" fill="black"/>
<path opacity="0.1" d="M416.996 170.854C416.996 169.992 416.996 169.122 416.996 168.252C416.868 167.928 416.667 167.638 416.409 167.404C416.151 167.169 415.844 166.997 415.509 166.899V169.516C415.976 169.992 416.473 170.439 416.996 170.854Z" fill="black"/>
<path opacity="0.1" d="M428.075 182.451C428.732 182.564 429.356 182.817 429.905 183.194C430.035 183.022 430.101 182.808 430.091 182.592C429.437 182.401 428.749 182.352 428.075 182.451Z" fill="black"/>
<path opacity="0.1" d="M407.679 210.655C406.765 210.313 405.947 209.741 405.032 209.377C404.445 209.15 403.833 208.991 403.21 208.901C400.489 208.499 397.492 209.087 395.18 207.622C394.912 207.444 394.663 207.24 394.436 207.013C393.533 206.127 392.879 205.02 392.54 203.801C392.37 203.307 392.309 202.782 392.362 202.262C392.468 201.787 392.678 201.341 392.976 200.955C393.274 200.57 393.653 200.255 394.087 200.032C394.213 199.958 394.34 199.883 394.473 199.817C396.741 198.649 399.805 198.374 400.972 196.1C402.088 193.944 400.705 191.32 399.009 189.58C398.206 188.762 397.254 187.833 397.366 186.688C397.47 185.677 398.37 184.971 399.121 184.295C401.246 182.373 402.678 179.805 403.195 176.987C403.393 176.116 403.378 175.211 403.151 174.348C402.919 173.729 402.602 173.146 402.207 172.616L399.797 169.048C399.054 167.788 398.038 166.711 396.823 165.896C395.819 165.293 394.667 165.085 393.655 164.491C393.271 164.28 392.948 163.972 392.719 163.598C392.591 163.389 392.548 163.139 392.6 162.9C392.726 162.305 393.38 162.015 393.96 161.844C394.931 161.572 395.928 161.407 396.935 161.353C395.43 161.265 393.922 161.431 392.473 161.844C391.893 162.015 391.239 162.305 391.112 162.9C391.061 163.139 391.104 163.389 391.231 163.598C391.46 163.972 391.783 164.28 392.168 164.491C393.18 165.085 394.332 165.293 395.336 165.896C396.55 166.711 397.567 167.788 398.31 169.048L400.719 172.616C401.114 173.146 401.432 173.729 401.664 174.348C401.89 175.211 401.906 176.116 401.708 176.987C401.191 179.805 399.759 182.373 397.634 184.295C396.89 184.971 395.983 185.677 395.879 186.688C395.767 187.833 396.719 188.762 397.522 189.58C399.217 191.32 400.6 193.944 399.485 196.1C398.318 198.367 395.254 198.642 392.986 199.817C392.852 199.883 392.726 199.958 392.6 200.032C392.166 200.255 391.787 200.57 391.489 200.955C391.191 201.341 390.981 201.787 390.874 202.262C390.822 202.782 390.883 203.307 391.053 203.801C391.392 205.02 392.046 206.127 392.949 207.013C393.176 207.24 393.425 207.444 393.693 207.622C396.005 209.109 399.002 208.499 401.723 208.901C402.346 208.991 402.957 209.15 403.545 209.377C404.46 209.741 405.277 210.313 406.192 210.655C406.856 210.928 407.588 210.99 408.289 210.834C408.082 210.789 407.878 210.729 407.679 210.655Z" fill="black"/>
<path opacity="0.1" d="M411.025 164.818C411.483 164.701 411.932 164.554 412.371 164.379C412.108 164.25 411.815 164.196 411.523 164.223C410.893 164.373 410.272 164.561 409.665 164.788C410.11 164.898 410.575 164.909 411.025 164.818Z" fill="black"/>
<path opacity="0.1" d="M398.846 161.353C399.373 161.453 399.915 161.44 400.437 161.316C400.695 161.247 400.921 161.087 401.072 160.867C401.223 160.646 401.291 160.378 401.262 160.112C400.774 159.986 400.263 159.986 399.775 160.112C399.806 160.379 399.739 160.649 399.588 160.871C399.436 161.093 399.21 161.254 398.95 161.324C398.898 161.34 398.846 161.352 398.793 161.361L398.846 161.353Z" fill="black"/>
</g>
<path d="M373.044 173.486C370.27 175.56 365.846 176.459 361.779 176.756C358.599 177.008 355.404 177.008 352.224 176.756L345.063 174.065C345.063 174.065 345.643 172.913 346.625 171.389C348.58 168.356 352.134 163.844 355.845 164.03C361.422 164.305 367.281 164.58 367.839 164.58C368.396 164.58 379.267 168.839 373.044 173.486Z" fill="#FDC2CC"/>
<path d="M354.93 24.6806C349.636 24.584 344.171 24.5245 339.315 26.5614C329.552 30.598 324.949 41.3846 319.045 50.0823C314.149 57.2901 307.899 63.4782 300.642 68.3029C297.221 70.5331 293.251 72.9863 292.425 77.0006C291.548 81.2454 294.582 85.1779 296.143 89.1997C299.452 97.7561 296.143 107.234 294.188 116.2C293.273 120.506 292.684 124.874 292.425 129.269C292.213 131.303 292.346 133.359 292.819 135.349C294.307 140.598 299.928 144.389 299.973 149.846C299.973 153.563 297.355 157.071 298.121 160.684C299.11 165.301 304.717 166.966 309.364 167.761C310.477 168.067 311.655 168.031 312.747 167.657C313.491 167.3 314.101 166.617 314.859 166.237C317.439 164.959 320.302 167.657 323.187 167.605C326.808 167.538 328.846 163.264 328.935 159.644C329.024 156.023 328.057 152.21 329.359 148.864C331.091 144.404 336.051 142.285 340.237 139.944C344.87 137.349 349.279 133.603 350.647 128.481C351.502 125.314 351.116 121.961 350.774 118.705C350.253 113.709 349.844 108.691 349.562 103.681C348.818 90.8946 359.444 80.2418 372.211 81.2379H372.449C376.167 81.5427 380.554 81.8995 383.179 79.1936C384.22 78.1157 384.881 76.6289 386.153 75.8855C388.636 74.4731 392.049 76.4876 394.548 75.0975C396.503 74.0047 396.92 71.3805 396.615 69.1504C396.31 66.9202 395.529 64.69 395.946 62.5044C396.541 59.4045 399.359 57.1892 400.407 54.2082C401.612 50.8109 400.31 47.0121 398.437 43.9345C392.436 34.0399 380.219 26.2938 368.768 25.253C364.165 24.807 359.548 24.7549 354.93 24.6806Z" fill="#865A61"/>
<path opacity="0.1" d="M346.625 171.367C351.041 172.274 356.417 174.288 361.779 176.749C358.599 177.001 355.404 177.001 352.224 176.749L345.063 174.058C345.063 174.058 345.643 172.891 346.625 171.367Z" fill="black"/>
<path opacity="0.1" d="M401.574 209.012C398.853 208.611 395.856 209.198 393.544 207.734C393.276 207.556 393.027 207.352 392.8 207.124H392.689C389.83 207.128 386.999 206.569 384.356 205.478C381.714 204.387 379.313 202.785 377.29 200.766C375.268 198.746 373.663 196.348 372.568 193.708C371.473 191.068 370.91 188.238 370.91 185.38C370.906 184.103 371.02 182.829 371.252 181.574C378.873 185.833 385.052 190.212 386.242 192.353C388.001 195.171 390.071 197.782 392.414 200.136C394.488 202.366 396.712 204.507 398.615 206.299C399.745 207.347 400.764 208.276 401.574 209.012Z" fill="black"/>
<path d="M402.786 211.488C402.786 211.488 389.216 199.779 385.498 193.089C381.781 186.398 329.544 157.964 336.237 179.522C342.929 201.08 365.98 203.125 365.98 203.125C365.98 203.125 373.415 211.488 374.159 215.576C374.902 219.665 377.505 225.612 377.505 225.612L389.96 231.188L395.723 229.887C395.723 229.887 409.293 222.453 402.786 211.488Z" fill="#FDC2CC"/>
<path opacity="0.1" d="M376.761 224.869C376.761 224.869 398.697 237.321 400.928 208.143L406.504 210.001L400.928 229.701L391.447 236.577C391.447 236.577 378.249 230.444 376.761 224.869Z" fill="black"/>
<path d="M377.505 225.612C377.505 225.612 399.441 238.064 401.671 208.886L407.248 210.744L401.671 230.444L392.191 237.321C392.191 237.321 378.992 231.188 377.505 225.612Z" fill="#D39999"/>
<path d="M396.875 77.7515C397.128 75.1422 398.191 72.6815 398.749 70.1168C399.299 67.6358 399.374 65.0732 398.972 62.564C398.747 60.7516 398.072 59.0242 397.009 57.5386C396.265 56.6094 394.035 54.5651 392.733 55.4869C391.99 56.0147 391.789 59.07 391.492 59.9472C390.448 62.8935 389.05 65.7019 387.328 68.3104C391.005 73.3834 393.209 79.3734 393.696 85.6194C394.183 91.8655 392.935 98.1246 390.089 103.706C387.243 109.288 382.909 113.975 377.567 117.25C372.225 120.525 366.082 122.261 359.815 122.266C359.005 122.266 358.202 122.229 357.406 122.169C356.663 123.463 355.986 124.771 355.302 126.079C354.494 127.408 353.949 128.879 353.696 130.413C353.634 131.88 353.859 133.345 354.358 134.725C355.742 139.266 357.654 143.63 360.053 147.727C360.89 148.999 361.576 150.363 362.098 151.793C362.522 153.169 362.596 154.641 363.147 155.964C364.381 158.937 367.608 160.424 370.582 161.666C372.36 162.409 374.218 163.152 376.137 162.996C376.317 163.01 376.497 162.986 376.667 162.925C376.837 162.865 376.992 162.77 377.123 162.646C377.254 162.522 377.358 162.372 377.427 162.206C377.497 162.04 377.531 161.861 377.527 161.681C377.631 160.901 377.55 160.109 377.292 159.367C377.033 158.624 376.605 157.953 376.04 157.406C378.563 158.197 381.21 158.512 383.848 158.335C384.084 158.385 384.329 158.365 384.554 158.279C384.779 158.192 384.975 158.043 385.118 157.849C385.26 157.654 385.344 157.423 385.359 157.182C385.374 156.942 385.319 156.702 385.201 156.492C384.516 153.688 383.472 150.984 382.093 148.448C380.74 145.95 379.015 143.044 380.249 140.494C380.955 139.007 382.442 138.174 383.796 137.29C388.369 134.316 392.421 129.469 392.064 124.02C391.871 121.047 390.369 118.214 390.28 115.218C390.049 107.911 397.916 102.685 399.106 95.4665C400.05 89.564 396.303 83.7209 396.875 77.7515Z" fill="#865A61"/>
<g opacity="0.1">
<path opacity="0.1" d="M299.571 146.872C299.526 141.416 293.912 137.624 292.418 132.376C292.188 131.548 292.046 130.698 291.994 129.841C291.828 131.688 291.972 133.55 292.418 135.349C293.786 140.144 298.575 143.728 299.43 148.478C299.525 147.948 299.572 147.41 299.571 146.872Z" fill="black"/>
<path opacity="0.1" d="M322.786 164.632C319.9 164.684 317.038 161.985 314.457 163.264C313.714 163.643 313.119 164.327 312.346 164.684C311.254 165.057 310.075 165.094 308.962 164.788C304.33 163.992 298.738 162.335 297.735 157.755C297.545 158.723 297.545 159.717 297.735 160.684C298.723 165.301 304.33 166.966 308.977 167.761C310.09 168.067 311.269 168.031 312.361 167.657C313.104 167.301 313.714 166.617 314.472 166.238C317.053 164.959 319.915 167.657 322.8 167.605C326.422 167.538 328.459 163.264 328.548 159.644C328.548 158.9 328.548 158.157 328.496 157.413C328.117 160.848 326.154 164.565 322.786 164.632Z" fill="black"/>
<path opacity="0.1" d="M350.26 125.5C348.877 130.622 344.468 134.368 339.85 136.963C335.664 139.312 330.704 141.423 328.972 145.883C328.334 147.81 328.116 149.85 328.332 151.868C328.397 150.838 328.612 149.824 328.972 148.857C330.704 144.397 335.664 142.278 339.85 139.936C344.483 137.342 348.892 133.595 350.26 128.473C350.732 126.528 350.89 124.521 350.729 122.526C350.671 123.53 350.514 124.526 350.26 125.5Z" fill="black"/>
<path opacity="0.1" d="M390.971 72.6071C389.179 72.4733 387.313 72.057 385.766 72.9193C384.465 73.6627 383.803 75.1495 382.792 76.2274C380.167 78.9334 375.817 78.5765 372.062 78.2718H371.824C359.057 77.2756 348.446 87.9359 349.175 100.715C349.175 100.811 349.175 100.916 349.175 101.012C349.352 98.2247 350.08 95.4998 351.315 92.9948C352.551 90.4897 354.271 88.254 356.375 86.4165C358.479 84.579 360.926 83.176 363.575 82.2885C366.224 81.401 369.023 81.0464 371.809 81.2453H372.047C375.765 81.5501 380.152 81.9069 382.777 79.201C383.818 78.1231 384.48 76.6363 385.751 75.8929C387.238 75.0306 389.134 75.4469 390.956 75.5807C392.386 79.1344 393.204 82.9048 393.373 86.7316C393.373 86.2484 393.41 85.7652 393.41 85.2448C393.41 80.9153 392.582 76.6257 390.971 72.6071Z" fill="black"/>
<path opacity="0.1" d="M297.132 95.7565C297.355 92.5242 296.891 89.2814 295.771 86.2411C294.597 83.2006 292.582 80.2196 292.054 77.1196C291.243 81.3198 294.24 85.2077 295.771 89.2146C296.566 91.3102 297.025 93.5179 297.132 95.7565Z" fill="black"/>
<path opacity="0.1" d="M398.794 64.296C398.726 65.2541 398.587 66.2058 398.377 67.1432C397.82 69.7079 396.756 72.1686 396.503 74.7779C396.414 75.7074 396.414 76.6434 396.503 77.573C396.786 75.0306 397.805 72.622 398.355 70.1391C398.785 68.2232 398.933 66.2547 398.794 64.296Z" fill="black"/>
<path opacity="0.1" d="M398.704 92.5078C397.515 99.7262 389.648 104.952 389.878 112.26C389.89 112.655 389.925 113.05 389.982 113.442C390.919 107.041 397.619 102.098 398.704 95.4814C398.889 94.2832 398.914 93.0659 398.779 91.8611C398.757 92.0767 398.757 92.2923 398.704 92.5078Z" fill="black"/>
<path opacity="0.1" d="M400.058 51.2198C399.355 52.8126 398.456 54.3111 397.381 55.6801C397.689 56.2788 397.938 56.9063 398.124 57.5535C398.909 56.5103 399.551 55.368 400.035 54.1562C400.501 52.7687 400.619 51.288 400.377 49.8445C400.312 50.3116 400.205 50.7719 400.058 51.2198Z" fill="black"/>
<path opacity="0.1" d="M391.573 123.225C390.912 127.774 387.35 131.737 383.394 134.331C382.041 135.216 380.554 136.078 379.847 137.535C379.358 138.631 379.287 139.869 379.647 141.014C379.699 140.84 379.766 140.671 379.847 140.509C380.554 139.022 382.041 138.189 383.394 137.305C387.967 134.331 392.02 129.484 391.663 124.035C391.648 123.76 391.611 123.492 391.573 123.225Z" fill="black"/>
<path opacity="0.1" d="M376.702 159.71C376.427 159.921 376.09 160.036 375.743 160.038C373.824 160.201 371.966 159.45 370.188 158.707C367.214 157.473 363.972 155.971 362.753 153.005C362.202 151.682 362.128 150.21 361.704 148.835C361.182 147.405 360.496 146.04 359.659 144.768C357.26 140.671 355.348 136.308 353.964 131.766C353.748 131.08 353.569 130.383 353.428 129.677C353.376 129.923 353.332 130.175 353.302 130.421C353.24 131.887 353.465 133.352 353.964 134.732C355.348 139.274 357.26 143.638 359.659 147.734C360.496 149.006 361.182 150.371 361.704 151.801C362.128 153.176 362.202 154.648 362.753 155.971C363.987 158.945 367.214 160.432 370.188 161.673C371.966 162.416 373.824 163.16 375.743 163.004C375.923 163.017 376.103 162.993 376.273 162.933C376.443 162.872 376.598 162.777 376.729 162.653C376.86 162.529 376.964 162.379 377.033 162.213C377.103 162.047 377.137 161.868 377.133 161.688C377.231 160.937 377.155 160.174 376.91 159.458C376.857 159.554 376.786 159.64 376.702 159.71Z" fill="black"/>
<path opacity="0.1" d="M384.42 155.146C384.116 155.291 383.784 155.37 383.446 155.377C380.809 155.553 378.161 155.238 375.639 154.447C376.56 155.339 377.106 156.549 377.163 157.83C379.22 158.314 381.338 158.49 383.446 158.35C383.682 158.399 383.928 158.38 384.153 158.293C384.378 158.207 384.574 158.058 384.716 157.864C384.859 157.669 384.943 157.438 384.957 157.197C384.972 156.957 384.917 156.717 384.8 156.506C384.688 156.046 384.554 155.592 384.42 155.146Z" fill="black"/>
</g>
<path opacity="0.1" d="M280.655 171.53C280.655 171.53 279.911 186.77 282.142 187.885C284.372 189 280.655 171.53 280.655 171.53Z" fill="black"/>
<path opacity="0.1" d="M322.852 211.674C323.596 211.674 326.57 213.16 326.942 214.833C327.314 216.506 322.852 211.674 322.852 211.674Z" fill="black"/>
<path opacity="0.1" d="M320.993 214.09C321.737 214.09 324.711 215.576 325.083 217.249C325.455 218.922 320.993 214.09 320.993 214.09Z" fill="black"/>
<path opacity="0.1" d="M327.872 220.78C328.615 220.78 331.589 222.267 331.961 223.94C332.333 225.612 327.872 220.78 327.872 220.78Z" fill="black"/>
<path opacity="0.1" d="M318.577 221.063C318.577 221.063 308.479 231.165 307.855 233.329C307.23 235.492 288.15 235.559 288.15 235.559L286.849 225.151C286.849 225.151 286.774 224.876 286.707 224.46C291.979 223.107 309.074 216.796 319.246 219.033C319.307 219.4 319.278 219.777 319.162 220.131C319.045 220.484 318.845 220.804 318.577 221.063Z" fill="black"/>
<path d="M272.594 233.849C272.594 233.849 282.328 225.241 285.302 225.426C288.276 225.612 324.525 210.187 326.942 227.471C329.359 244.755 280.655 245.684 280.655 245.684L273.219 248.472C273.219 248.472 267.017 234.964 272.594 233.849Z" fill="#FDC2CC"/>
<path d="M269.746 235.09C269.746 235.09 274.208 228.898 275.568 236.451C276.929 244.004 278.981 253.304 278.981 253.304L269.003 248.345L269.746 235.09Z" fill="#D39999"/>
<path opacity="0.1" d="M682.884 499.084C701.277 499.084 716.188 496.798 716.188 493.977C716.188 491.156 701.277 488.87 682.884 488.87C664.49 488.87 649.579 491.156 649.579 493.977C649.579 496.798 664.49 499.084 682.884 499.084Z" fill="#46B04B"/>
<path opacity="0.1" d="M588.873 594.171C617.62 594.171 640.924 590.597 640.924 586.187C640.924 581.778 617.62 578.203 588.873 578.203C560.127 578.203 536.823 581.778 536.823 586.187C536.823 590.597 560.127 594.171 588.873 594.171Z" fill="#46B04B"/>
<path opacity="0.1" d="M730.152 625C768.176 625 799 620.27 799 614.436C799 608.602 768.176 603.873 730.152 603.873C692.129 603.873 661.305 608.602 661.305 614.436C661.305 620.27 692.129 625 730.152 625Z" fill="#46B04B"/>
<path opacity="0.1" d="M52.0502 512.406C80.7967 512.406 104.1 508.831 104.1 504.422C104.1 500.012 80.7967 496.438 52.0502 496.438C23.3037 496.438 0 500.012 0 504.422C0 508.831 23.3037 512.406 52.0502 512.406Z" fill="#46B04B"/>
<path d="M656.621 444.98C656.621 444.98 651.914 466.91 672.868 469.512L674.169 467.074C674.169 467.074 657.922 451.804 656.621 444.98Z" fill="#46B04B"/>
<path d="M680.831 466.903L675.961 467.936L675.47 468.047C675.47 468.047 662.472 457.491 662.636 433.933C664.378 437.405 666.457 440.697 668.845 443.761C673.998 450.57 679.827 459.692 680.831 466.903Z" fill="#46B04B"/>
<path d="M682.482 469.163C682.098 469.413 681.663 469.574 681.209 469.633C680.754 469.692 680.292 469.649 679.857 469.505C667.343 466.583 671.574 425.815 671.574 425.815C672.265 426.143 673.061 431.324 675.901 438.022C680.95 449.782 686.52 466.211 682.482 469.163Z" fill="#46B04B"/>
<path d="M710.232 444.98C710.232 444.98 711.05 466.91 690.089 469.512L688.787 467.074C688.787 467.074 708.938 451.804 710.232 444.98Z" fill="#46B04B"/>
<path d="M704.224 433.933C704.38 457.491 687.494 468.047 687.494 468.047L687.003 467.936L682.132 466.903C683.092 459.669 688.966 450.548 694.111 443.761C697.027 440.047 700.428 436.741 704.224 433.933Z" fill="#46B04B"/>
<path d="M686.929 467.029C686.175 467.945 685.221 468.675 684.14 469.163C683.814 469.313 683.472 469.428 683.121 469.505C680.036 470.248 678.965 468.018 679.143 464.234C679.433 457.543 683.657 445.872 687.449 437.16C690.178 430.885 694.639 426.128 695.301 425.815C695.286 425.815 695.1 457.558 686.929 467.029Z" fill="#46B04B"/>
<path d="M683.426 411.52C683.426 411.52 669.455 461.06 681.478 468.531C693.502 476.002 686.52 415.906 683.426 411.52Z" fill="#46B04B"/>
<path opacity="0.1" d="M656.621 444.98C656.621 444.98 651.914 466.91 672.868 469.512L674.169 467.074C674.169 467.074 657.922 451.804 656.621 444.98Z" fill="black"/>
<path opacity="0.1" d="M680.831 466.903L675.961 467.936L675.47 468.047C675.47 468.047 662.472 457.491 662.636 433.933C664.378 437.405 666.457 440.697 668.845 443.761C673.998 450.57 679.827 459.692 680.831 466.903Z" fill="black"/>
<path opacity="0.1" d="M682.482 469.163C682.098 469.413 681.663 469.574 681.209 469.633C680.754 469.692 680.292 469.649 679.857 469.505C667.343 466.583 671.574 425.815 671.574 425.815C672.265 426.143 673.061 431.324 675.901 438.022C680.95 449.782 686.52 466.211 682.482 469.163Z" fill="black"/>
<path opacity="0.1" d="M710.232 444.98C710.232 444.98 711.05 466.91 690.089 469.512L688.787 467.074C688.787 467.074 708.938 451.804 710.232 444.98Z" fill="black"/>
<path opacity="0.1" d="M704.224 433.933C704.38 457.491 687.494 468.047 687.494 468.047L687.003 467.936L682.132 466.903C683.092 459.669 688.966 450.548 694.111 443.761C697.027 440.047 700.428 436.741 704.224 433.933Z" fill="black"/>
<path opacity="0.1" d="M686.929 467.029C686.175 467.945 685.221 468.675 684.14 469.163C683.814 469.313 683.472 469.428 683.121 469.505C680.036 470.248 678.965 468.018 679.143 464.234C679.433 457.543 683.657 445.872 687.449 437.16C690.178 430.885 694.639 426.128 695.301 425.815C695.286 425.815 695.1 457.558 686.929 467.029Z" fill="black"/>
<path opacity="0.1" d="M683.426 411.52C683.426 411.52 669.455 461.06 681.478 468.531C693.502 476.002 686.52 415.906 683.426 411.52Z" fill="black"/>
<path d="M656.62 444.98C656.62 444.98 653.862 466.91 674.816 469.512L676.117 467.074C676.117 467.074 657.922 451.804 656.62 444.98Z" fill="#46B04B"/>
<path d="M682.802 466.903L677.931 467.936L677.441 468.047C677.441 468.047 662.495 457.491 662.658 433.933C662.658 433.933 666.488 438.037 670.838 443.761C675.953 450.57 681.805 459.692 682.802 466.903Z" fill="#46B04B"/>
<path opacity="0.1" d="M682.802 466.903L677.931 467.936C673.314 463.885 671.477 453.299 670.815 443.761C675.954 450.57 681.805 459.692 682.802 466.903Z" fill="black"/>
<path d="M684.43 469.163C684.046 469.413 683.611 469.574 683.157 469.633C682.702 469.692 682.24 469.649 681.805 469.505C669.291 466.583 671.574 425.815 671.574 425.815C672.265 426.143 674.972 431.324 677.849 438.022C682.898 449.782 688.445 466.211 684.43 469.163Z" fill="#46B04B"/>
<path d="M710.232 444.98C710.232 444.98 712.998 466.91 692.037 469.512L690.743 467.074C690.743 467.074 708.938 451.804 710.232 444.98Z" fill="#46B04B"/>
<path d="M704.224 433.933C704.38 457.491 689.442 468.047 689.442 468.047L688.951 467.936L684.081 466.903C685.047 459.669 690.914 450.548 696.06 443.761C700.395 438.037 704.224 433.933 704.224 433.933Z" fill="#46B04B"/>
<path opacity="0.1" d="M696.06 443.761C695.435 452.682 693.829 462.45 689.851 467.029C689.577 467.357 689.276 467.66 688.951 467.936L684.081 466.903C685.032 459.692 690.914 450.57 696.06 443.761Z" fill="black"/>
<path d="M688.877 467.029C688.125 467.946 687.17 468.677 686.088 469.163C685.759 469.312 685.415 469.427 685.062 469.505C681.984 470.248 680.905 468.018 681.084 464.234C681.374 457.543 685.597 445.872 689.39 437.16C692.119 430.885 694.595 426.128 695.294 425.815C695.286 425.815 697.056 457.558 688.877 467.029Z" fill="#46B04B"/>
<path opacity="0.1" d="M684.43 469.162C683.721 469.161 683.03 468.941 682.452 468.531C676.563 464.866 676.444 451.105 677.849 438.052C682.898 449.782 688.445 466.211 684.43 469.162Z" fill="black"/>
<path opacity="0.1" d="M688.877 467.029C688.2 468.516 687.285 469.259 686.088 469.162C685.487 469.085 684.911 468.869 684.408 468.531C682.88 467.479 681.718 465.977 681.084 464.234C681.374 457.543 685.597 445.872 689.39 437.159C690.736 449.284 691.182 462.07 688.877 467.029Z" fill="black"/>
<path d="M683.426 411.52C683.426 411.52 671.41 461.06 683.426 468.531C695.442 476.002 686.519 415.906 683.426 411.52Z" fill="#46B04B"/>
<path d="M706.499 466.1H656.464V474.381H664.093L664.287 475.355L667.343 491.435H696.431L699.488 475.355L699.673 474.381H706.499V466.1Z" fill="#4B4770"/>
<path opacity="0.1" d="M706.499 466.1H656.464V474.381H664.093L664.287 475.355L667.343 491.435H696.431L699.488 475.355L699.673 474.381H706.499V466.1Z" fill="black"/>
<path d="M702.276 470.969L701.443 475.355L698.379 491.435H669.291L666.235 475.355L665.395 470.969H702.276Z" fill="#4B4770"/>
<path opacity="0.1" d="M702.276 470.969L701.443 475.355H666.235L665.395 470.969H702.276Z" fill="black"/>
<path d="M708.448 466.1H658.412V474.381H708.448V466.1Z" fill="#4B4770"/>
<path d="M81.1611 417.162C80.4478 418.14 79.877 419.213 79.4658 420.351C79.3617 420.626 79.2576 420.946 79.1535 421.251C78.9659 421.162 78.7688 421.095 78.5661 421.05C77.6996 420.829 76.803 420.752 75.9115 420.82C75.9115 420.478 75.9561 420.076 75.9636 419.727C76.0751 415.809 75.6141 410.353 71.8739 412.665C68.2899 414.895 70.8478 418.612 73.1603 420.991C73.361 421.199 73.5618 421.392 73.7551 421.578C71.6434 423.065 71.2419 426.581 70.8924 430.231C70.5429 433.881 67.4422 437.873 65.3825 440.148C65.1743 440.378 64.9884 440.587 64.8025 440.78C63.9755 440.119 63.018 439.64 61.9928 439.374C60.9676 439.109 59.8979 439.064 58.8539 439.241C58.7721 438.921 58.6829 438.587 58.5788 438.23C56.876 432.186 53.4258 421.779 49.009 419.549C49.1949 419.318 49.3882 419.08 49.589 418.805C51.4628 416.352 53.5745 412.709 50.459 411.78C47.3434 410.851 47.0608 414.939 47.2319 418.002C47.2319 418.381 47.2913 418.746 47.3211 419.088C46.7007 419.116 46.0926 419.27 45.5339 419.541C44.9752 419.812 44.4776 420.194 44.0717 420.664L43.5883 420.091C41.0602 417.118 36.4277 412.39 35.0224 415.965C33.7211 419.288 37.7959 423.615 40.6661 426.12L40.8446 426.276C38.9187 434.097 47.3285 440.468 51.8569 443.248L52.4443 443.612C46.1983 450.964 42.3391 464.762 42.3391 464.762L59.8354 467.884C59.8354 467.884 71.4277 457.878 69.9406 448.489H70.0596C81.6519 446.162 84.2842 433.807 82.4847 426.477L82.6855 426.388C84.7958 425.525 86.6458 424.129 88.0541 422.336C91.2886 417.824 84.4924 412.739 81.1611 417.162Z" fill="#46B04B"/>
<path opacity="0.1" d="M81.1611 417.162C80.4478 418.14 79.877 419.213 79.4658 420.351C79.3617 420.626 79.2576 420.946 79.1535 421.251C78.9659 421.162 78.7688 421.095 78.5661 421.05C77.6996 420.829 76.803 420.752 75.9115 420.82C75.9115 420.478 75.9561 420.076 75.9636 419.727C76.0751 415.809 75.6141 410.353 71.8739 412.665C68.2899 414.895 70.8478 418.612 73.1603 420.991C73.361 421.199 73.5618 421.392 73.7551 421.578C71.6434 423.065 71.2419 426.581 70.8924 430.231C70.5429 433.881 67.4422 437.873 65.3825 440.148C65.1743 440.378 64.9884 440.587 64.8025 440.78C63.9755 440.119 63.018 439.64 61.9928 439.374C60.9676 439.109 59.8979 439.064 58.8539 439.241C58.7721 438.921 58.6829 438.587 58.5788 438.23C56.876 432.186 53.4258 421.779 49.009 419.549C49.1949 419.318 49.3882 419.08 49.589 418.805C51.4628 416.352 53.5745 412.709 50.459 411.78C47.3434 410.851 47.0608 414.939 47.2319 418.002C47.2319 418.381 47.2913 418.746 47.3211 419.088C46.7007 419.116 46.0926 419.27 45.5339 419.541C44.9752 419.812 44.4776 420.194 44.0717 420.664L43.5883 420.091C41.0602 417.118 36.4277 412.39 35.0224 415.965C33.7211 419.288 37.7959 423.615 40.6661 426.12L40.8446 426.276C38.9187 434.097 47.3285 440.468 51.8569 443.248L52.4443 443.612C46.1983 450.964 42.3391 464.762 42.3391 464.762L59.8354 467.884C59.8354 467.884 71.4277 457.878 69.9406 448.489H70.0596C81.6519 446.162 84.2842 433.807 82.4847 426.477L82.6855 426.388C84.7958 425.525 86.6458 424.129 88.0541 422.336C91.2886 417.824 84.4924 412.739 81.1611 417.162Z" fill="black"/>
<path d="M46.3469 422.202L44.3021 428.15C44.3021 428.15 43.1644 427.347 41.7293 426.083C38.8591 423.578 34.7843 419.251 36.0856 415.928C37.491 412.353 42.1234 417.073 44.6516 420.054C45.6703 421.281 46.3469 422.202 46.3469 422.202Z" fill="#46B04B"/>
<path d="M50.6598 418.805C50.0375 419.621 49.3723 420.402 48.667 421.147C48.4927 420.105 48.3711 419.056 48.3026 418.002C48.1316 414.94 48.4588 410.873 51.5297 411.78C54.6007 412.687 52.5336 416.337 50.6598 418.805Z" fill="#46B04B"/>
<path d="M77.0343 419.727C76.9748 421.697 76.7815 423.273 76.7815 423.273C75.8798 422.572 75.0277 421.809 74.231 420.991C71.9185 418.597 69.3606 414.895 72.9446 412.665C76.6848 410.353 77.1458 415.832 77.0343 419.727Z" fill="#46B04B"/>
<path d="M89.1173 422.314C87.709 424.107 85.859 425.503 83.7487 426.365C83.164 426.623 82.5629 426.842 81.9492 427.02L79.54 423.637C79.7951 422.52 80.1281 421.422 80.5364 420.351C80.9476 419.213 81.5184 418.14 82.2318 417.162C85.563 412.739 92.3593 417.824 89.1173 422.314Z" fill="#46B04B"/>
<path opacity="0.1" d="M44.6515 420.091C45.6702 421.281 46.3468 422.203 46.3468 422.203L44.302 428.15C44.302 428.15 43.1643 427.347 41.7292 426.083C42.0481 424.167 42.8404 422.36 44.0343 420.827C44.2351 420.589 44.4507 420.329 44.6515 420.091Z" fill="black"/>
<path opacity="0.1" d="M50.6596 418.805C50.0374 419.62 49.3722 420.402 48.6668 421.147C48.4926 420.105 48.371 419.056 48.3025 418.002C49.1529 418.016 49.9774 418.297 50.6596 418.805Z" fill="black"/>
<path d="M60.7203 442.542L55.6268 444.772C55.6268 444.772 54.5189 444.237 52.9202 443.24C47.5739 439.955 36.8292 431.681 43.9973 421.927C51.1653 412.174 57.2106 429.666 59.6123 438.223C60.3336 440.787 60.7203 442.542 60.7203 442.542Z" fill="#46B04B"/>
<path opacity="0.1" d="M74.231 420.991C74.9716 420.23 75.9735 419.778 77.0342 419.727C76.9747 421.697 76.7814 423.273 76.7814 423.273C75.8798 422.572 75.0276 421.809 74.231 420.991Z" fill="black"/>
<path opacity="0.1" d="M83.7487 426.366C83.164 426.623 82.5629 426.842 81.9492 427.02L79.54 423.637C79.7951 422.52 80.1281 421.422 80.5364 420.352C82.0905 421.258 83.2356 423.518 83.7487 426.366Z" fill="black"/>
<path d="M71.123 448.467L70.2679 448.615C53.2177 451.202 64.6465 442.007 64.6465 442.007C64.6465 442.007 65.39 441.263 66.4533 440.148C68.513 437.873 71.6063 433.903 71.9632 430.231C72.4986 424.708 73.1158 419.526 79.6369 421.05C86.0391 422.522 87.266 445.233 71.123 448.467Z" fill="#46B04B"/>
<path d="M70.803 490.907H38.2271V499.471H70.803V490.907Z" fill="#D4DFEC"/>
<path d="M75.6139 463.067H33.0518V492.951H75.6139V463.067Z" fill="#D4DFEC"/>
<path opacity="0.1" d="M70.803 490.907H38.2271V499.471H70.803V490.907Z" fill="black"/>
<path opacity="0.1" d="M75.6139 463.067H33.0518V492.951H75.6139V463.067Z" fill="black"/>
<path d="M72.9446 490.907H40.3687V499.471H72.9446V490.907Z" fill="#D4DFEC"/>
<path opacity="0.1" d="M59.6123 438.23C60.3559 440.787 60.7203 442.542 60.7203 442.542L55.6268 444.772C55.6268 444.772 54.5188 444.237 52.9202 443.24C54.9129 440.728 57.1585 438.817 59.6123 438.23Z" fill="black"/>
<path opacity="0.1" d="M71.123 448.467L70.2679 448.615C53.2177 451.202 64.6465 442.006 64.6465 442.006C64.6465 442.006 65.39 441.263 66.4533 440.148C69.6358 442.69 70.952 445.567 71.123 448.467Z" fill="black"/>
<path d="M43.4023 464.762C43.4023 464.762 52.9498 430.566 66.3416 441.122C79.7334 451.678 60.8986 467.884 60.8986 467.884L43.4023 464.762Z" fill="#46B04B"/>
<path opacity="0.1" d="M48.2209 428.365C48.8122 428.365 49.2916 427.886 49.2916 427.295C49.2916 426.703 48.8122 426.224 48.2209 426.224C47.6295 426.224 47.1501 426.703 47.1501 427.295C47.1501 427.886 47.6295 428.365 48.2209 428.365Z" fill="black"/>
<path opacity="0.1" d="M48.1315 433.361C48.7229 433.361 49.2023 432.881 49.2023 432.29C49.2023 431.699 48.7229 431.22 48.1315 431.22C47.5402 431.22 47.0608 431.699 47.0608 432.29C47.0608 432.881 47.5402 433.361 48.1315 433.361Z" fill="black"/>
<path opacity="0.1" d="M79.1906 429.347C79.782 429.347 80.2614 428.867 80.2614 428.276C80.2614 427.685 79.782 427.206 79.1906 427.206C78.5993 427.206 78.1199 427.685 78.1199 428.276C78.1199 428.867 78.5993 429.347 79.1906 429.347Z" fill="black"/>
<path opacity="0.1" d="M54.1992 454.949C54.7905 454.949 55.2699 454.47 55.2699 453.878C55.2699 453.287 54.7905 452.808 54.1992 452.808C53.6078 452.808 53.1284 453.287 53.1284 453.878C53.1284 454.47 53.6078 454.949 54.1992 454.949Z" fill="black"/>
<path opacity="0.1" d="M76.9599 437.643C77.5513 437.643 78.0307 437.163 78.0307 436.572C78.0307 435.981 77.5513 435.502 76.9599 435.502C76.3686 435.502 75.8892 435.981 75.8892 436.572C75.8892 437.163 76.3686 437.643 76.9599 437.643Z" fill="black"/>
<path opacity="0.1" d="M65.8955 448.704C66.4868 448.704 66.9662 448.225 66.9662 447.634C66.9662 447.043 66.4868 446.563 65.8955 446.563C65.3041 446.563 64.8247 447.043 64.8247 447.634C64.8247 448.225 65.3041 448.704 65.8955 448.704Z" fill="black"/>
<path opacity="0.1" d="M51.8791 430.506C52.4704 430.506 52.9498 430.027 52.9498 429.436C52.9498 428.845 52.4704 428.365 51.8791 428.365C51.2877 428.365 50.8083 428.845 50.8083 429.436C50.8083 430.027 51.2877 430.506 51.8791 430.506Z" fill="black"/>
<path opacity="0.1" d="M76.246 432.558C76.8374 432.558 77.3168 432.079 77.3168 431.487C77.3168 430.896 76.8374 430.417 76.246 430.417C75.6547 430.417 75.1753 430.896 75.1753 431.487C75.1753 432.079 75.6547 432.558 76.246 432.558Z" fill="black"/>
<path opacity="0.1" d="M72.5878 440.854C73.1792 440.854 73.6586 440.375 73.6586 439.784C73.6586 439.193 73.1792 438.713 72.5878 438.713C71.9965 438.713 71.5171 439.193 71.5171 439.784C71.5171 440.375 71.9965 440.854 72.5878 440.854Z" fill="black"/>
<path opacity="0.1" d="M61.3449 454.146C61.9363 454.146 62.4157 453.667 62.4157 453.076C62.4157 452.484 61.9363 452.005 61.3449 452.005C60.7536 452.005 60.2742 452.484 60.2742 453.076C60.2742 453.667 60.7536 454.146 61.3449 454.146Z" fill="black"/>
<path opacity="0.1" d="M59.0248 448.883C59.6162 448.883 60.0956 448.404 60.0956 447.812C60.0956 447.221 59.6162 446.742 59.0248 446.742C58.4335 446.742 57.9541 447.221 57.9541 447.812C57.9541 448.404 58.4335 448.883 59.0248 448.883Z" fill="black"/>
<path opacity="0.1" d="M53.4853 437.018C54.0767 437.018 54.5561 436.539 54.5561 435.948C54.5561 435.357 54.0767 434.877 53.4853 434.877C52.8939 434.877 52.4146 435.357 52.4146 435.948C52.4146 436.539 52.8939 437.018 53.4853 437.018Z" fill="black"/>
<path opacity="0.1" d="M72.9446 490.907H40.3687V494.036H72.9446V490.907Z" fill="black"/>
<path d="M77.7555 463.067H35.1934V492.951H77.7555V463.067Z" fill="#D4DFEC"/>
<path opacity="0.1" d="M62.7724 458.963C63.3638 458.963 63.8432 458.484 63.8432 457.893C63.8432 457.302 63.3638 456.822 62.7724 456.822C62.181 456.822 61.7017 457.302 61.7017 457.893C61.7017 458.484 62.181 458.963 62.7724 458.963Z" fill="black"/>
<path opacity="0.1" d="M56.3481 460.301C56.9394 460.301 57.4188 459.822 57.4188 459.231C57.4188 458.64 56.9394 458.16 56.3481 458.16C55.7567 458.16 55.2773 458.64 55.2773 459.231C55.2773 459.822 55.7567 460.301 56.3481 460.301Z" fill="black"/>
</g>
<defs>
<linearGradient id="paint0_linear" x1="335.307" y1="604.743" x2="335.307" y2="19.6925" gradientUnits="userSpaceOnUse">
<stop stop-color="#808080" stop-opacity="0.25"/>
<stop offset="0.54" stop-color="#808080" stop-opacity="0.12"/>
<stop offset="1" stop-color="#808080" stop-opacity="0.1"/>
</linearGradient>
<clipPath id="clip0">
<rect width="799" height="625" fill="white"/>
</clipPath>
</defs>
</svg>
