<svg width="475" height="94" viewBox="0 0 475 94" fill="none" xmlns="http://www.w3.org/2000/svg">
<path d="M155.809 3.0803C154.415 3.61162 153.926 7.22779 154.009 16.3792C154.04 19.5791 154.076 20.6219 154.225 22.1286C154.374 23.6116 154.569 24.5711 154.898 25.3681C155.068 25.7805 155.083 25.8558 155.078 26.292C155.078 26.5537 155.042 27.0533 155.001 27.4022C154.95 27.7868 154.919 28.4331 154.919 29.0477C154.919 33.2428 155.186 42.1395 154.605 48.3489C154.461 49.8992 156.599 51.062 155.86 50.9365C157.634 51.8372 158.878 52.6125 158.004 53C159.326 52.9921 158.533 52.543 158.965 51.8372C159.114 51.5914 158.95 51.3568 158.965 50.9365C158.981 50.6114 158.52 49.9002 158.448 49.5116C158.309 48.79 158.628 48.7225 158.448 46.4109C158.365 45.3205 158.028 43.7244 157.93 42.5349C157.38 35.8101 158.066 31.3316 157.901 26.8986L157.85 25.5228L158.004 25.3285C158.596 24.587 159.161 23.223 159.49 21.7519C160.303 18.1041 160.133 12.7155 159.058 8.19131C158.616 6.33168 158.117 4.98751 157.516 4.04778C157.176 3.51646 156.858 3.19529 156.554 3.0803C156.266 2.97324 156.081 2.97324 155.809 3.0803Z" fill="black"/>
<path d="M362.039 6.07492C361.639 6.20998 361.425 6.35253 361.024 6.73894C359.165 8.53968 357.749 13.4767 358.037 17.1495C358.286 20.3608 359.585 23.0019 361.332 23.846C361.573 23.9623 361.573 23.966 361.573 24.1236C361.573 24.2099 361.608 25.7218 361.658 27.485C361.752 31.0152 361.752 31.019 361.549 34.2791C361.335 37.8093 360.912 43.2828 360.659 45.8151C360.425 48.1373 360.604 50.3962 360.659 51.1915C360.733 52.2119 360.74 53.1006 361.324 53.5207C361.608 53.7196 361.756 53.7946 362.102 53.9071C362.487 54.031 363.152 54.031 363.525 53.9071C364.548 53.5658 363.821 53.4206 363.821 51.9574C363.821 51.7361 364.242 50.3386 364.188 49.6596C364.133 48.9843 364.188 45.8151 364.451 43.0014C364.214 40.0714 363.98 37.1265 363.926 36.455C363.832 35.3182 363.755 34.5342 363.556 32.7597C363.323 30.6926 363.284 29.6722 363.377 28.2578C363.475 26.7797 363.517 25.7218 363.517 24.7839V23.936L363.821 23.7635C365.396 22.8743 366.52 20.721 366.928 17.8098C367.014 17.1795 367.026 15.2362 366.948 14.5272C366.516 10.7156 365.093 7.32793 363.494 6.30376C363.031 6.00739 362.491 5.92111 362.039 6.07492Z" fill="#46B04B"/>
<path d="M186.58 6.1136C186.532 6.17342 186.497 6.22923 186.497 6.24513C186.497 6.25707 186.458 6.44016 186.415 6.64712C186.344 6.98145 186.333 7.19227 186.326 8.49681C186.309 11.794 186.256 17.048 186.234 17.6566L186.213 18.301L186.094 18.4008C185.967 18.5086 185.808 18.5291 185.644 18.4541C185.413 18.3515 185.427 18.6975 185.429 12.4493C185.433 8.05449 185.42 6.66649 185.384 6.5314C185.299 6.21749 185.152 6.13449 184.997 6.30207C184.839 6.47762 184.819 6.57712 184.809 7.12601C184.803 7.42432 184.781 8.05279 184.759 8.52218C184.736 8.99157 184.652 10.889 184.571 12.7387C184.489 14.5883 184.397 16.5295 184.367 17.0546C184.265 18.7333 184.257 19.7356 184.334 20.2484C184.546 21.6476 185.282 22.7706 186.322 23.288C186.509 23.3828 186.684 23.4657 186.712 23.4736C186.947 23.5523 187.008 26.1611 186.858 30.0115C186.712 33.7665 186.356 40.0398 185.977 45.4461C185.947 45.8837 185.879 46.8663 185.826 47.6341C185.773 48.3979 186.371 49.7799 186.322 50.4999C186.268 51.22 185.976 52.5991 185.977 52.9053C185.982 54.2098 185.861 54.3793 186.556 55.0331C187.011 55.4571 187.437 55.6425 187.962 55.6407C188.515 55.6387 188.995 55.4143 189.475 54.9394C189.958 54.4564 189.659 53.6814 189.82 52.9053C190.007 51.978 190.463 51.078 189.75 44.9756C189.028 38.7856 188.843 36.7976 188.696 33.6641C188.645 32.5984 188.645 24.652 188.694 23.8405L188.716 23.4427L189.03 23.2905C189.57 23.0261 190.22 22.3278 190.559 21.6465C190.706 21.3477 190.899 20.8022 190.957 20.5116C191.078 19.8947 191.078 19.8072 190.754 13.4528C190.583 10.041 190.429 7.08251 190.416 6.88369C190.391 6.55367 190.375 6.50202 190.276 6.39499C190.156 6.26814 190.032 6.2447 189.961 6.33245C189.822 6.49998 189.819 6.57556 189.819 12.4538L189.82 18.2566L189.709 18.3524C189.546 18.4922 189.316 18.485 189.16 18.3344C189.044 18.2195 189.044 18.2155 189.042 17.7462C189.035 16.6167 188.927 9.76838 188.894 8.2691C188.867 7.25501 188.836 6.56309 188.808 6.47569C188.688 6.09032 188.425 6.00374 188.271 6.30257C188.192 6.45 188.188 6.53354 188.184 7.55569C188.174 9.26989 188.114 15.0529 188.088 16.7115C188.058 18.382 188.062 18.3741 187.788 18.4506C187.625 18.4949 187.438 18.4399 187.334 18.3169C187.266 18.2376 187.266 18.1661 187.156 11.6558C187.125 9.78661 187.08 8.03681 187.059 7.76643C187.034 7.49607 187.017 7.10636 187.016 6.89955C187.014 6.47002 186.962 6.21169 186.85 6.09276C186.746 5.98177 186.679 5.98996 186.58 6.1136Z" fill="black"/>
<path d="M113.709 29.4L101.997 49.656V63H96.4773V49.656L84.7653 29.4H91.0533L99.2613 44.28L107.421 29.4H113.709ZM143.492 58.584C140.132 61.944 136.02 63.624 131.156 63.624C126.292 63.624 122.164 61.944 118.772 58.584C115.412 55.192 113.732 51.064 113.732 46.2C113.732 41.336 115.412 37.224 118.772 33.864C122.164 30.472 126.292 28.776 131.156 28.776C136.02 28.776 140.132 30.472 143.492 33.864C146.884 37.224 148.58 41.336 148.58 46.2C148.58 51.064 146.884 55.192 143.492 58.584ZM122.66 54.84C124.964 57.112 127.796 58.248 131.156 58.248C134.516 58.248 137.332 57.112 139.604 54.84C141.908 52.536 143.06 49.656 143.06 46.2C143.06 42.744 141.908 39.88 139.604 37.608C137.332 35.304 134.516 34.152 131.156 34.152C127.796 34.152 124.964 35.304 122.66 37.608C120.388 39.88 119.252 42.744 119.252 46.2C119.252 49.656 120.388 52.536 122.66 54.84ZM175.366 60.456C172.998 62.568 169.942 63.624 166.198 63.624C162.454 63.624 159.398 62.568 157.03 60.456C154.662 58.312 153.478 55.448 153.478 51.864V29.4H158.998V51.528C158.998 53.576 159.59 55.208 160.774 56.424C161.99 57.64 163.798 58.248 166.198 58.248C168.598 58.248 170.39 57.64 171.574 56.424C172.79 55.208 173.398 53.576 173.398 51.528V29.4H178.918V51.864C178.918 55.448 177.734 58.312 175.366 60.456ZM205.907 29.4H211.427V63H207.107L191.267 40.2V63H185.747V29.4H190.067L205.907 52.2V29.4ZM251.306 45.624V47.928C251.306 52.536 249.786 56.312 246.746 59.256C243.706 62.168 239.738 63.624 234.842 63.624C229.658 63.624 225.37 61.944 221.978 58.584C218.618 55.224 216.938 51.096 216.938 46.2C216.938 41.336 218.618 37.224 221.978 33.864C225.37 30.472 229.562 28.776 234.554 28.776C237.69 28.776 240.554 29.496 243.146 30.936C245.738 32.376 247.754 34.312 249.194 36.744L244.442 39.48C243.546 37.88 242.218 36.6 240.458 35.64C238.698 34.648 236.73 34.152 234.554 34.152C231.034 34.152 228.138 35.304 225.866 37.608C223.594 39.912 222.458 42.792 222.458 46.248C222.458 49.704 223.594 52.568 225.866 54.84C228.17 57.112 231.178 58.248 234.89 58.248C237.866 58.248 240.282 57.56 242.138 56.184C244.026 54.776 245.226 52.904 245.738 50.568H234.506V45.624H251.306Z" fill="black"/>
<path d="M276.512 34.68H262.352V44.088H276.032V49.368H262.352V63H256.832V29.4H276.512V34.68ZM310.236 58.584C306.876 61.944 302.764 63.624 297.9 63.624C293.036 63.624 288.908 61.944 285.516 58.584C282.156 55.192 280.476 51.064 280.476 46.2C280.476 41.336 282.156 37.224 285.516 33.864C288.908 30.472 293.036 28.776 297.9 28.776C302.764 28.776 306.876 30.472 310.236 33.864C313.628 37.224 315.324 41.336 315.324 46.2C315.324 51.064 313.628 55.192 310.236 58.584ZM289.404 54.84C291.708 57.112 294.54 58.248 297.9 58.248C301.26 58.248 304.076 57.112 306.348 54.84C308.652 52.536 309.804 49.656 309.804 46.2C309.804 42.744 308.652 39.88 306.348 37.608C304.076 35.304 301.26 34.152 297.9 34.152C294.54 34.152 291.708 35.304 289.404 37.608C287.132 39.88 285.996 42.744 285.996 46.2C285.996 49.656 287.132 52.536 289.404 54.84ZM348.919 58.584C345.559 61.944 341.447 63.624 336.583 63.624C331.719 63.624 327.591 61.944 324.199 58.584C320.839 55.192 319.159 51.064 319.159 46.2C319.159 41.336 320.839 37.224 324.199 33.864C327.591 30.472 331.719 28.776 336.583 28.776C341.447 28.776 345.559 30.472 348.919 33.864C352.311 37.224 354.007 41.336 354.007 46.2C354.007 51.064 352.311 55.192 348.919 58.584ZM328.087 54.84C330.391 57.112 333.223 58.248 336.583 58.248C339.943 58.248 342.759 57.112 345.031 54.84C347.335 52.536 348.487 49.656 348.487 46.2C348.487 42.744 347.335 39.88 345.031 37.608C342.759 35.304 339.943 34.152 336.583 34.152C333.223 34.152 330.391 35.304 328.087 37.608C325.815 39.88 324.679 42.744 324.679 46.2C324.679 49.656 325.815 52.536 328.087 54.84ZM372.722 29.4C377.33 29.4 381.154 31.016 384.194 34.248C387.266 37.48 388.802 41.464 388.802 46.2C388.802 50.904 387.266 54.888 384.194 58.152C381.154 61.384 377.33 63 372.722 63H359.522V29.4H372.722ZM372.722 57.72C375.89 57.72 378.466 56.632 380.45 54.456C382.466 52.28 383.474 49.528 383.474 46.2C383.474 42.84 382.466 40.088 380.45 37.944C378.466 35.768 375.89 34.68 372.722 34.68H365.042V57.72H372.722Z" fill="#46B04B"/>
</svg>
